<svg xmlns="http://www.w3.org/2000/svg" viewBox="0 0 427.1 134.5"><defs><style>.cls-1{fill:#c3edf1;}.cls-2{fill:#fff;}</style></defs><g id="Layer_2" data-name="Layer 2"><g id="Layer_1-2" data-name="Layer 1"><path class="cls-1" d="M427,124.2a38.8,38.8,0,0,1-1.4,10.3H12.1A54.55,54.55,0,0,1,0,100.1c0-1.4.1-2.8.2-4.2l.1.1C4.4,73.8,26.4,56.9,53,56.9A60.49,60.49,0,0,1,74.9,61a79,79,0,0,1,4.4-10.4c9-17.6,24.6-32,44-40.9A108.91,108.91,0,0,1,168.7,0c41.4,0,76.7,22.4,91.1,54a64.74,64.74,0,0,1,30.6-7.5c26.2,0,48.5,14.8,56.3,35.4a65.84,65.84,0,0,1,23.8-4.4c29.6,0,53.7,18.7,56.2,42.5A31.89,31.89,0,0,1,427,124.2Z"/><path class="cls-2" d="M426.8,120.2c-12.4-11.1-30.2-18-49.9-18a78.77,78.77,0,0,0-28.7,5.3c-9.4-24.8-36.2-42.7-67.8-42.7a79.87,79.87,0,0,0-36.9,9C226.2,35.7,183.7,8.7,133.8,8.7a74.91,74.91,0,0,0-10.4,1c-19.4,8.9-35,23.3-44,40.9A55.07,55.07,0,0,0,.3,95.8C.2,97.2.1,98.6.1,100a54.55,54.55,0,0,0,12.1,34.4H425.7a39.37,39.37,0,0,0,1.4-10.3C427,122.9,426.9,121.5,426.8,120.2Z"/></g></g></svg>