<svg xmlns="http://www.w3.org/2000/svg" viewBox="0 0 418.81 403.91"><defs><style>.cls-1{fill:#d79c69;}.cls-2,.cls-3{fill:#ba873b;}.cls-3{opacity:0.33;}.cls-12,.cls-15,.cls-21,.cls-23,.cls-24,.cls-28,.cls-3,.cls-37,.cls-38,.cls-5{isolation:isolate;}.cls-4,.cls-5{fill:#cfa75d;}.cls-5{opacity:0.41;}.cls-6{fill:#e8821c;}.cls-7{opacity:0.44;}.cls-8{fill:#f8931a;}.cls-9{fill:#fee124;}.cls-10,.cls-17{fill:none;}.cls-10{stroke:#fee124;stroke-linecap:round;stroke-linejoin:round;stroke-width:3px;}.cls-11{fill:#7cce97;}.cls-12,.cls-13{fill:#52a369;}.cls-12{opacity:0.35;}.cls-14{fill:#f4b2c5;}.cls-15,.cls-16{fill:#e63a4e;}.cls-15{opacity:0.28;}.cls-18{fill:#cf935c;}.cls-19{fill:#f3c08b;}.cls-20,.cls-21{fill:#b69068;}.cls-21{opacity:0.25;}.cls-22,.cls-23,.cls-24{fill:#b17c53;}.cls-23{opacity:0.29;}.cls-24{opacity:0.64;}.cls-25{fill:#fefffb;}.cls-26,.cls-38{fill:#232323;}.cls-27{fill:#a11c20;}.cls-28{fill:#eceaeb;opacity:0.55;}.cls-29{fill:#161616;}.cls-30{fill:#eac1b0;}.cls-31{fill:#f8d1be;}.cls-32{fill:#ff6930;}.cls-33{fill:#030303;}.cls-34{fill:#baf0f7;}.cls-35{fill:#000001;}.cls-36{fill:#d0d0d0;}.cls-37{fill:#d81f25;opacity:0.39;}.cls-38{opacity:0.31;}</style></defs><g id="Layer_2" data-name="Layer 2"><g id="Layer_1-2" data-name="Layer 1"><path class="cls-1" d="M279.7,243.41v2a29,29,0,0,0-5.5-.3h-.1c-9.6.1-28.6,3.4-35.7,26.6h-1.5s2.5-24.7,31.6-28.3a49.17,49.17,0,0,1,5.6-.4C276,243.11,277.9,243.21,279.7,243.41Z"/><path class="cls-2" d="M347.1,245.71v4.9H2a2,2,0,0,1-2-1.9v-1a2,2,0,0,1,2-2Z"/><path class="cls-3" d="M321.8,248.61v1.9H2a2,2,0,0,1-2-1.9Z"/><path class="cls-4" d="M416.7,262.61a4.18,4.18,0,0,0,.8,1.2s-4.4,1.5-3,5.2c0,0-5.2,1.5-2.2,5.2,0,0-3,.7-1.5,2.2,0,0-3,5.2.7,6.7,0,0-1.5.7,0,1.5,0,0-25.2,14.1-72.6-23.7,0,0-6.7,6.7-11.8-.7,0,0-5.2,7.4-21.5,5.9,0,0-5.2-3-.7-5.9,0,0-1.5-3.7,0-4.4l-.1-.1c-.3-.6-1.2-3,.8-4.3,0,0-2.2-3.7,0-4.4,0,0-1.5-3,1.5-3.7,0,0-3-3,0-3.7a4.06,4.06,0,0,1,0-4.4s-2.2-1.5-.7-3c0,0-2.2-1.5-.7-2.2,0,0,14.8,0,21.5,8.9,0,0,5.2-6.7,11.1-1.5,0,0,32.6-27.4,75.5-22.2,0,0-3,4.4,1.5,6.7,0,0-3.7,5.2,0,8.9,0,0-1.5,3.7,0,4.4,0,0-1.5,1.5.7,3,0,0-1.5,3.7.7,5.2,0,0-.7,3.7.7,4.4,0,0-2.2,2.2.7,4.4,0,0-1.5,3.7.7,5.9C419,257.91,415.7,260.11,416.7,262.61Z"/><path class="cls-2" d="M339,260.81s-6.7,6.7-11.8-.7v-21.5s5.2-6.7,11.1-1.5Z"/><path class="cls-5" d="M414.6,269s-5.2,1.5-2.2,5.2c0,0-3,.7-1.5,2.2,0,0-3,5.2.7,6.7,0,0-1.5.7,0,1.5,0,0-25.2,14.1-72.6-23.7,0,0-6.7,6.7-11.8-.7,0,0-5.2,7.4-21.5,5.9,0,0-5.2-3-.7-5.9,0,0-1.5-3.7,0-4.4l-.1-.1c5.3.4,15.8.4,22.3-4.8,0,0,5.4,7.2,11.5,0,0,0,44.7,24.4,78,11.9a4.18,4.18,0,0,0,.8,1.2C417.5,263.81,413.1,265.31,414.6,269Z"/><path class="cls-6" d="M256.8,250.71c-.1.1-.2.1-.4.2l-2-1.2v-.4c0-2.3.2-5.3,1.5-5.7.6-.2.8,1.7.8,1.7a.52.52,0,0,0,.8,0s.6-1.2,1.3-.8,0,1.6,0,1.6a.44.44,0,0,0,.4.6s1.7-.8,1.8-.1C261.4,247.91,258.8,249.61,256.8,250.71Z"/><g class="cls-7"><path class="cls-8" d="M256.8,250.71c-.1.1-.2.1-.4.2l-2-1.2v-.4h0l2.4,1.4Z"/></g><path class="cls-8" d="M251.8,262.11l-4.7-2.7a2.26,2.26,0,0,1-.6-3.4l5-5.9a2.3,2.3,0,0,1,2.8-.5l2.2,1.3a2.23,2.23,0,0,1,1,2.6l-2.6,7.3A2.1,2.1,0,0,1,251.8,262.11Z"/><ellipse class="cls-9" cx="252.45" cy="255.43" rx="1.5" ry="2.9" transform="translate(-94.8 347.03) rotate(-60.11)"/><ellipse class="cls-8" cx="252.45" cy="255.43" rx="1.2" ry="2.5" transform="translate(-94.8 347.02) rotate(-60.11)"/><line class="cls-10" x1="251.3" y1="254.71" x2="253.7" y2="256.11"/><path class="cls-11" d="M265.5,258.61c.1,0,.1-.1.2-.1s.1-.1.2-.1c1.8-.8,4-1.4,4.7-.6.4.5-1.1,1.3-1.1,1.3a.48.48,0,0,0,.2.6s1.2.1,1.1.9-1.3.6-1.3.6c-.3,0-.4.3-.4.6,0,0,1.3,1.1.8,1.5-.9.7-2.9-.5-4.5-1.6-.1,0-.1-.1-.2-.1s-.1-.1-.2-.1a3.49,3.49,0,0,0,.5-1.3A2.17,2.17,0,0,0,265.5,258.61Z"/><path class="cls-11" d="M248.1,255.31c.9-.6,2.8.5,4.4,1.6.1,0,.1.1.2.1s.1.1.2.1a3.36,3.36,0,0,0-.5,1.4,2.2,2.2,0,0,0,.2,1.4c-.1,0-.1.1-.2.1s-.1.1-.2.1c-1.8.8-3.9,1.4-4.7.6-.4-.5,1.1-1.3,1.1-1.3a.48.48,0,0,0-.2-.6s-1.2-.1-1.1-.9,1.3-.6,1.3-.6a.44.44,0,0,0,.4-.6C248.9,256.81,247.6,255.61,248.1,255.31Z"/><path class="cls-12" d="M265.7,260a2.2,2.2,0,0,0-.2-1.4c.1,0,.1-.1.2-.1s.1-.1.2-.1a3.59,3.59,0,0,1,.2,1.1v.6a3.39,3.39,0,0,1-.6,1.5c-.1,0-.1-.1-.2-.1s-.1-.1-.2-.1A2.85,2.85,0,0,0,265.7,260Z"/><path class="cls-12" d="M252.5,256.91c.1,0,.1.1.2.1s.1.1.2.1a3.36,3.36,0,0,0-.5,1.4,2.2,2.2,0,0,0,.2,1.4c-.1,0-.1.1-.2.1s-.1.1-.2.1a1.42,1.42,0,0,1-.2-.6,1.7,1.7,0,0,1,0-1A2.77,2.77,0,0,1,252.5,256.91Z"/><path class="cls-13" d="M252.3,258.51a3.45,3.45,0,0,1,2.2-2.8c.4-.2.8-.4,1.3-.6l1.2-.3c.4,0,.7-.1,1.1-.1h1.4a4.33,4.33,0,0,1,.5.1c.3.1.6.1.9.2l.9.3a2,2,0,0,1,.8.4,3.51,3.51,0,0,1,.8.5,4.23,4.23,0,0,1,.7.5,4.62,4.62,0,0,1,.7.7,4.05,4.05,0,0,1,.5.9,2.66,2.66,0,0,1,.3,1.2v.5a3.32,3.32,0,0,1-1.7,2.5h0a6.11,6.11,0,0,1-1.4.7,5.27,5.27,0,0,1-1.2.3,3.75,3.75,0,0,1-1.1.1h-1a1.7,1.7,0,0,1-.7-.1h-.3a2.92,2.92,0,0,1-.9-.2,3.18,3.18,0,0,1-.9-.3,6.89,6.89,0,0,1-.8-.3c-.3-.1-.5-.3-.8-.4a4.23,4.23,0,0,1-.7-.5,4.35,4.35,0,0,1-.7-.6,5.55,5.55,0,0,1-.6-.8,3.58,3.58,0,0,1-.4-1.1A2,2,0,0,1,252.3,258.51Z"/><path class="cls-11" d="M261.3,263.61l3.5-6.2a4.62,4.62,0,0,0-.7-.7l-3.9,7Z"/><path class="cls-11" d="M258.5,263.71a1.7,1.7,0,0,1,.7.1l4.2-7.6a5.58,5.58,0,0,0-.8-.5l-4.4,7.9A.37.37,0,0,0,258.5,263.71Z"/><path class="cls-11" d="M256.8,263.31a.9.9,0,0,0,.5.1l4.5-8.1c-.2-.1-.3-.1-.5-.2s-.2-.1-.3-.1l-4.5,8.1C256.6,263.31,256.7,263.31,256.8,263.31Z"/><path class="cls-11" d="M255.6,262.91l4.5-8a4.33,4.33,0,0,1-.5-.1h-.4l-4.3,7.7A2.15,2.15,0,0,0,255.6,262.91Z"/><path class="cls-11" d="M254.1,261.91l4-7.2c-.4,0-.7.1-1.1.1l-3.6,6.5A4.35,4.35,0,0,0,254.1,261.91Z"/><path class="cls-11" d="M252.8,260.51l3-5.4a3.1,3.1,0,0,0-1.3.6l-2.1,3.8A4.18,4.18,0,0,0,252.8,260.51Z"/><path class="cls-11" d="M264,262.51h0l1.7-3.1a2.66,2.66,0,0,0-.3-1.2l-2.8,5A3.69,3.69,0,0,0,264,262.51Z"/><path class="cls-11" d="M255.9,258.91a1.82,1.82,0,0,1,1-1.3l.6-.3a1.09,1.09,0,0,1,.5-.1h1.5c.1,0,.3.1.4.1s.3.1.4.1a.76.76,0,0,1,.4.2c.1.1.2.1.4.2l.3.3.3.3c.1.1.2.3.3.4s.1.4.2.6v.2a1.64,1.64,0,0,1-.8,1.2h0a4.88,4.88,0,0,1-.7.3c-.2.1-.4.1-.6.2s-.3.1-.5.1h-.9a.6.6,0,0,1-.4-.1c-.1,0-.3-.1-.4-.1a.76.76,0,0,1-.4-.2c-.1-.1-.3-.1-.4-.2s-.2-.2-.3-.2l-.3-.3a1.38,1.38,0,0,1-.3-.4c-.1-.2-.2-.3-.2-.5A1.09,1.09,0,0,1,255.9,258.91Z"/><path class="cls-13" d="M256.5,259a2.1,2.1,0,0,1,.8-1.1c.2-.1.3-.2.5-.2s.3-.1.4-.1h1.2a.37.37,0,0,1,.3.1c.1,0,.2.1.3.1s.2.1.3.1.2.1.3.2.2.1.3.2l.3.3c.1.1.2.2.2.3a.9.9,0,0,1,.1.5v.2a1.52,1.52,0,0,1-.6,1h0c-.2.1-.3.2-.5.3a.75.75,0,0,1-.5.1h-1.2a.76.76,0,0,1-.4-.1c-.1,0-.2-.1-.3-.1s-.2-.1-.3-.1-.2-.1-.3-.2-.2-.1-.3-.2-.2-.2-.3-.2-.2-.2-.2-.3-.1-.3-.2-.4A.76.76,0,0,0,256.5,259Z"/><path class="cls-11" d="M289,253.31v-.4c-.4-1.9-.6-4.2.4-4.7.5-.3,1,1.3,1,1.3a.49.49,0,0,0,.7-.1s.3-1.2,1.1-.9.3,1.4.3,1.4a.47.47,0,0,0,.5.5s1.4-1,1.6-.5c.5,1-1.1,2.7-2.5,4-.1,0-.1.1-.2.1s-.1.1-.2.1a3.6,3.6,0,0,0-1.2-.8A3.75,3.75,0,0,0,289,253.31Z"/><path class="cls-11" d="M282.1,269.61c-.4-1,1-2.7,2.5-4,.1,0,.1-.1.2-.1s.1-.1.2-.1a4.18,4.18,0,0,0,1.2.8,2.29,2.29,0,0,0,1.4.1v.4c.4,1.9.5,4.2-.4,4.7-.5.3-1-1.4-1-1.4a.49.49,0,0,0-.7.1s-.3,1.2-1.1.9-.3-1.4-.3-1.4a.47.47,0,0,0-.5-.5C283.7,269.21,282.3,270.21,282.1,269.61Z"/><path class="cls-12" d="M290.4,253.41a2.25,2.25,0,0,0-1.4-.1v-.4a2.05,2.05,0,0,1,1.1,0,4.33,4.33,0,0,1,.5.1,4.19,4.19,0,0,1,1.4.9c-.1,0-.1.1-.2.1s-.1.1-.2.1A7.46,7.46,0,0,0,290.4,253.41Z"/><path class="cls-12" d="M284.6,265.61c.1,0,.1-.1.2-.1s.1-.1.2-.1a4.18,4.18,0,0,0,1.2.8,2.29,2.29,0,0,0,1.4.1v.4c-.2,0-.4.1-.7.1a3.55,3.55,0,0,1-1-.2A2.56,2.56,0,0,1,284.6,265.61Z"/><path class="cls-13" d="M286.1,266.11a4,4,0,0,1-2.3-2.7c-.1-.4-.2-.9-.3-1.4v-1.2c0-.4.1-.7.1-1.1s.1-.7.2-1c0-.1.1-.3.1-.4s.1-.3.2-.5a3.55,3.55,0,0,1,.4-.9,3.51,3.51,0,0,1,.5-.8,4.23,4.23,0,0,1,.5-.7c.2-.2.4-.5.6-.7a4.35,4.35,0,0,1,.7-.6,3.51,3.51,0,0,1,.8-.5,3.55,3.55,0,0,1,.9-.4,5.7,5.7,0,0,1,1.3-.1c.2,0,.3.1.5.1a3.31,3.31,0,0,1,2.1,2.2h0a8.33,8.33,0,0,1,.4,1.5,5.28,5.28,0,0,1,.1,1.3,4.1,4.1,0,0,1-.1,1.1,3.55,3.55,0,0,1-.2,1,6.37,6.37,0,0,0-.2.7c0,.1-.1.2-.1.3h0a3.55,3.55,0,0,1-.4.9,5.94,5.94,0,0,1-.4.8,4.23,4.23,0,0,1-.5.7,6,6,0,0,1-1.3,1.3,2.18,2.18,0,0,1-.8.5,3.55,3.55,0,0,1-.9.4,5.16,5.16,0,0,1-1.1.2C286.7,266.31,286.4,266.21,286.1,266.11Z"/><path class="cls-11" d="M293,258.41l-5.4-4.7a3.51,3.51,0,0,0-.8.5l6,5.3Z"/><path class="cls-11" d="M292.5,261.21a6.37,6.37,0,0,0,.2-.7l-6.5-5.7a4.35,4.35,0,0,0-.6.7l6.8,6C292.4,261.41,292.5,261.31,292.5,261.21Z"/><path class="cls-11" d="M291.8,262.81c.1-.2.2-.3.2-.5l-7-6.1c-.1.2-.2.3-.3.5s-.1.2-.2.3l7,6.2C291.7,263,291.7,262.91,291.8,262.81Z"/><path class="cls-11" d="M291.1,263.91l-6.9-6c-.1.2-.1.3-.2.5s-.1.3-.1.4l6.6,5.8C290.7,264.41,290.9,264.11,291.1,263.91Z"/><path class="cls-11" d="M289.8,265.21l-6.2-5.4a4.1,4.1,0,0,0-.1,1.1l5.6,4.9C289.4,265.51,289.6,265.41,289.8,265.21Z"/><path class="cls-11" d="M288.2,266.11l-4.7-4.1a3.19,3.19,0,0,0,.3,1.4l3.3,2.9A5.16,5.16,0,0,0,288.2,266.11Z"/><path class="cls-11" d="M292.5,255.61h0l-2.6-2.3a2,2,0,0,0-1.3.1l4.3,3.8A4.19,4.19,0,0,0,292.5,255.61Z"/><path class="cls-11" d="M287.3,262.71a1.84,1.84,0,0,1-1.1-1.3,1.48,1.48,0,0,1-.1-.7v-.6a.9.9,0,0,1,.1-.5,4.33,4.33,0,0,0,.1-.5c0-.1,0-.1.1-.2a.35.35,0,0,1,.1-.2c.1-.1.1-.3.2-.4s.1-.3.2-.4.2-.2.2-.3l.3-.3.3-.3a.52.52,0,0,1,.4-.2c.1-.1.3-.1.4-.2a.64.64,0,0,1,.6,0c.1,0,.2,0,.2.1a1.65,1.65,0,0,1,1,1h0a1.85,1.85,0,0,1,.2.7v1.1a.9.9,0,0,1-.1.5c0,.1-.1.2-.1.3v.1h0a.76.76,0,0,1-.2.4c-.1.1-.1.3-.2.4s-.2.2-.2.3l-.3.3-.3.3a.52.52,0,0,1-.4.2c-.1.1-.3.1-.4.2a.9.9,0,0,1-.5.1C287.5,262.81,287.4,262.81,287.3,262.71Z"/><path class="cls-13" d="M287.4,262.21a1.52,1.52,0,0,1-.9-1,.9.9,0,0,1-.1-.5v-.9c0-.1.1-.2.1-.4v-.2c0-.1,0-.1.1-.2s.1-.2.1-.3.1-.2.2-.3.1-.2.2-.3.1-.2.2-.2.2-.2.3-.2.2-.1.3-.2.2-.1.4-.1.3-.1.5,0h.2c.4.1.6.4.8.8h0c.1.2.1.4.2.6v.9a.6.6,0,0,1-.1.4.37.37,0,0,1-.1.3v.1h0c0,.1-.1.2-.1.3s-.1.2-.2.3-.1.2-.2.3-.1.2-.2.3l-.2.2c-.1.1-.2.1-.3.2s-.2.1-.3.2-.3.1-.4.1A.55.55,0,0,0,287.4,262.21Z"/><path class="cls-14" d="M283.6,263a3.1,3.1,0,0,0,.6-1.3,3.3,3.3,0,0,0,0-1.4,4.33,4.33,0,0,1,.5-.1c1.9-.6,4-1,4.7-.1.4.5-1.2,1.1-1.2,1.1-.2.2-.1.5.2.7,0,0,1.2.2,1,1s-1.4.4-1.4.4c-.3,0-.5.3-.4.5,0,0,1.2,1.3.6,1.6-.9.6-2.7-.7-4.2-2Z"/><path class="cls-14" d="M262.7,257.71s-1.2-.2-1-1,1.3-.4,1.3-.4c.3,0,.5-.3.4-.5,0,0-1.2-1.2-.6-1.6.9-.5,2.7.7,4.1,2a1.38,1.38,0,0,0,.4.3,3.1,3.1,0,0,0-.6,1.3,3.79,3.79,0,0,0,0,1.5c-.2,0-.3.1-.5.1-1.8.5-4,.9-4.6.1-.4-.5,1.2-1.2,1.2-1.2A.38.38,0,0,0,262.7,257.71Z"/><path class="cls-15" d="M283.9,263.31a1.38,1.38,0,0,0-.4-.3,3.1,3.1,0,0,0,.6-1.3,3.3,3.3,0,0,0,0-1.4,4.33,4.33,0,0,1,.5-.1v.2a1.27,1.27,0,0,0,.1.6v.6a.37.37,0,0,1-.1.3,1.42,1.42,0,0,1-.2.6c0,.1-.1.2-.1.3s-.1.2-.1.3-.1.2-.2.3C284,263.21,283.9,263.31,283.9,263.31Z"/><path class="cls-15" d="M266.2,259.41v-.2a4.1,4.1,0,0,1-.1-1.1.6.6,0,0,1,.1-.4,3.51,3.51,0,0,1,.6-1.4l.1-.1a1.38,1.38,0,0,0,.4.3,3.1,3.1,0,0,0-.6,1.3,3.79,3.79,0,0,0,0,1.5A4.33,4.33,0,0,0,266.2,259.41Z"/><path class="cls-16" d="M266.7,257.81a2.62,2.62,0,0,1,.6-1.3,2.84,2.84,0,0,1,1-.9c.1-.1.2-.1.3-.2a4.06,4.06,0,0,1,1.9-.4.6.6,0,0,1,.4.1l10.5,2.3a5,5,0,0,1,1.3.5,3.65,3.65,0,0,1,1.4,1.9c0,.1.1.2.1.3a1.27,1.27,0,0,0,.1.6v.9a.76.76,0,0,1-.2.5c0,.1-.1.2-.1.3a.35.35,0,0,1-.1.2c0,.1-.1.2-.2.3s-.1.2-.2.3a1.56,1.56,0,0,1-.8.6,3.49,3.49,0,0,1-1.3.5,3.3,3.3,0,0,1-1.4,0L269.5,262c-.1,0-.3-.1-.4-.1a3.55,3.55,0,0,1-1.6-1.1,2.93,2.93,0,0,1-.7-1.6,3.4,3.4,0,0,1-.1-1C266.6,258.11,266.6,258,266.7,257.81Z"/><rect class="cls-14" x="272.29" y="258.86" width="7.2" height="1.8" transform="translate(-37.26 473.12) rotate(-77.54)"/><rect class="cls-14" x="275.69" y="259.71" width="7.2" height="1.8" transform="translate(-35.42 477.11) rotate(-77.54)"/><path class="cls-14" d="M281.9,264.31c.2-.1.5-.2.7-.3s.5-.4.8-.6l.7-3.4a3,3,0,0,0-1.4-1.9l-1.4,6.5C281.5,264.41,281.7,264.41,281.9,264.31Z"/><rect class="cls-14" x="268.76" y="258.08" width="7.2" height="1.8" transform="translate(-39.27 469.07) rotate(-77.54)"/><path class="cls-14" d="M268.9,262l1.5-6.9a4.4,4.4,0,0,0-1.6.2c-.1,0-.2.1-.3.1l-1.2,5.5A5.72,5.72,0,0,0,268.9,262Z"/><path class="cls-14" d="M272,259a.76.76,0,0,1,.2-.5c.1-.1.2-.3.4-.4l.1-.1a.88.88,0,0,1,.7-.1h.2l4.1.9c.2,0,.3.1.5.2s.5.4.5.7v.6c0,.1,0,.1-.1.2v.2a.1.1,0,0,1-.1.1l-.1.1-.3.3c-.2.1-.3.2-.5.2h-.5l-4.1-.9h-.2c-.2-.1-.5-.2-.6-.4l-.3-.6v-.4C272,259.11,272,259.11,272,259Z"/><path class="cls-16" d="M272.7,259.21a.52.52,0,0,1,.2-.4l.3-.3a.1.1,0,0,0,.1-.1,1.27,1.27,0,0,1,.6-.1h.1l3.2.7a.76.76,0,0,1,.4.2.82.82,0,0,1,.4.6v1a.1.1,0,0,1-.1.1.1.1,0,0,1-.1.1l-.2.2c-.1.1-.3.1-.4.2h-.4l-3.2-.7h-.1a2.19,2.19,0,0,1-.5-.3.76.76,0,0,1-.2-.5v-.3A1.58,1.58,0,0,1,272.7,259.21Z"/><path class="cls-6" d="M274.9,258.41h-.4l-1.3-1.9c.1-.1.1-.2.2-.4.9-2.1,2.4-4.7,3.8-4.6.7.1,0,1.8,0,1.8a.57.57,0,0,0,.7.4s1.1-.8,1.5-.1-.7,1.4-.7,1.4a.42.42,0,0,0,.1.7s1.9,0,1.7.7C280.2,257.81,277.2,258.21,274.9,258.41Z"/><g class="cls-7"><path class="cls-8" d="M274.9,258.41h-.4l-1.3-1.9c.1-.1.1-.2.2-.4h0l1.5,2.3Z"/></g><path class="cls-8" d="M265.4,266.51l-3.1-4.4a2.28,2.28,0,0,1,.9-3.3l7.1-3.2a2.2,2.2,0,0,1,2.7.8l1.4,2.1a2.14,2.14,0,0,1-.3,2.8l-5.5,5.5C267.9,267.81,266.2,267.61,265.4,266.51Z"/><ellipse class="cls-9" cx="268.99" cy="260.79" rx="1.5" ry="2.9" transform="translate(-100.49 198.76) rotate(-34.58)"/><ellipse class="cls-8" cx="268.99" cy="260.79" rx="1.2" ry="2.5" transform="translate(-100.5 198.76) rotate(-34.58)"/><line class="cls-10" x1="268.2" y1="259.61" x2="269.8" y2="262.01"/><path class="cls-14" d="M293.7,269.71a3.18,3.18,0,0,0,.2-1.4,3.26,3.26,0,0,0-.4-1.4c.1-.1.3-.2.4-.3,1.6-1.1,3.6-2.1,4.5-1.4.5.4-.9,1.4-.9,1.4-.1.3.1.5.4.6,0,0,1.2-.1,1.3.6s-1.2.8-1.2.8a.45.45,0,0,0-.3.6s1.5.9,1,1.3c-.7.8-2.8.1-4.6-.8C294,269.81,293.9,269.81,293.7,269.71Z"/><path class="cls-14" d="M272.2,270.41s-1.2.1-1.3-.6,1.2-.8,1.2-.8a.45.45,0,0,0,.3-.6s-1.5-.9-1-1.3c.7-.8,2.8-.1,4.5.7.1.1.3.1.4.2a3.64,3.64,0,0,0-.2,1.5,3.26,3.26,0,0,0,.4,1.4c-.1.1-.3.2-.4.3-1.6,1-3.6,2-4.4,1.3-.5-.4.9-1.5.9-1.5A.55.55,0,0,0,272.2,270.41Z"/><path class="cls-15" d="M294.2,269.91c-.1-.1-.3-.1-.4-.2a3.18,3.18,0,0,0,.2-1.4,3.26,3.26,0,0,0-.4-1.4c.1-.1.3-.2.4-.3l.1.1a1.69,1.69,0,0,1,.2.5c0,.1.1.2.1.3s.1.2.1.3V269a.37.37,0,0,1-.1.3c0,.1-.1.2-.1.4S294.2,269.81,294.2,269.91Z"/><path class="cls-15" d="M276.1,271.11c0-.1-.1-.1-.1-.2a4.18,4.18,0,0,1-.4-1,.6.6,0,0,0-.1-.4,3.64,3.64,0,0,1,.2-1.5c0-.1,0-.1.1-.2.1.1.3.1.4.2a3.64,3.64,0,0,0-.2,1.5,3.26,3.26,0,0,0,.4,1.4C276.3,270.91,276.2,271,276.1,271.11Z"/><path class="cls-16" d="M276.1,269.41a3.89,3.89,0,0,1,.2-1.5,4.13,4.13,0,0,1,.7-1.1l.3-.3a5.56,5.56,0,0,1,1.7-.9.6.6,0,0,0,.4-.1l10.7-.7a3.4,3.4,0,0,1,1.4.2,3.58,3.58,0,0,1,1.9,1.5c.1.1.1.2.2.3s.1.3.2.5.1.2.1.3a.37.37,0,0,0,.1.3V269a.37.37,0,0,1-.1.3c0,.1-.1.2-.1.3s-.1.2-.1.3a2.18,2.18,0,0,1-.5.8,4.81,4.81,0,0,1-1.1.9,2.77,2.77,0,0,1-1.3.3l-10.7.7h-.4a3.51,3.51,0,0,1-1.8-.6,2.76,2.76,0,0,1-1.1-1.3,1.69,1.69,0,0,1-.3-1C276.1,269.71,276.1,269.61,276.1,269.41Z"/><rect class="cls-14" x="284.58" y="265.2" width="1.8" height="7.2" transform="translate(-17.13 19.45) rotate(-3.79)"/><rect class="cls-14" x="288.09" y="265" width="1.8" height="7.2" transform="translate(-17.11 19.67) rotate(-3.79)"/><path class="cls-14" d="M292.5,271.41c.2-.2.4-.3.6-.5a2.18,2.18,0,0,0,.5-.8l-.2-3.5a3.58,3.58,0,0,0-1.9-1.5l.4,6.6Z"/><rect class="cls-14" x="280.99" y="265.5" width="1.8" height="7.2" transform="translate(-17.16 19.21) rotate(-3.79)"/><path class="cls-14" d="M279.4,272.81l-.5-7.1a4.71,4.71,0,0,0-1.5.6c-.1.1-.2.2-.3.2l.4,5.6A4.9,4.9,0,0,0,279.4,272.81Z"/><path class="cls-14" d="M281.5,269.11a1.27,1.27,0,0,1,.1-.6c.1-.2.1-.3.3-.4l.1-.1a.91.91,0,0,1,.7-.3h.2l4.1-.3a.75.75,0,0,1,.5.1,1.06,1.06,0,0,1,.7.6.1.1,0,0,0,.1.1c0,.1.1.1.1.2v.8a.1.1,0,0,1-.1.1c-.1.1-.1.2-.2.3s-.3.3-.4.3a.9.9,0,0,1-.5.1l-4.1.3h-.2a1.45,1.45,0,0,1-.7-.2,1,1,0,0,1-.4-.5c-.1-.1-.1-.2-.1-.4A.35.35,0,0,1,281.5,269.11Z"/><path class="cls-16" d="M282.3,269c0-.2,0-.3.1-.4s.1-.2.2-.3l.1-.1a2.19,2.19,0,0,1,.5-.3h.1l3.3-.2a.6.6,0,0,1,.4.1,2.09,2.09,0,0,1,.6.4.1.1,0,0,0,.1.1c0,.1,0,.1.1.2v.9c0,.1-.1.2-.2.3l-.3.3a.6.6,0,0,1-.4.1l-3.3.2h-.1a1.42,1.42,0,0,1-.6-.2c-.1-.1-.3-.2-.3-.4s-.1-.2-.1-.3C282.3,269.11,282.3,269.11,282.3,269Z"/><line class="cls-17" x1="315.8" y1="287.01" x2="304.3" y2="287.01"/><path class="cls-11" d="M237.6,271.31c-.1,0-.1.1-.2.1s-.1.1-.2.1c-1.5,1.3-3.4,2.5-4.3,1.9-.5-.3.7-1.5.7-1.5.1-.3-.1-.5-.4-.5,0,0-1.2.3-1.3-.5s1.1-.9,1.1-.9a.4.4,0,0,0,.2-.6s-1.6-.7-1.2-1.2c.7-.9,2.9-.4,4.7.3.1,0,.1,0,.2.1s.1,0,.2.1a3.33,3.33,0,0,0-.1,1.4A3.38,3.38,0,0,0,237.6,271.31Z"/><path class="cls-11" d="M255.3,269.51c-.7.9-2.8.4-4.7-.3-.1,0-.1,0-.2-.1s-.1,0-.2-.1a3.81,3.81,0,0,0,.1-1.5,3.1,3.1,0,0,0-.6-1.3c.1,0,.1-.1.2-.1s.1-.1.2-.1c1.5-1.2,3.4-2.5,4.3-1.9.5.3-.7,1.5-.7,1.5-.1.3.1.5.4.5,0,0,1.2-.3,1.3.5s-1.1.9-1.1.9c-.3.1-.3.4-.2.7C254.1,268.31,255.6,269,255.3,269.51Z"/><path class="cls-12" d="M237,270a3.1,3.1,0,0,0,.6,1.3c-.1,0-.1.1-.2.1s-.1.1-.2.1a3.13,3.13,0,0,1-.5-1c-.1-.2-.1-.3-.2-.5a2.86,2.86,0,0,1,.1-1.6c.1,0,.1,0,.2.1s.1,0,.2.1Z"/><path class="cls-12" d="M250.6,269.21c-.1,0-.1,0-.2-.1s-.1,0-.2-.1a3.81,3.81,0,0,0,.1-1.5,3.1,3.1,0,0,0-.6-1.3c.1,0,.1-.1.2-.1s.1-.1.2-.1c.1.2.3.4.4.6a1.69,1.69,0,0,1,.3,1A4.4,4.4,0,0,1,250.6,269.21Z"/><path class="cls-13" d="M250.3,267.61a3.83,3.83,0,0,1-1.2,3.3,10.63,10.63,0,0,1-1.1.9c-.3.2-.7.4-1,.6a4.18,4.18,0,0,1-1,.4c-.3.1-.6.2-1,.3-.1,0-.3.1-.4.1a4.33,4.33,0,0,0-.5.1c-.3,0-.6.1-.9.1h-.9c-.3,0-.6-.1-.9-.1s-.6-.1-.9-.2a6.89,6.89,0,0,1-.8-.3,5.94,5.94,0,0,1-.8-.4,5,5,0,0,1-.8-.7,4.13,4.13,0,0,1-.7-1.1.9.9,0,0,1-.1-.5,3.62,3.62,0,0,1,.9-2.9h0a5.73,5.73,0,0,1,1.1-1.1,10.54,10.54,0,0,1,1.1-.7,4.18,4.18,0,0,1,1-.4c.3-.1.6-.2,1-.3.2-.1.5-.1.7-.2h.3a2.77,2.77,0,0,1,.9-.1h.9a2.77,2.77,0,0,1,.9.1,2.92,2.92,0,0,1,.9.2l.9.3a2,2,0,0,1,.8.4,4,4,0,0,1,1.5,1.5C250.1,267,250.2,267.31,250.3,267.61Z"/><path class="cls-11" d="M240.2,265.31l-1.5,7a3,3,0,0,0,.8.4l1.7-7.8Z"/><path class="cls-11" d="M242.8,264.41a1.85,1.85,0,0,0-.7.2l-1.9,8.5a2.92,2.92,0,0,0,.9.2l1.9-8.9Z"/><path class="cls-11" d="M244.6,264.31h-.5l-2,9.1h1l2-9.1Z"/><path class="cls-11" d="M245.9,264.41l-2,9a.75.75,0,0,0,.5-.1.6.6,0,0,0,.4-.1l1.9-8.6A1.88,1.88,0,0,0,245.9,264.41Z"/><path class="cls-11" d="M247.6,264.81l-1.8,8.1a10.37,10.37,0,0,0,1-.4l1.6-7.2A2.18,2.18,0,0,0,247.6,264.81Z"/><path class="cls-11" d="M249.2,265.81l-1.3,6.1a10.63,10.63,0,0,0,1.1-.9l.9-4.2A2.29,2.29,0,0,0,249.2,265.81Z"/><path class="cls-11" d="M237.9,267.11h0l-.8,3.4a2.59,2.59,0,0,0,.7,1.1L239,266A11.41,11.41,0,0,0,237.9,267.11Z"/><path class="cls-11" d="M246.7,268.31a1.57,1.57,0,0,1-.6,1.5,1,1,0,0,1-.5.4,2.19,2.19,0,0,1-.5.3c-.2.1-.3.1-.5.2a4.33,4.33,0,0,1-.5.1h-1.7c-.1,0-.3-.1-.4-.1s-.3-.1-.4-.1-.3-.1-.4-.2-.3-.2-.4-.3-.2-.3-.3-.5a.35.35,0,0,0-.1-.2,1.9,1.9,0,0,1,.4-1.4h0a1.21,1.21,0,0,1,.5-.5,2.19,2.19,0,0,1,.5-.3c.1-.1.3-.1.5-.2a.75.75,0,0,1,.5-.1c.1,0,.2-.1.3-.1h1.3a.6.6,0,0,1,.4.1c.1,0,.3.1.4.1s.3.1.4.2.3.2.4.3.2.3.3.4C246.6,268,246.7,268.11,246.7,268.31Z"/><path class="cls-13" d="M246.1,268.41a1.46,1.46,0,0,1-.5,1.3c-.1.1-.3.2-.4.3a.76.76,0,0,1-.4.2c-.1.1-.3.1-.4.2s-.2.1-.4.1h-1.4a.37.37,0,0,1-.3-.1c-.1,0-.2-.1-.3-.1s-.2-.1-.3-.2-.2-.2-.3-.2-.2-.3-.3-.4,0-.1-.1-.2a1.43,1.43,0,0,1,.3-1.1h0c.1-.2.3-.3.4-.4s.3-.2.4-.3.2-.1.4-.2.2-.1.4-.1a.37.37,0,0,0,.3-.1h1.1a.37.37,0,0,1,.3.1c.1,0,.2.1.3.1s.2.1.3.2.2.1.3.2l.3.3A.37.37,0,0,1,246.1,268.41Z"/><path class="cls-11" d="M268.9,269.51c-.1,0-.1.1-.2.1s-.1.1-.2.1c-1.5,1.3-3.4,2.5-4.3,1.9-.5-.3.7-1.5.7-1.5.1-.3-.1-.5-.4-.5,0,0-1.2.3-1.3-.5s1.1-.9,1.1-.9a.4.4,0,0,0,.2-.6s-1.6-.7-1.2-1.2c.7-.9,2.9-.4,4.7.3.1,0,.1,0,.2.1s.1,0,.2.1a3.33,3.33,0,0,0-.1,1.4A3.38,3.38,0,0,0,268.9,269.51Z"/><path class="cls-11" d="M286.6,267.61c-.7.9-2.8.4-4.7-.3-.1,0-.1,0-.2-.1s-.1,0-.2-.1a3.81,3.81,0,0,0,.1-1.5,3.1,3.1,0,0,0-.6-1.3c.1,0,.1-.1.2-.1s.1-.1.2-.1c1.5-1.2,3.4-2.5,4.3-1.9.5.3-.7,1.5-.7,1.5-.1.3.1.5.4.5,0,0,1.2-.3,1.3.5s-1.1.9-1.1.9c-.3.1-.3.4-.2.7C285.4,266.41,286.9,267.11,286.6,267.61Z"/><path class="cls-12" d="M268.3,268.21a3.1,3.1,0,0,0,.6,1.3c-.1,0-.1.1-.2.1s-.1.1-.2.1a3.13,3.13,0,0,1-.5-1c-.1-.2-.1-.3-.2-.5a2.86,2.86,0,0,1,.1-1.6c.1,0,.1,0,.2.1s.1,0,.2.1Z"/><path class="cls-12" d="M281.9,267.41c-.1,0-.1,0-.2-.1s-.1,0-.2-.1a3.81,3.81,0,0,0,.1-1.5,3.1,3.1,0,0,0-.6-1.3c.1,0,.1-.1.2-.1s.1-.1.2-.1c.1.2.3.4.4.6a1.69,1.69,0,0,1,.3,1A4.68,4.68,0,0,1,281.9,267.41Z"/><path class="cls-13" d="M281.6,265.81a3.83,3.83,0,0,1-1.2,3.3,10.63,10.63,0,0,1-1.1.9c-.3.2-.7.4-1,.6a4.18,4.18,0,0,1-1,.4c-.3.1-.6.2-1,.3-.1,0-.3.1-.4.1a4.33,4.33,0,0,0-.5.1c-.3,0-.6.1-.9.1h-.9c-.3,0-.6-.1-.9-.1s-.6-.1-.9-.2a6.89,6.89,0,0,1-.8-.3,5.94,5.94,0,0,1-.8-.4,5,5,0,0,1-.8-.7,4.13,4.13,0,0,1-.7-1.1.9.9,0,0,1-.1-.5,3.62,3.62,0,0,1,.9-2.9h0a5.73,5.73,0,0,1,1.1-1.1,10.54,10.54,0,0,1,1.1-.7,4.18,4.18,0,0,1,1-.4c.3-.1.6-.2,1-.3.2-.1.5-.1.7-.2h.3a2.77,2.77,0,0,1,.9-.1h.9a2.77,2.77,0,0,1,.9.1,2.92,2.92,0,0,1,.9.2l.9.3a2,2,0,0,1,.8.4,4,4,0,0,1,1.5,1.5C281.4,265.11,281.5,265.51,281.6,265.81Z"/><path class="cls-11" d="M271.5,263.51l-1.5,7a3,3,0,0,0,.8.4l1.7-7.8Z"/><path class="cls-11" d="M274.1,262.61a1.85,1.85,0,0,0-.7.2l-1.9,8.5a2.92,2.92,0,0,0,.9.2l1.9-8.9C274.3,262.51,274.2,262.61,274.1,262.61Z"/><path class="cls-11" d="M275.9,262.41h-.5l-2,9.1h1l2-9.1Z"/><path class="cls-11" d="M277.2,262.51l-2,9a.75.75,0,0,0,.5-.1.6.6,0,0,0,.4-.1l1.9-8.6A1.88,1.88,0,0,0,277.2,262.51Z"/><path class="cls-11" d="M278.9,263l-1.8,8.1a10.37,10.37,0,0,0,1-.4l1.6-7.2A1.37,1.37,0,0,0,278.9,263Z"/><path class="cls-11" d="M280.5,264l-1.3,6.1a10.63,10.63,0,0,0,1.1-.9l.9-4.2A1.53,1.53,0,0,0,280.5,264Z"/><path class="cls-11" d="M269.2,265.21h0l-.8,3.4a2.59,2.59,0,0,0,.7,1.1l1.2-5.6Z"/><path class="cls-11" d="M278,266.41a1.57,1.57,0,0,1-.6,1.5,1,1,0,0,1-.5.4,2.19,2.19,0,0,1-.5.3c-.2.1-.3.1-.5.2a4.33,4.33,0,0,1-.5.1h-1.7c-.1,0-.3-.1-.4-.1s-.3-.1-.4-.1-.3-.1-.4-.2-.3-.2-.4-.3-.2-.3-.3-.5a.35.35,0,0,0-.1-.2,1.9,1.9,0,0,1,.4-1.4h0a1.21,1.21,0,0,1,.5-.5,2.19,2.19,0,0,1,.5-.3c.1-.1.3-.1.5-.2a.75.75,0,0,1,.5-.1c.1,0,.2-.1.3-.1h1.3a.6.6,0,0,1,.4.1c.1,0,.3.1.4.1s.3.1.4.2.3.2.4.3.2.3.3.4C277.9,266.11,278,266.31,278,266.41Z"/><path class="cls-13" d="M277.5,266.51a1.46,1.46,0,0,1-.5,1.3c-.1.1-.3.2-.4.3a.76.76,0,0,1-.4.2c-.1.1-.3.1-.4.2s-.2.1-.4.1H274a.37.37,0,0,1-.3-.1c-.1,0-.2-.1-.3-.1s-.2-.1-.3-.2-.2-.2-.3-.2-.2-.3-.3-.4,0-.1-.1-.2a1.43,1.43,0,0,1,.3-1.1h0c.1-.2.3-.3.4-.4s.3-.2.4-.3.2-.1.4-.2.2-.1.4-.1a.37.37,0,0,0,.3-.1h1.1a.37.37,0,0,1,.3.1c.1,0,.2.1.3.1s.2.1.3.2.2.1.3.2l.3.3C277.4,266.31,277.4,266.41,277.5,266.51Z"/><path class="cls-11" d="M306.2,255.81v-.4c.3-1.9.9-4.2,1.9-4.3.6-.1.5,1.6.5,1.6a.48.48,0,0,0,.7.1s.7-1,1.3-.5-.2,1.4-.2,1.4a.45.45,0,0,0,.3.6s1.6-.5,1.7.1c.1,1.1-1.9,2.2-3.7,3-.1,0-.1.1-.2.1s-.1.1-.2.1a3.13,3.13,0,0,0-.9-1.1A2.13,2.13,0,0,0,306.2,255.81Z"/><path class="cls-11" d="M294.3,268.91c-.1-1.1,1.9-2.2,3.7-2.9.1,0,.1-.1.2-.1s.1-.1.2-.1a3.18,3.18,0,0,0,2.2,1.7v.4c-.3,1.9-.9,4.1-1.9,4.3-.6.1-.5-1.6-.5-1.6a.48.48,0,0,0-.7-.1s-.7,1-1.3.5.2-1.4.2-1.4a.42.42,0,0,0-.3-.6C295.9,269,294.3,269.51,294.3,268.91Z"/><path class="cls-12" d="M307.5,256.41a3.1,3.1,0,0,0-1.3-.6v-.4a3,3,0,0,1,1,.4c.2.1.3.2.5.3a3.25,3.25,0,0,1,1,1.3c-.1,0-.1.1-.2.1s-.1.1-.2.1A2.8,2.8,0,0,0,307.5,256.41Z"/><path class="cls-12" d="M297.9,266c.1,0,.1-.1.2-.1s.1-.1.2-.1a3.18,3.18,0,0,0,2.2,1.7v.4a2.54,2.54,0,0,1-.7-.2,4.05,4.05,0,0,1-.9-.5A3.06,3.06,0,0,1,297.9,266Z"/><path class="cls-13" d="M299.2,267a3.74,3.74,0,0,1-1.3-3.3,6.75,6.75,0,0,1,.2-1.4,3.58,3.58,0,0,1,.4-1.1,4.67,4.67,0,0,1,.5-1,2.41,2.41,0,0,1,.6-.8c.1-.1.2-.2.2-.3s.2-.3.3-.4.4-.5.6-.7.5-.4.7-.6a3,3,0,0,1,.7-.5,3,3,0,0,1,.8-.4c.3-.1.5-.3.8-.3a2.92,2.92,0,0,1,.9-.2,3.35,3.35,0,0,1,1,0,2.45,2.45,0,0,1,1.2.4,1.38,1.38,0,0,1,.4.3,3.73,3.73,0,0,1,1.3,2.8h0a9.15,9.15,0,0,1-.1,1.6l-.3,1.2a4.67,4.67,0,0,1-.5,1,4.05,4.05,0,0,1-.5.9c-.1.2-.3.4-.4.6l-.2.2h0a6,6,0,0,1-1.3,1.3,3,3,0,0,1-.7.5c-.3.2-.5.3-.8.5s-.5.3-.8.4a2.92,2.92,0,0,1-.9.2,3.4,3.4,0,0,1-1,.1,3.59,3.59,0,0,1-1.1-.2C299.8,267.31,299.5,267.21,299.2,267Z"/><path class="cls-11" d="M308.3,261.91l-3.5-6.2a2.92,2.92,0,0,0-.9.2l4,7Z"/><path class="cls-11" d="M306.9,264.41c.1-.2.3-.4.4-.6l-4.3-7.6c-.3.1-.5.3-.8.4l4.5,7.9C306.8,264.61,306.8,264.51,306.9,264.41Z"/><path class="cls-11" d="M305.7,265.71c.1-.1.3-.2.4-.4l-4.6-8.1c-.1.1-.3.2-.4.4s-.2.2-.3.2l4.6,8.1C305.5,265.91,305.6,265.81,305.7,265.71Z"/><path class="cls-11" d="M304.7,266.51l-4.5-8c-.1.1-.2.3-.3.4s-.2.2-.2.3l4.3,7.7A5.74,5.74,0,0,0,304.7,266.51Z"/><path class="cls-11" d="M303.1,267.31l-4.1-7.2c-.2.3-.3.7-.5,1l3.7,6.4A2.92,2.92,0,0,0,303.1,267.31Z"/><path class="cls-11" d="M301.2,267.61l-3-5.4a7.84,7.84,0,0,0-.2,1.4l2.1,3.8A2,2,0,0,0,301.2,267.61Z"/><path class="cls-11" d="M308.7,259.21h0l-1.7-3.1a5.64,5.64,0,0,0-1.2-.4l2.8,5A3.81,3.81,0,0,0,308.7,259.21Z"/><path class="cls-11" d="M301.4,264.11a1.89,1.89,0,0,1-.6-1.5,2,2,0,0,1,.1-.7.76.76,0,0,1,.2-.5c.1-.2.1-.3.2-.5s.2-.3.3-.4.1-.1.1-.2l.2-.2.3-.3.3-.3c.1-.1.2-.2.3-.2s.2-.1.4-.2.3-.1.4-.2.3-.1.4-.1h.5a1.42,1.42,0,0,1,.6.2c.1,0,.1.1.2.1a1.61,1.61,0,0,1,.6,1.3h0a1.7,1.7,0,0,1-.1.7,1.42,1.42,0,0,1-.2.6c-.1.2-.1.3-.2.5a.76.76,0,0,0-.2.4c-.1.1-.1.2-.2.3l-.1.1h0l-.3.3-.3.3c-.1.1-.2.2-.3.2a.52.52,0,0,1-.4.2c-.1.1-.3.1-.4.2a.6.6,0,0,1-.4.1h-.5a.75.75,0,0,1-.5-.1C301.7,264.31,301.6,264.21,301.4,264.11Z"/><path class="cls-13" d="M301.8,263.71a1.43,1.43,0,0,1-.5-1.3.75.75,0,0,1,.1-.5c0-.1.1-.3.1-.4s.1-.3.2-.4.1-.2.2-.3l.1-.1c0-.1.1-.1.1-.2s.2-.2.2-.3.2-.2.3-.2.2-.1.3-.2.2-.1.3-.2a.37.37,0,0,1,.3-.1c.1,0,.2-.1.3-.1h.4c.2,0,.3.1.5.1s.1.1.2.1a1.29,1.29,0,0,1,.5,1.1h0v.6a4.33,4.33,0,0,0-.1.5.76.76,0,0,1-.2.4c-.1.1-.1.2-.2.3s-.1.1-.2.2a.1.1,0,0,1-.1.1h0c-.1.1-.2.2-.2.3s-.2.2-.3.2-.2.1-.3.2-.2.1-.3.2a.37.37,0,0,1-.3.1c-.1,0-.2.1-.3.1h-.4a.6.6,0,0,1-.4-.1A.37.37,0,0,1,301.8,263.71Z"/><path class="cls-11" d="M310.3,261.61c0-.1-.1-.1-.1-.2s-.1-.1-.1-.2c-.9-1.7-1.8-3.8-1.1-4.6.4-.4,1.4,1,1.4,1a.42.42,0,0,0,.6-.3s0-1.2.7-1.2.7,1.2.7,1.2a.42.42,0,0,0,.6.3s1-1.4,1.4-.9c.7.8-.2,2.9-1.2,4.6,0,.1-.1.1-.1.2s-.1.1-.1.2a3.19,3.19,0,0,0-1.4-.3A2.09,2.09,0,0,0,310.3,261.61Z"/><path class="cls-11" d="M308.8,279.31c-.7-.8.2-2.9,1.1-4.5,0-.1.1-.1.1-.2s.1-.1.1-.2a3.26,3.26,0,0,0,1.4.4,3.19,3.19,0,0,0,1.4-.3c0,.1.1.1.1.2s.1.1.1.2c.9,1.7,1.8,3.8,1,4.6-.4.4-1.4-1-1.4-1a.42.42,0,0,0-.6.3s0,1.2-.7,1.2-.7-1.2-.7-1.2a.45.45,0,0,0-.6-.3C310.2,278.31,309.2,279.71,308.8,279.31Z"/><path class="cls-12" d="M311.7,261.31a3.53,3.53,0,0,0-1.4.3c0-.1-.1-.1-.1-.2s-.1-.1-.1-.2a1.93,1.93,0,0,1,1-.3c.2,0,.4-.1.6-.1a4.19,4.19,0,0,1,1.6.4c0,.1-.1.1-.1.2s-.1.1-.1.2A3.19,3.19,0,0,0,311.7,261.31Z"/><path class="cls-12" d="M309.9,274.71c0-.1.1-.1.1-.2s.1-.1.1-.2a3.26,3.26,0,0,0,1.4.4,3.19,3.19,0,0,0,1.4-.3c0,.1.1.1.1.2s.1.1.1.2l-.6.3a3.55,3.55,0,0,1-1,.2A5.23,5.23,0,0,1,309.9,274.71Z"/><path class="cls-13" d="M311.6,274.71a3.51,3.51,0,0,1-3-1.9,5.39,5.39,0,0,1-.7-1.3,4.87,4.87,0,0,1-.4-1.1,4.25,4.25,0,0,1-.2-1.1c0-.3-.1-.7-.1-1v-.9c0-.3.1-.6.1-.9a2.92,2.92,0,0,1,.2-.9l.3-.9a2,2,0,0,1,.4-.8,3.51,3.51,0,0,1,.5-.8,4.35,4.35,0,0,1,.6-.7,2.41,2.41,0,0,1,.8-.6,6.12,6.12,0,0,1,1.2-.5h.5a3.79,3.79,0,0,1,2.7,1.4h0a14.63,14.63,0,0,1,.9,1.3c.2.4.3.8.5,1.2a3.59,3.59,0,0,1,.2,1.1,3.4,3.4,0,0,1,.1,1v1h0a2.77,2.77,0,0,1-.1.9,2.92,2.92,0,0,1-.2.9,3.18,3.18,0,0,1-.3.9,6.89,6.89,0,0,1-.3.8c-.1.3-.3.5-.4.8a2,2,0,0,1-.6.7,4.62,4.62,0,0,1-.7.7,4.67,4.67,0,0,1-1,.5A2,2,0,0,1,311.6,274.71Z"/><path class="cls-11" d="M315.7,265.21l-6.5-2.8c-.2.2-.4.5-.6.7l7.4,3.2Z"/><path class="cls-11" d="M316.1,268.11v-.7l-8-3.4c-.1.3-.3.5-.4.8l8.3,3.6A.77.77,0,0,0,316.1,268.11Z"/><path class="cls-11" d="M315.9,269.81c0-.2.1-.3.1-.5l-8.5-3.7a1.09,1.09,0,0,0-.1.5.76.76,0,0,1-.1.4l8.6,3.7Z"/><path class="cls-11" d="M315.6,271l-8.4-3.6v.9l8.1,3.5A6.89,6.89,0,0,0,315.6,271Z"/><path class="cls-11" d="M314.8,272.71l-7.6-3.3a4.25,4.25,0,0,0,.2,1.1l6.8,2.9A1.87,1.87,0,0,0,314.8,272.71Z"/><path class="cls-11" d="M313.5,274.11l-5.7-2.5a5.39,5.39,0,0,0,.7,1.3l4,1.7A3.13,3.13,0,0,0,313.5,274.11Z"/><path class="cls-11" d="M314.4,262.71h0l-3.2-1.4a3.08,3.08,0,0,0-1.2.5l5.3,2.3A6.71,6.71,0,0,0,314.4,262.71Z"/><path class="cls-11" d="M311.6,271.11a1.62,1.62,0,0,1-1.4-.9l-.3-.6c-.1-.2-.1-.3-.2-.5s-.1-.3-.1-.5v-1a2568928127498.38,2568928127498.38,0,0,1,.2-.8c0-.1.1-.3.1-.4s.1-.3.2-.4.1-.2.2-.4l.3-.3a1.38,1.38,0,0,1,.4-.3,1.42,1.42,0,0,1,.6-.2h.2a1.89,1.89,0,0,1,1.3.7h0a2.09,2.09,0,0,1,.4.6,1.69,1.69,0,0,1,.2.5c0,.2.1.3.1.5s.1.3.1.5v.4h0v.4a.6.6,0,0,1-.1.4c0,.1-.1.3-.1.4a.76.76,0,0,1-.2.4c-.1.1-.1.3-.2.4l-.3.3-.3.3a.76.76,0,0,1-.5.2C311.9,271.11,311.8,271.11,311.6,271.11Z"/><path class="cls-13" d="M311.6,270.51a1.23,1.23,0,0,1-1.1-.7,2.19,2.19,0,0,1-.3-.5.6.6,0,0,1-.1-.4c0-.1-.1-.3-.1-.4v-1.2a.37.37,0,0,1,.1-.3c0-.1.1-.2.1-.3s.1-.2.1-.3.1-.2.2-.3.1-.2.2-.3.2-.2.3-.2.3-.1.5-.2h.2a1.39,1.39,0,0,1,1,.5h0a2.19,2.19,0,0,1,.3.5c.1.1.1.3.2.4s.1.3.1.4v.8h0v.4a.37.37,0,0,1-.1.3c0,.1-.1.2-.1.3s-.1.2-.1.3-.1.2-.2.3-.1.2-.2.3l-.3.3a.52.52,0,0,1-.4.2C311.9,270.51,311.7,270.51,311.6,270.51Z"/><path class="cls-14" d="M255.9,262.51a4.74,4.74,0,0,0-1,1,3.49,3.49,0,0,0-.5,1.3h-.5c-1.9-.1-4.1-.5-4.4-1.5-.2-.6,1.6-.7,1.6-.7a.49.49,0,0,0,.1-.7s-1.1-.6-.6-1.3,1.4.1,1.4.1a.49.49,0,0,0,.6-.3s-.7-1.6-.1-1.7c1.1-.2,2.3,1.6,3.2,3.3A.76.76,0,0,0,255.9,262.51Z"/><path class="cls-14" d="M273.6,274.71s1.1.6.6,1.3-1.4-.1-1.4-.1a.49.49,0,0,0-.6.3s.7,1.6.1,1.7c-1.1.2-2.3-1.6-3.2-3.3a.76.76,0,0,1-.2-.4,3.18,3.18,0,0,0,1-1,3.36,3.36,0,0,0,.5-1.4h.5c1.9.1,4.1.5,4.3,1.5.2.6-1.6.7-1.6.7C273.5,274.21,273.4,274.51,273.6,274.71Z"/><path class="cls-15" d="M255.6,262.11a.76.76,0,0,1,.2.4,4.74,4.74,0,0,0-1,1,3.49,3.49,0,0,0-.5,1.3h-.5v-.2a1.42,1.42,0,0,1,.2-.6c0-.1.1-.2.1-.3s.1-.2.1-.3.1-.2.2-.3a1.76,1.76,0,0,1,.4-.5l.2-.2.2-.2c.1-.1.2-.2.3-.2A.1.1,0,0,0,255.6,262.11Z"/><path class="cls-15" d="M270.9,271.91v.2c-.1.4-.2.7-.3,1.1-.1.1-.1.3-.2.4a3.84,3.84,0,0,1-1.1,1.1l-.1.1a.76.76,0,0,1-.2-.4,3.18,3.18,0,0,0,1-1,3.36,3.36,0,0,0,.5-1.4C270.6,271.81,270.8,271.91,270.9,271.91Z"/><path class="cls-16" d="M269.9,273.21a3.18,3.18,0,0,1-1,1,6.12,6.12,0,0,1-1.2.5.6.6,0,0,0-.4.1,3.19,3.19,0,0,1-1.9-.3c-.1-.1-.3-.1-.4-.2l-9-5.8a9,9,0,0,1-1-.9,3.89,3.89,0,0,1-.7-2.3v-.4a4.33,4.33,0,0,1,.1-.5c0-.1.1-.2.1-.3s.1-.2.1-.3.1-.2.1-.3a1.38,1.38,0,0,1,.3-.4l.2-.2.2-.2c.1-.1.2-.1.3-.2s.2-.1.3-.2a1.61,1.61,0,0,1,.9-.3,3.3,3.3,0,0,1,1.4,0,6.94,6.94,0,0,1,1.3.5l9,5.8c.1.1.3.2.4.3a3.55,3.55,0,0,1,1.1,1.6,3.22,3.22,0,0,1,.1,1.7,3.81,3.81,0,0,1-.3,1C270.1,273,270,273.11,269.9,273.21Z"/><rect class="cls-14" x="258.38" y="267.25" width="7.2" height="1.8" transform="translate(-105.22 343.67) rotate(-57.29)"/><rect class="cls-14" x="255.4" y="265.32" width="7.2" height="1.8" transform="translate(-104.96 340.28) rotate(-57.29)"/><path class="cls-14" d="M257.9,261.91a2.2,2.2,0,0,0-.8.1l-.9.3-1.9,2.9a3.31,3.31,0,0,0,.7,2.3l3.6-5.6Z"/><rect class="cls-14" x="261.44" y="269.24" width="7.2" height="1.8" transform="translate(-105.48 347.16) rotate(-57.29)"/><path class="cls-14" d="M269.2,268.51l-3.8,6a4.15,4.15,0,0,0,1.6.3h.4l3-4.7A6.1,6.1,0,0,0,269.2,268.51Z"/><path class="cls-14" d="M265.3,270.21a.78.78,0,0,1-.4.4.76.76,0,0,1-.5.2h-.2a1.48,1.48,0,0,1-.7-.1c-.1,0-.1-.1-.2-.1l-3.5-2.2a.78.78,0,0,1-.4-.4,1.61,1.61,0,0,1-.3-.9V267c0-.1,0-.1.1-.2v-.1a248791080958,248791080958,0,0,0,.2-.2c0-.1.1-.1.1-.2a.1.1,0,0,1,.1-.1.1.1,0,0,0,.1-.1l.1-.1.1-.1c.1-.1.2-.1.4-.1h.6c.2,0,.3.1.5.2l3.5,2.2.1.1a2.09,2.09,0,0,1,.4.6,1.48,1.48,0,0,1,.1.7c0,.1-.1.3-.1.4A.35.35,0,0,1,265.3,270.21Z"/><path class="cls-16" d="M264.7,269.81l-.3.3c-.1.1-.2.1-.4.2h-.1a1.27,1.27,0,0,1-.6-.1.1.1,0,0,1-.1-.1l-2.8-1.8-.3-.3a1.85,1.85,0,0,1-.2-.7v-.6l.1-.1.1-.1.1-.1a497582161916,497582161916,0,0,0,.2-.2c.1,0,.2-.1.3-.1h.4a.76.76,0,0,1,.4.2l2.8,1.8.1.1a.55.55,0,0,1,.3.5.45.45,0,0,1,0,.5.37.37,0,0,1-.1.3Z"/><path class="cls-14" d="M310.5,261a3.57,3.57,0,0,0-1.1-1,5.78,5.78,0,0,0-1.4-.5V259c0-1.9.3-4.1,1.3-4.5.6-.2.7,1.5.7,1.5a.48.48,0,0,0,.7,0s.6-1.1,1.2-.7,0,1.4,0,1.4c-.1.3.1.5.4.6,0,0,1.5-.7,1.7-.1.2,1.1-1.5,2.4-3.2,3.4C310.8,260.81,310.7,260.91,310.5,261Z"/><path class="cls-14" d="M299.2,279.31s-.6,1.1-1.2.7,0-1.4,0-1.4c.1-.3-.1-.5-.4-.6,0,0-1.5.7-1.7.1-.2-1,1.5-2.4,3.1-3.4a.76.76,0,0,1,.4-.2,3.57,3.57,0,0,0,1.1,1,3.36,3.36,0,0,0,1.4.5v.5c0,1.9-.3,4.1-1.3,4.4-.6.2-.7-1.5-.7-1.5A.43.43,0,0,0,299.2,279.31Z"/><path class="cls-15" d="M310.9,260.71a.76.76,0,0,1-.4.2,3.57,3.57,0,0,0-1.1-1,5.78,5.78,0,0,0-1.4-.5v-.5h.2c.2,0,.4.1.6.1s.2.1.3.1.2.1.3.1.2.1.3.1.3.2.5.3l.2.2.2.2c.1.1.2.2.2.3A1.58,1.58,0,0,1,310.9,260.71Z"/><path class="cls-15" d="M301.9,276.51h-.2a2.28,2.28,0,0,1-1.1-.3c-.1-.1-.3-.1-.4-.2a4,4,0,0,1-1.2-1l-.1-.1a.76.76,0,0,1,.4-.2,3.57,3.57,0,0,0,1.1,1,3.36,3.36,0,0,0,1.4.5C301.9,276.11,301.9,276.31,301.9,276.51Z"/><path class="cls-16" d="M300.5,275.51a5.24,5.24,0,0,1-1.1-1,3.38,3.38,0,0,1-.6-1.2c0-.1-.1-.3-.1-.4a4.13,4.13,0,0,1,.2-1.9c.1-.1.1-.3.2-.4l5.4-9.3a2.19,2.19,0,0,1,.9-1,4,4,0,0,1,2.3-.8h.4a4.33,4.33,0,0,1,.5.1c.1,0,.2.1.3.1s.2.1.3.1.2.1.3.1.3.2.5.3l.2.2.2.2c.1.1.2.2.2.3s.1.2.2.3a3.55,3.55,0,0,1,.4.9,6.6,6.6,0,0,1,.1,1.4,6.47,6.47,0,0,1-.4,1.3l-5.4,9.3a.76.76,0,0,0-.2.4,4,4,0,0,1-1.6,1.2,3.21,3.21,0,0,1-1.7.2,1.93,1.93,0,0,1-1-.3A.44.44,0,0,1,300.5,275.51Z"/><rect class="cls-14" x="304.3" y="263.77" width="1.8" height="7.2" transform="translate(-78.91 398.13) rotate(-60.02)"/><rect class="cls-14" x="306.09" y="260.66" width="1.8" height="7.2" transform="translate(-75.32 398.13) rotate(-60.02)"/><path class="cls-14" d="M311.2,263c0-.3-.1-.5-.1-.8a3.55,3.55,0,0,0-.4-.9l-3-1.7a3.41,3.41,0,0,0-2.3.8l5.8,3.3C311.2,263.41,311.3,263.21,311.2,263Z"/><rect class="cls-14" x="302.5" y="266.88" width="1.8" height="7.2" transform="translate(-82.5 398.13) rotate(-60.02)"/><path class="cls-14" d="M305.2,274.61,299,271a4.15,4.15,0,0,0-.3,1.6v.4l4.8,2.8A5.23,5.23,0,0,0,305.2,274.61Z"/><path class="cls-14" d="M303.3,270.81a.78.78,0,0,1-.4-.4.76.76,0,0,1-.2-.5v-.1a1.7,1.7,0,0,1,.1-.7c0-.1,0-.1.1-.2l2.1-3.6a1.38,1.38,0,0,1,.3-.4,1.61,1.61,0,0,1,.9-.3h.5a.1.1,0,0,1,.1.1c.1,0,.1.1.2.1a.1.1,0,0,1,.1.1l.1.1.1.1.1.1c.1.1.1.2.2.4s.1.4,0,.6-.1.3-.2.5l-2.1,3.6a.1.1,0,0,1-.1.1,2.65,2.65,0,0,1-.6.5,1.48,1.48,0,0,1-.7.1.6.6,0,0,1-.4-.1A.31.31,0,0,0,303.3,270.81Z"/><path class="cls-16" d="M303.6,270.11l-.3-.3c-.1-.1-.1-.2-.2-.4v-.1a1.27,1.27,0,0,1,.1-.6.1.1,0,0,1,.1-.1l1.6-2.8.3-.3a.84.84,0,0,1,.7-.2h.6l.1.1.1.1.1.1a.1.1,0,0,0,.1.1.1.1,0,0,0,.1.1.37.37,0,0,1,.1.3v.4c0,.1-.1.3-.1.4l-1.6,2.8a.1.1,0,0,1-.1.1,1,1,0,0,1-.5.4.9.9,0,0,1-.5.1.37.37,0,0,1-.3-.1C303.7,270.21,303.7,270.21,303.6,270.11Z"/><path class="cls-14" d="M255,266a3.1,3.1,0,0,0,.6-1.3,3.44,3.44,0,0,0,.1-1.4c.2,0,.3-.1.5-.1,1.9-.5,4.1-.8,4.7.1.3.5-1.3,1.1-1.3,1.1a.49.49,0,0,0,.1.7s1.2.3,1,1-1.4.4-1.4.4a.47.47,0,0,0-.5.5s1.1,1.3.6,1.6c-1,.5-2.7-.9-4.1-2.2C255.3,266.21,255.1,266.11,255,266Z"/><path class="cls-14" d="M234.4,259.71s-1.2-.3-1-1,1.4-.4,1.4-.4a.47.47,0,0,0,.5-.5s-1.1-1.3-.6-1.6c1-.5,2.7.8,4,2.2l.3.3a5.39,5.39,0,0,0-.7,1.3,3.81,3.81,0,0,0-.1,1.5c-.2,0-.3.1-.5.1-1.9.5-4,.7-4.6-.2-.3-.5,1.3-1.1,1.3-1.1A.33.33,0,0,0,234.4,259.71Z"/><path class="cls-15" d="M255.4,266.31l-.3-.3a3.1,3.1,0,0,0,.6-1.3,3.44,3.44,0,0,0,.1-1.4c.2,0,.3-.1.5-.1v1.4a.37.37,0,0,1-.1.3c-.1.2-.1.4-.2.5s-.1.2-.1.3a.35.35,0,0,1-.1.2c-.1.1-.1.2-.2.3Z"/><path class="cls-15" d="M237.9,261.61v-.2a2.05,2.05,0,0,1,0-1.1.6.6,0,0,1,.1-.4,3.69,3.69,0,0,1,.7-1.4l.1-.1.3.3a5.39,5.39,0,0,0-.7,1.3,3.81,3.81,0,0,0-.1,1.5C238.2,261.51,238,261.61,237.9,261.61Z"/><path class="cls-16" d="M238.4,260a3.29,3.29,0,0,1,.7-1.3,4.3,4.3,0,0,1,1-.9c.1-.1.2-.1.4-.2a3.19,3.19,0,0,1,1.9-.3c.1,0,.3.1.4.1l10.4,2.8a2.28,2.28,0,0,1,1.2.6,3.36,3.36,0,0,1,1.3,2,.76.76,0,0,0,.1.4v1.2a.37.37,0,0,1-.1.3c0,.2-.1.3-.2.5a1966866193406.6,1966866193406.6,0,0,1-.2.4c-.1.1-.1.2-.2.3s-.2.2-.2.3a5.55,5.55,0,0,1-.8.6,3.26,3.26,0,0,1-1.4.4,3.44,3.44,0,0,1-1.4-.1l-10.4-2.8c-.1,0-.3-.1-.4-.1A4.43,4.43,0,0,1,239,263a3.14,3.14,0,0,1-.6-1.6,1.7,1.7,0,0,1,0-1C238.3,260.31,238.4,260.21,238.4,260Z"/><rect class="cls-14" x="243.93" y="261.57" width="7.2" height="1.8" transform="translate(-70.7 432.45) rotate(-74.79)"/><rect class="cls-14" x="247.33" y="262.55" width="7.2" height="1.8" transform="translate(-69.13 436.46) rotate(-74.79)"/><path class="cls-14" d="M253.3,267.21c.2-.1.5-.2.7-.3a5.55,5.55,0,0,0,.8-.6l.9-3.4a3.9,3.9,0,0,0-1.3-2l-1.7,6.4A1.27,1.27,0,0,0,253.3,267.21Z"/><rect class="cls-14" x="240.5" y="260.68" width="7.2" height="1.8" transform="translate(-72.37 428.49) rotate(-74.79)"/><path class="cls-14" d="M240.5,264.31l1.9-6.9a4.33,4.33,0,0,0-1.6.1c-.1,0-.2.1-.3.1L239,263A3.18,3.18,0,0,0,240.5,264.31Z"/><path class="cls-14" d="M243.7,261.51c.1-.2.1-.4.3-.5a1.38,1.38,0,0,1,.4-.3.1.1,0,0,0,.1-.1,1.7,1.7,0,0,1,.7-.1h.2l4,1.1c.2,0,.3.1.5.2a1.37,1.37,0,0,1,.5.8v.6c0,.1,0,.1-.1.2v.1a995164323832.31,995164323832.31,0,0,1-.2.2l-.1.1c-.1.1-.2.2-.3.2s-.3.1-.5.2h-.5l-4-1.1c-.1,0-.1,0-.2-.1a2.65,2.65,0,0,1-.6-.5,1.42,1.42,0,0,1-.2-.6v-.4Z"/><path class="cls-16" d="M244.4,261.71a.52.52,0,0,1,.2-.4l.3-.3a.1.1,0,0,0,.1-.1,1.27,1.27,0,0,1,.6-.1h.1l3.2.9a.76.76,0,0,1,.4.2,2.09,2.09,0,0,1,.4.6v.6c0,.1,0,.1-.1.2v.2a497582161916,497582161916,0,0,1-.2.2c-.1.1-.2.1-.2.2a.6.6,0,0,1-.4.1h-.4l-3.2-.9h-.1a1.76,1.76,0,0,1-.5-.4.76.76,0,0,1-.2-.5v-.5Z"/><path class="cls-14" d="M295.4,248.81a3.21,3.21,0,0,0-1.4.1,3.1,3.1,0,0,0-1.3.6l-.3-.3c-1.3-1.4-2.7-3.2-2.2-4.1.3-.5,1.6.6,1.6.6a.47.47,0,0,0,.5-.5s-.4-1.2.4-1.4,1,1,1,1a.47.47,0,0,0,.7.1s.6-1.6,1.1-1.3c.9.6.6,2.8.1,4.7A1.69,1.69,0,0,0,295.4,248.81Z"/><path class="cls-14" d="M300.2,269.81s.4,1.2-.4,1.4-1-1-1-1a.48.48,0,0,0-.7-.1s-.6,1.6-1.1,1.3c-.9-.6-.6-2.7-.1-4.6,0-.2.1-.3.1-.5a2.57,2.57,0,0,0,1.5-.1,3.29,3.29,0,0,0,1.3-.7l.3.3c1.3,1.4,2.7,3.1,2.1,4.1-.3.5-1.6-.6-1.6-.6A.7.7,0,0,0,300.2,269.81Z"/><path class="cls-15" d="M295.5,248.31c0,.2-.1.3-.1.5a3.21,3.21,0,0,0-1.4.1,3.1,3.1,0,0,0-1.3.6l-.3-.3.1-.1c.2-.1.3-.2.5-.3a.37.37,0,0,1,.3-.1c.1,0,.2-.1.3-.1s.2-.1.3-.1.4-.1.6-.1h1C295.4,248.31,295.5,248.31,295.5,248.31Z"/><path class="cls-15" d="M300.2,265.91l-.1.1a8.79,8.79,0,0,1-1,.6.6.6,0,0,1-.4.1,4.33,4.33,0,0,1-1.6.1h-.2c0-.2.1-.3.1-.5a2.57,2.57,0,0,0,1.5-.1,3.29,3.29,0,0,0,1.3-.7C299.9,265.71,300.1,265.81,300.2,265.91Z"/><path class="cls-16" d="M298.5,266.21a3.81,3.81,0,0,1-1.5.1,4.23,4.23,0,0,1-1.2-.4c-.1-.1-.2-.1-.3-.2a4.43,4.43,0,0,1-1.2-1.5.6.6,0,0,1-.1-.4l-2.7-10.4a6.6,6.6,0,0,1-.1-1.4,3.33,3.33,0,0,1,1.1-2.1c.1-.1.2-.2.3-.2a2.19,2.19,0,0,1,.5-.3.37.37,0,0,1,.3-.1c.1,0,.2-.1.3-.1s.2-.1.3-.1a4.33,4.33,0,0,0,.5-.1h.9a.76.76,0,0,1,.4.1,3.55,3.55,0,0,1,.9.4,3.46,3.46,0,0,1,1.1,1,3.38,3.38,0,0,1,.6,1.2l2.7,10.4c0,.1.1.3.1.4a3.08,3.08,0,0,1-.3,1.9,2.76,2.76,0,0,1-1.1,1.3,4.05,4.05,0,0,1-.9.5C298.8,266.11,298.7,266.21,298.5,266.21Z"/><rect class="cls-14" x="292.58" y="256.24" width="7.2" height="1.8" transform="translate(-55.6 83.66) rotate(-14.71)"/><rect class="cls-14" x="291.6" y="252.86" width="7.2" height="1.8" transform="translate(-54.77 83.3) rotate(-14.71)"/><path class="cls-14" d="M297.3,249.71c-.2-.2-.4-.3-.6-.5a3.55,3.55,0,0,0-.9-.4l-3.4.9a3.6,3.6,0,0,0-1.1,2.1l6.4-1.7Z"/><rect class="cls-14" x="293.49" y="259.74" width="7.2" height="1.8" transform="translate(-56.46 84.01) rotate(-14.71)"/><path class="cls-14" d="M301.2,262.31l-6.9,1.8a3.81,3.81,0,0,0,.9,1.3c.1.1.2.2.3.2l5.4-1.4A6.28,6.28,0,0,0,301.2,262.31Z"/><path class="cls-14" d="M297.1,260.91a.64.64,0,0,1-.6,0c-.2,0-.3-.1-.5-.2l-.1-.1a2.65,2.65,0,0,1-.5-.6c0-.1,0-.1-.1-.2l-1.1-4c0-.2-.1-.4,0-.5a1.23,1.23,0,0,1,.4-.8l.1-.1c.1,0,.1-.1.2-.1a.1.1,0,0,0,.1-.1h.8c.1,0,.2.1.4.1a.78.78,0,0,1,.4.4.76.76,0,0,1,.2.5l1.1,4v.2a1.48,1.48,0,0,1-.1.7,1,1,0,0,1-.4.5.52.52,0,0,1-.4.2C297.2,260.91,297.2,260.91,297.1,260.91Z"/><path class="cls-16" d="M296.9,260.21h-.4c-.1,0-.3-.1-.4-.1a.1.1,0,0,1-.1-.1,1,1,0,0,1-.4-.5v-.1l-.8-3.2v-.4a1.49,1.49,0,0,1,.3-.7.1.1,0,0,0,.1-.1l.1-.1h.9c.1,0,.2.1.3.1l.3.3c.1.1.1.2.2.4l.8,3.2v.1a1.27,1.27,0,0,1-.1.6,1.38,1.38,0,0,1-.3.4c-.1.1-.2.1-.3.2Z"/><path class="cls-6" d="M255.5,260.81c-.1.1-.1.2-.2.4H253c-.1-.1-.1-.2-.2-.4-1.2-2-2.5-4.7-1.6-5.7.5-.5,1.5,1,1.5,1a.52.52,0,0,0,.7-.3s-.1-1.3.8-1.3.8,1.3.8,1.3a.46.46,0,0,0,.7.3s1.1-1.5,1.5-1C258,256.11,256.7,258.81,255.5,260.81Z"/><g class="cls-7"><path class="cls-8" d="M255.5,260.81c-.1.1-.1.2-.2.4H253c-.1-.1-.1-.2-.2-.4h2.7Z"/></g><path class="cls-8" d="M256.8,273.21h-5.4a2.26,2.26,0,0,1-2.2-2.6l1.4-7.6a2.26,2.26,0,0,1,2.2-1.8h2.5a2.26,2.26,0,0,1,2.2,1.8l1.4,7.6A2.1,2.1,0,0,1,256.8,273.21Z"/><ellipse class="cls-9" cx="254.1" cy="267.11" rx="2.9" ry="1.5"/><ellipse class="cls-8" cx="254.1" cy="267.11" rx="2.5" ry="1.2"/><line class="cls-10" x1="252.7" y1="267.11" x2="255.5" y2="267.11"/><path class="cls-6" d="M293.3,260.31v.4l-2.1,1.1c-.1-.1-.2-.1-.4-.2-2-1.2-4.5-2.9-4.1-4.3.2-.7,1.8.2,1.8.2a.44.44,0,0,0,.4-.6s-.7-1.1.1-1.5,1.3.8,1.3.8c.2.2.6.2.7,0,0,0,.2-1.9.8-1.7C293.3,254.91,293.4,258,293.3,260.31Z"/><g class="cls-7"><path class="cls-8" d="M293.3,260.31v.4l-2.1,1.1c-.1-.1-.2-.1-.4-.2h0l2.5-1.3Z"/></g><path class="cls-8" d="M300.4,270.51l-4.7,2.6a2.21,2.21,0,0,1-3.2-1.3l-2.4-7.4a2.17,2.17,0,0,1,1.1-2.6l2.2-1.2a2.2,2.2,0,0,1,2.8.6l4.9,6A2.23,2.23,0,0,1,300.4,270.51Z"/><ellipse class="cls-9" cx="295.14" cy="266.39" rx="2.9" ry="1.5" transform="translate(-91.24 172.68) rotate(-28.44)"/><ellipse class="cls-8" cx="295.14" cy="266.4" rx="2.5" ry="1.2" transform="translate(-91.24 172.68) rotate(-28.44)"/><line class="cls-10" x1="293.8" y1="267.11" x2="296.3" y2="265.81"/><path class="cls-18" d="M315.4,277.31h0c0,.6-.1,1.3-.1,2.1h0v.1h0v.5a1.27,1.27,0,0,1-.1.6c0,.4-.1.7-.1,1.1v1.2a.9.9,0,0,1-.1.5v.6c-.2,1.2-.4,2.5-.7,3.9h0a.37.37,0,0,1-.1.3v.3h0c0,.1-.1.3-.1.4-.1.3-.2.7-.3,1a5.64,5.64,0,0,1-.4,1.2c0,.1-.1.2-.1.3s-.1.2-.1.3v.1h0c0,.1,0,.1-.1.2h0c0,.1-.1.2-.1.3h0c-.1.3-.2.7-.3,1s-.3.7-.4,1.1c0,.1-.1.2-.1.3s-.1.2-.1.3h0c0,.1-.1.2-.1.3v.1c-.1.3-.3.6-.4.9a.35.35,0,0,1-.1.2h0v.1c0,.1-.1.1-.1.2s-.1.3-.2.4-.1.2-.2.3h0c0,.1-.1.1-.1.2a2.09,2.09,0,0,1-.4.6c0,.1-.1.1-.1.2a2.09,2.09,0,0,1-.4.6c0,.1-.1.1-.1.2s-.1.2-.2.3-.1.1-.1.2l-.1.1v.1h0l-.1.1c-.1.1-.1.2-.2.3s-.1.2-.2.3l-.1.1c0,.1-.1.1-.2.2h0l-.9,1.2c-.2.2-.3.4-.5.6l-.5.5h0a10,10,0,0,1-1.1,1l-.3.3c-.1.1-.2.2-.3.2l-.1.1h0c-.1.1-.2.2-.3.2l-.2.2c-.2.1-.3.2-.5.3s-.1.1-.2.1-.1.1-.2.1l-.1.1c-.1,0-.1.1-.2.1a.1.1,0,0,0-.1.1c-.1.1-.2.1-.3.2h-.1c-.1.1-.2.1-.3.2h-.1c-.1.1-.2.1-.4.2s-.2.1-.3.2h-.1c-.1,0-.2.1-.3.1a.1.1,0,0,0-.1.1.35.35,0,0,0-.2.1c-.1,0-.2.1-.3.1h-.1c-.1,0-.2.1-.3.1h-.1a.6.6,0,0,1-.4.1c-.1,0-.2.1-.3.1s-.4.1-.5.2l-1,.3h-.3c-.1,0-.1,0-.2.1h-.1c-.1,0-.2.1-.4.1a1.7,1.7,0,0,1-.7.1.76.76,0,0,0-.4.1h0c-.2,0-.4.1-.6.1a16.41,16.41,0,0,1-2.3.2H256.5a12.1,12.1,0,0,1-1.9-.1h0a11,11,0,0,1-1.8-.2h-.3a5,5,0,0,0-1.2-.2c-.2-.1-.5-.1-.7-.2l-.9-.3c-.6-.2-1.1-.4-1.6-.6-.1-.1-.3-.1-.4-.2s-.3-.2-.5-.2l-.6-.3h0c-.1-.1-.2-.1-.3-.2-.8-.5-1.6-1-2.4-1.6h0l-.1-.1c-.1,0-.1-.1-.2-.2h0l-.1-.1-.1-.1h0c-.1-.1-.2-.1-.2-.2l-.9-.9c-.1-.1-.2-.2-.2-.3a17.38,17.38,0,0,1-1.3-1.5c-.1-.1-.2-.3-.3-.4h0l-.1-.1-.1-.1h0a.1.1,0,0,0-.1-.1l-.1-.1h0a25,25,0,0,1-2.3-3.9c0-.1-.1-.2-.1-.3s-.1-.2-.1-.3-.1-.3-.2-.4-.1-.2-.2-.4-.1-.3-.2-.5-.2-.5-.3-.7-.2-.5-.3-.8c0-.1-.1-.2-.1-.3s-.1-.2-.1-.3v-.2h0v-.3a6.37,6.37,0,0,1-.2-.7c0-.1,0-.1-.1-.2s-.1-.2-.1-.3l-.3-.9c0-.1,0-.1-.1-.2s-.1-.3-.1-.5-.1-.4-.2-.6a1.27,1.27,0,0,1-.1-.6.37.37,0,0,0-.1-.3.37.37,0,0,0-.1-.3,21,21,0,0,1-.6-3.3v-.6c0-.3-.1-.6-.1-.9s-.1-.5-.1-.7a1.27,1.27,0,0,0-.1-.6v-.3a.75.75,0,0,0-.1-.5v-2.1h0v-2.7h82.7C315.4,275.71,315.4,276.31,315.4,277.31Z"/><path class="cls-19" d="M239.6,275.71v25.1h0a.1.1,0,0,0-.1-.1l-.1-.1h0a25,25,0,0,1-2.3-3.9c0-.1-.1-.2-.1-.3s-.1-.2-.1-.3-.1-.3-.2-.4-.1-.2-.2-.4-.1-.3-.2-.5-.2-.5-.3-.7-.2-.5-.3-.8c0-.1-.1-.2-.1-.3s-.1-.2-.1-.3v-.2h0v-.3a6.37,6.37,0,0,1-.2-.7c0-.1,0-.1-.1-.2s-.1-.2-.1-.3l-.3-.9c0-.1,0-.1-.1-.2s-.1-.3-.1-.5-.1-.4-.2-.6a1.27,1.27,0,0,1-.1-.6,2060421367455.59,2060421367455.59,0,0,1-.2-.6c0-.1-.1-.3-.1-.4-.1-.3-.1-.6-.2-.8s-.1-.6-.2-.8-.1-.5-.1-.8a.6.6,0,0,0-.1-.4v-.6c0-.3-.1-.6-.1-.9s-.1-.5-.1-.7a1.27,1.27,0,0,0-.1-.6v-.3a.75.75,0,0,0-.1-.5V276h6.6Z"/><path class="cls-20" d="M243.4,276v3.9H232.8v-.3c0-.4-.1-.8-.1-1.2V276Z"/><path class="cls-19" d="M243.4,275.71v3.9H232.8c0-.4-.1-.8-.1-1.2v-2.7h10.7Z"/><rect class="cls-21" x="241.5" y="275.71" width="1.9" height="4.2"/><path class="cls-20" d="M243.4,283.71v3.9H234a21,21,0,0,1-.6-3.3v-.6Z"/><path class="cls-20" d="M243.4,284.31v3.9h-9.3a6181264102447.4,6181264102447.4,0,0,1-.2-.6,21,21,0,0,1-.6-3.3Z"/><path class="cls-19" d="M243.4,284v3.9h-9.3a.37.37,0,0,0-.1-.3,21,21,0,0,1-.6-3.3V284Z"/><rect class="cls-21" x="241.5" y="283.71" width="1.9" height="4.5"/><path class="cls-20" d="M235.3,292.11h0v.2h0v.2c0,.1.1.2.1.3s.1.2.1.3c.1.3.2.5.3.8s.2.5.3.7.1.3.2.5.1.2.2.4.1.3.2.4h6.6V292h-8Z"/><path class="cls-20" d="M243.4,292.71v3.9H237c0-.1-.1-.2-.1-.3s-.1-.2-.1-.3-.1-.3-.2-.4-.1-.2-.2-.4-.1-.3-.2-.5-.2-.5-.3-.7-.2-.5-.3-.8c0-.1-.1-.2-.1-.3s-.1-.2-.1-.3h8Z"/><path class="cls-19" d="M243.4,292.41v3.9h-6.5c0-.1-.1-.2-.1-.3s-.1-.3-.2-.4-.1-.2-.2-.4-.1-.3-.2-.5-.2-.5-.3-.7-.2-.5-.3-.8c0-.1-.1-.2-.1-.3s-.1-.2-.1-.3v-.2Z"/><rect class="cls-21" x="241.5" y="292.11" width="1.9" height="4.5"/><path class="cls-20" d="M243.4,300.51v3.9h-.6c-.1-.1-.2-.1-.2-.2l-.9-.9c-.1-.1-.2-.2-.2-.3a17.38,17.38,0,0,1-1.3-1.5c-.1-.1-.2-.3-.3-.4h0l-.1-.1-.1-.1h0a.1.1,0,0,0-.1-.1l-.1-.1h3.9Z"/><path class="cls-20" d="M243.4,301.11v3.8c-.1,0-.1-.1-.2-.2h0l-.1-.1-.1-.1h0c-.1-.1-.2-.1-.2-.2l-.9-.9c-.1-.1-.2-.2-.2-.3a17.38,17.38,0,0,1-1.3-1.5c-.1-.1-.2-.3-.3-.4h3.3Z"/><path class="cls-17" d="M239.6,300.71h0c.1.1.1.1.1.2l.1.1h0c.1.1.2.3.3.4.4.5.9,1,1.3,1.5.1.1.2.2.2.3l.9.9c.1.1.2.1.2.2h0l.1.1.1.1h.2v-3.9h-3.5Z"/><path class="cls-21" d="M243.4,300.51v4.4c-.1,0-.1-.1-.2-.2h0l-.1-.1-.1-.1h0c-.1-.1-.2-.1-.2-.2l-.9-.9c-.1-.1-.2-.2-.2-.3v-2.6Z"/><path class="cls-19" d="M250.4,275.41v33l-.9-.3c-.6-.2-1.1-.4-1.6-.6-.1-.1-.3-.1-.4-.2s-.3-.2-.5-.2l-.6-.3h0c-.1-.1-.2-.1-.3-.2-.8-.5-1.6-1-2.4-1.6v-29.6Z"/><path class="cls-20" d="M254.3,304.61v3.9h-3.2c-.2-.1-.5-.1-.7-.2l-.9-.3c-.6-.2-1.1-.4-1.6-.6-.1-.1-.3-.1-.4-.2s-.3-.2-.5-.2l-.6-.3h0c-.1-.1-.2-.1-.3-.2-.8-.5-1.6-1-2.4-1.6h0l-.1-.1c-.1,0-.1-.1-.2-.2h10.9Z"/><path class="cls-19" d="M243.6,304.91h0c.8.6,1.6,1.1,2.4,1.6.1.1.2.1.3.2h0l.6.3c.2.1.3.2.5.2s.3.1.4.2c.5.2,1.1.4,1.6.6l.9.3a6.37,6.37,0,0,0,.7.2,5,5,0,0,0,1.2.2h2v-3.8Z"/><path class="cls-21" d="M254.3,304.61v4.2h-2v-4.1h2Z"/><rect class="cls-20" x="239.8" y="296.81" width="14.5" height="3.9"/><rect class="cls-20" x="239.8" y="296.31" width="14.5" height="3.9"/><rect class="cls-19" x="239.8" y="296.61" width="14.5" height="3.9"/><rect class="cls-21" x="239.8" y="296.31" width="1.9" height="4.5"/><rect class="cls-21" x="252.3" y="296.31" width="1.9" height="4.5"/><rect class="cls-20" x="239.8" y="288.51" width="14.5" height="3.9"/><rect class="cls-20" x="239.8" y="287.91" width="14.5" height="3.9"/><rect class="cls-19" x="239.8" y="288.21" width="14.5" height="3.9"/><rect class="cls-21" x="239.8" y="287.91" width="1.9" height="4.5"/><rect class="cls-21" x="252.3" y="287.91" width="1.9" height="4.5"/><rect class="cls-20" x="239.8" y="280.11" width="14.5" height="3.9"/><rect class="cls-20" x="239.8" y="279.51" width="14.5" height="3.9"/><rect class="cls-19" x="239.8" y="279.81" width="14.5" height="3.9"/><rect class="cls-21" x="239.8" y="279.51" width="1.9" height="4.5"/><rect class="cls-21" x="252.3" y="279.51" width="1.9" height="4.5"/><polygon class="cls-19" points="261.3 275.71 261.3 309.11 256.3 309.11 254.4 309.01 254.4 275.71 261.3 275.71"/><rect class="cls-20" x="250.6" y="276.01" width="14.5" height="3.9"/><rect class="cls-19" x="250.6" y="275.71" width="14.5" height="3.9"/><rect class="cls-21" x="250.6" y="275.71" width="1.9" height="4.2"/><rect class="cls-21" x="263.1" y="275.71" width="1.9" height="4.2"/><rect class="cls-20" x="250.6" y="283.71" width="14.5" height="3.9"/><rect class="cls-20" x="250.6" y="284.31" width="14.5" height="3.9"/><rect class="cls-19" x="250.6" y="284.01" width="14.5" height="3.9"/><rect class="cls-21" x="250.6" y="283.71" width="1.9" height="4.5"/><rect class="cls-21" x="263.1" y="283.71" width="1.9" height="4.5"/><rect class="cls-20" x="250.6" y="292.11" width="14.5" height="3.9"/><rect class="cls-20" x="250.6" y="292.71" width="14.5" height="3.9"/><rect class="cls-19" x="250.6" y="292.41" width="14.5" height="3.9"/><rect class="cls-21" x="250.6" y="292.11" width="1.9" height="4.5"/><rect class="cls-21" x="263.1" y="292.11" width="1.9" height="4.5"/><rect class="cls-20" x="250.6" y="300.51" width="14.5" height="3.9"/><rect class="cls-20" x="250.6" y="301.11" width="14.5" height="3.9"/><rect class="cls-19" x="250.6" y="300.71" width="14.5" height="3.9"/><rect class="cls-21" x="250.6" y="300.51" width="1.9" height="4.5"/><rect class="cls-21" x="263.1" y="300.51" width="1.9" height="4.5"/><rect class="cls-19" x="265.2" y="275.41" width="6.8" height="33.4"/><rect class="cls-20" x="261.4" y="304.61" width="14.5" height="3.9"/><rect class="cls-19" x="261.4" y="304.91" width="14.5" height="3.9"/><rect class="cls-21" x="261.4" y="304.61" width="1.9" height="4.2"/><rect class="cls-21" x="274" y="304.61" width="1.9" height="4.2"/><rect class="cls-20" x="261.4" y="296.81" width="14.5" height="3.9"/><rect class="cls-20" x="261.4" y="296.31" width="14.5" height="3.9"/><rect class="cls-19" x="261.4" y="296.61" width="14.5" height="3.9"/><rect class="cls-21" x="261.4" y="296.31" width="1.9" height="4.5"/><rect class="cls-21" x="274" y="296.31" width="1.9" height="4.5"/><rect class="cls-20" x="261.4" y="288.51" width="14.5" height="3.9"/><rect class="cls-20" x="261.4" y="287.91" width="14.5" height="3.9"/><rect class="cls-19" x="261.4" y="288.21" width="14.5" height="3.9"/><rect class="cls-21" x="261.4" y="287.91" width="1.9" height="4.5"/><rect class="cls-21" x="274" y="287.91" width="1.9" height="4.5"/><rect class="cls-20" x="261.4" y="280.11" width="14.5" height="3.9"/><rect class="cls-20" x="261.4" y="279.51" width="14.5" height="3.9"/><rect class="cls-19" x="261.4" y="279.81" width="14.5" height="3.9"/><rect class="cls-21" x="261.4" y="279.51" width="1.9" height="4.5"/><rect class="cls-21" x="274" y="279.51" width="1.9" height="4.5"/><rect class="cls-19" x="276" y="275.71" width="6.8" height="33.4"/><rect class="cls-20" x="272.2" y="276.01" width="14.5" height="3.9"/><rect class="cls-19" x="272.2" y="275.71" width="14.5" height="3.9"/><rect class="cls-21" x="272.2" y="275.71" width="1.9" height="4.2"/><rect class="cls-21" x="284.7" y="275.71" width="1.9" height="4.2"/><rect class="cls-20" x="272.2" y="283.71" width="14.5" height="3.9"/><rect class="cls-20" x="272.2" y="284.31" width="14.5" height="3.9"/><rect class="cls-19" x="272.2" y="284.01" width="14.5" height="3.9"/><rect class="cls-21" x="272.2" y="283.71" width="1.9" height="4.5"/><rect class="cls-21" x="284.7" y="283.71" width="1.9" height="4.5"/><rect class="cls-20" x="272.2" y="292.11" width="14.5" height="3.9"/><rect class="cls-20" x="272.2" y="292.71" width="14.5" height="3.9"/><rect class="cls-19" x="272.2" y="292.41" width="14.5" height="3.9"/><rect class="cls-21" x="272.2" y="292.11" width="1.9" height="4.5"/><rect class="cls-21" x="284.7" y="292.11" width="1.9" height="4.5"/><rect class="cls-20" x="272.2" y="300.51" width="14.5" height="3.9"/><rect class="cls-20" x="272.2" y="301.11" width="14.5" height="3.9"/><rect class="cls-19" x="272.2" y="300.71" width="14.5" height="3.9"/><rect class="cls-21" x="272.2" y="300.51" width="1.9" height="4.5"/><rect class="cls-21" x="284.7" y="300.51" width="1.9" height="4.5"/><rect class="cls-19" x="286.8" y="275.41" width="6.8" height="33.4"/><path class="cls-20" d="M297.5,304.61v3.8c-.2,0-.3.1-.5.1H283v-3.9Z"/><path class="cls-19" d="M297.5,304.91v3.5c-.2,0-.3.1-.5.1l-1.5.3H282.9v-3.9Z"/><rect class="cls-21" x="283" y="304.61" width="1.9" height="4.2"/><path class="cls-21" d="M297.5,304.61v3.8c-.2,0-.3.1-.5.1l-1.5.3h0v-4.2Z"/><rect class="cls-20" x="283" y="296.81" width="14.5" height="3.9"/><rect class="cls-20" x="283" y="296.31" width="14.5" height="3.9"/><rect class="cls-19" x="283" y="296.61" width="14.5" height="3.9"/><rect class="cls-21" x="283" y="296.31" width="1.9" height="4.5"/><rect class="cls-21" x="295.5" y="296.31" width="1.9" height="4.5"/><rect class="cls-20" x="283" y="288.51" width="14.5" height="3.9"/><rect class="cls-20" x="283" y="287.91" width="14.5" height="3.9"/><rect class="cls-19" x="283" y="288.21" width="14.5" height="3.9"/><rect class="cls-21" x="283" y="287.91" width="1.9" height="4.5"/><rect class="cls-21" x="295.5" y="287.91" width="1.9" height="4.5"/><rect class="cls-20" x="283" y="280.11" width="14.5" height="3.9"/><rect class="cls-20" x="283" y="279.51" width="14.5" height="3.9"/><rect class="cls-19" x="283" y="279.81" width="14.5" height="3.9"/><rect class="cls-21" x="283" y="279.51" width="1.9" height="4.5"/><rect class="cls-21" x="295.5" y="279.51" width="1.9" height="4.5"/><path class="cls-19" d="M304.5,275.71V305c-.1.1-.2.2-.3.2l-.2.2c-.2.1-.3.2-.5.3s-.1.1-.2.1-.1.1-.2.1l-.1.1c-.1,0-.1.1-.2.1a.1.1,0,0,0-.1.1c-.1.1-.2.1-.3.2h-.1c-.1.1-.2.1-.3.2h-.1c-.1.1-.2.1-.4.2s-.2.1-.3.2h-.1c-.1,0-.2.1-.3.1a.1.1,0,0,0-.1.1.35.35,0,0,0-.2.1c-.1,0-.2.1-.3.1h-.1c-.1,0-.2.1-.3.1h-.1a.6.6,0,0,1-.4.1c-.1,0-.2.1-.3.1s-.4.1-.5.2l-1,.3v-32.7h7Z"/><rect class="cls-20" x="293.8" y="276.01" width="14.5" height="3.9"/><rect class="cls-19" x="293.8" y="275.71" width="14.5" height="3.9"/><rect class="cls-21" x="293.8" y="275.71" width="1.9" height="4.2"/><rect class="cls-21" x="306.3" y="275.71" width="1.9" height="4.2"/><rect class="cls-20" x="293.8" y="283.71" width="14.5" height="3.9"/><rect class="cls-20" x="293.8" y="284.31" width="14.5" height="3.9"/><rect class="cls-19" x="293.8" y="284.01" width="14.5" height="3.9"/><rect class="cls-21" x="293.8" y="283.71" width="1.9" height="4.5"/><rect class="cls-21" x="306.3" y="283.71" width="1.9" height="4.5"/><rect class="cls-20" x="293.8" y="292.11" width="14.5" height="3.9"/><rect class="cls-20" x="293.8" y="292.71" width="14.5" height="3.9"/><rect class="cls-19" x="293.8" y="292.41" width="14.5" height="3.9"/><rect class="cls-21" x="293.8" y="292.11" width="1.9" height="4.5"/><rect class="cls-21" x="306.3" y="292.11" width="1.9" height="4.5"/><path class="cls-20" d="M308.3,300.51v.6h0l-.9,1.2c-.2.2-.3.4-.5.6l-.5.5h0a10,10,0,0,1-1.1,1H293.9v-3.9Z"/><path class="cls-20" d="M293.8,301.11V305h10.7l.1-.1c.1-.1.2-.2.3-.2l.3-.3a11,11,0,0,0,1.1-1h0l.5-.5c.2-.2.3-.4.5-.6l.9-1.2Z"/><path class="cls-19" d="M308.3,300.71v.3h0l-.9,1.2c-.2.2-.3.4-.5.6l-.5.5h0a10,10,0,0,1-1.1,1l-.3.3H293.9v-3.9Z"/><rect class="cls-21" x="293.8" y="300.51" width="1.9" height="4.5"/><path class="cls-21" d="M308.3,300.51v.6h0l-.9,1.2c-.2.2-.3.4-.5.6l-.5.5h0v-2.9Z"/><path class="cls-19" d="M315.3,275.41v4.1h0v.5a1.27,1.27,0,0,1-.1.6v.4a7.72,7.72,0,0,1-.2,1.5v.4a.9.9,0,0,1-.1.5v.2h0v.4c-.2,1.2-.4,2.5-.7,3.9h0a.37.37,0,0,1-.1.3v.3c0,.1-.1.3-.1.4-.1.3-.2.7-.3,1a5.64,5.64,0,0,1-.4,1.2c0,.1-.1.2-.1.3s-.1.3-.1.4h0c0,.1,0,.1-.1.2h0c0,.1-.1.2-.1.3-.1.3-.2.7-.3,1s-.3.7-.4,1.1a1.42,1.42,0,0,0-.2.6c0,.1-.1.2-.1.3v.1c-.1.3-.3.6-.4.9a.35.35,0,0,1-.1.2h0v.1c0,.1-.1.1-.1.2s-.1.3-.2.4-.1.2-.2.3h0c0,.1-.1.1-.1.2a2.09,2.09,0,0,1-.4.6c0,.1-.1.1-.1.2a2.09,2.09,0,0,1-.4.6c0,.1-.1.1-.1.2s-.1.2-.2.3-.1.1-.1.2l-.1.1v.1l-.1.1c-.1.1-.1.2-.2.3s-.1.2-.2.3l-.1.1v-25.5h6.5Z"/><path class="cls-20" d="M304.9,304.61c-.1.1-.2.2-.3.2v-.2Z"/><path class="cls-21" d="M304.9,304.61c-.1.1-.2.2-.3.2v-.2Z"/><path class="cls-20" d="M310.9,296.81c-.1.1-.1.3-.2.4s-.1.2-.2.3h0c0,.1-.1.1-.1.2a2.09,2.09,0,0,1-.4.6c0,.1-.1.1-.1.2a2.09,2.09,0,0,1-.4.6c0,.1-.1.1-.1.2s-.1.2-.2.3-.1.1-.1.2l-.1.1v.1l-.1.1c-.1.1-.1.2-.2.3s-.1.2-.2.3h-3.9v-3.9Z"/><path class="cls-20" d="M311.2,296.31a.35.35,0,0,1-.1.2h0v.1c0,.1-.1.1-.1.2s-.1.3-.2.4-.1.2-.2.3h0c0,.1-.1.1-.1.2a2.09,2.09,0,0,1-.4.6c0,.1-.1.1-.1.2a2.09,2.09,0,0,1-.4.6c0,.1-.1.1-.1.2s-.1.2-.2.3-.1.1-.1.2l-.1.1v.1l-.1.1h-4.3v-3.9h6.5Z"/><path class="cls-19" d="M311,296.61h0a.37.37,0,0,0-.1.3c-.1.1-.1.3-.2.4s-.1.2-.2.3h0c0,.1-.1.1-.1.2a2.09,2.09,0,0,1-.4.6c0,.1-.1.1-.1.2a2.09,2.09,0,0,1-.4.6c0,.1-.1.1-.1.2s-.1.2-.2.3-.1.1-.1.2l-.1.1v.1l-.1.1c-.1.1-.1.2-.2.3h-4.1v-3.9Z"/><rect class="cls-21" x="304.6" y="296.31" width="1.9" height="4.5"/><path class="cls-20" d="M313.9,288.51c0,.1-.1.3-.1.4-.1.3-.2.7-.3,1a5.64,5.64,0,0,1-.4,1.2c0,.1-.1.2-.1.3s-.1.2-.1.3v.1h0c0,.1,0,.1-.1.2h0c0,.1-.1.2-.1.3h-8.1v-3.9h9.3Z"/><path class="cls-20" d="M314,287.91h0a.37.37,0,0,1-.1.3v.3c0,.1-.1.3-.1.4-.1.3-.2.7-.3,1a5.64,5.64,0,0,1-.4,1.2c0,.1-.1.2-.1.3s-.1.2-.1.3v.1h-8.3v-3.9Z"/><path class="cls-19" d="M313.9,288.21v.3c0,.1-.1.3-.1.4-.1.3-.2.7-.3,1a5.64,5.64,0,0,1-.4,1.2c0,.1-.1.2-.1.3s-.1.2-.1.3v.1h0c0,.1,0,.1-.1.2h-8.2v-3.9h9.3Z"/><rect class="cls-21" x="304.6" y="287.91" width="1.9" height="4.5"/><path class="cls-20" d="M304.6,280.11V284h10.1v-.6a.9.9,0,0,1,.1-.5v-1.8a.75.75,0,0,1,.1-.5,1.27,1.27,0,0,1,.1-.6H304.6Z"/><path class="cls-20" d="M315.3,279.51v.6c-.1,1-.2,2.1-.4,3.3H304.7v-3.9Z"/><path class="cls-19" d="M315.2,279.81v.3c-.1,1-.2,2.1-.4,3.3v.3H304.6v-3.9Z"/><rect class="cls-21" x="304.6" y="279.51" width="1.9" height="4.5"/><path class="cls-20" d="M239.4,300.51h0c.1.1.1.1.1.2a.1.1,0,0,0,.1.1h0l.1.1.1.1h0c.1.1.2.3.3.4.4.5.9,1,1.3,1.5.1.1.2.2.2.3l.9.9c.1.1.2.1.2.2h.5v-3.9h-3.8Z"/><path class="cls-20" d="M243.4,301.11v3.8c-.1,0-.1-.1-.2-.2h0l-.1-.1-.1-.1h0c-.1-.1-.2-.1-.2-.2l-.9-.9c-.1-.1-.2-.2-.2-.3a17.38,17.38,0,0,1-1.3-1.5c-.1-.1-.2-.3-.3-.4h3.3Z"/><path class="cls-19" d="M243.4,300.81v3.9h-.2l-.1-.1-.1-.1h0c-.1-.1-.2-.1-.2-.2l-.9-.9c-.1-.1-.2-.2-.2-.3a17.38,17.38,0,0,1-1.3-1.5c-.1-.1-.2-.3-.3-.4h0l-.1-.1-.1-.1h3.5Z"/><path class="cls-21" d="M243.4,300.51v4.3c-.1,0-.1-.1-.2-.2h0l-.1-.1-.1-.1h0c-.1-.1-.2-.1-.2-.2l-.9-.9c-.1-.1-.2-.2-.2-.3v-2.5Z"/><path class="cls-22" d="M298.6,308.11v2.2a.76.76,0,0,1-.2.5.55.55,0,0,1-.5.3H250.3a.9.9,0,0,1-.9-.9V308h49.2Z"/><path class="cls-23" d="M311.7,295c0,.1-.1.2-.1.3v.1c-.1.3-.3.6-.4.9a.35.35,0,0,1-.1.2h0v.1c0,.1-.1.1-.1.2s-.1.3-.2.4-.1.2-.2.3h0c0,.1-.1.1-.1.2a2.09,2.09,0,0,1-.4.6c0,.1-.1.1-.1.2a2.09,2.09,0,0,1-.4.6c0,.1-.1.1-.1.2s-.1.2-.2.3-.1.1-.1.2l-.1.1v.1h0l-.1.1c-.1.1-.1.2-.2.3s-.1.2-.2.3l-.1.1c0,.1-.1.1-.2.2h0l-.9,1.2c-.2.2-.3.4-.5.6l-.5.5h0a10,10,0,0,1-1.1,1l-.3.3c-.1.1-.2.2-.3.2l-.1.1h0c-.1.1-.2.2-.3.2l-.2.2c-.2.1-.3.2-.5.3s-.1.1-.2.1-.1.1-.2.1l-.1.1c-.1,0-.1.1-.2.1a.1.1,0,0,0-.1.1c-.1.1-.2.1-.3.2h-.1c-.1.1-.2.1-.3.2H302c-.1.1-.2.1-.4.2s-.2.1-.3.2h-.1c-.1,0-.2.1-.3.1a.1.1,0,0,0-.1.1.35.35,0,0,0-.2.1c-.1,0-.2.1-.3.1h-.1c-.1,0-.2.1-.3.1h-.1a.6.6,0,0,1-.4.1c-.1,0-.2.1-.3.1s-.4.1-.5.2V310a.76.76,0,0,1-.2.5.55.55,0,0,1-.5.3H250.3a.9.9,0,0,1-.9-.9v-2.2c-.6-.2-1.1-.4-1.6-.6-.1-.1-.3-.1-.4-.2s-.3-.2-.5-.2l-.6-.3h0c-.1-.1-.2-.1-.3-.2-.8-.5-1.6-1-2.4-1.6h0l-.1-.1c-.1,0-.1-.1-.2-.2h0l-.1-.1-.1-.1h0c-.1-.1-.2-.1-.2-.2l-.9-.9c-.1-.1-.2-.2-.2-.3a17.38,17.38,0,0,1-1.3-1.5c-.1-.1-.2-.3-.3-.4h0l-.1-.1-.1-.1h0a.1.1,0,0,0-.1-.1l-.1-.1h0a25,25,0,0,1-2.3-3.9c0-.1-.1-.2-.1-.3s-.1-.2-.1-.3-.1-.3-.2-.4-.1-.2-.2-.4-.1-.3-.2-.5-.2-.5-.3-.7c1.1.3,2.4.5,3.6.8a16.25,16.25,0,0,1,1.9.4,12.86,12.86,0,0,1,1.9.4h.2c.6.1,1.2.2,1.9.3s1.5.3,2.3.4l1.9.3c.3,0,.5.1.8.1s.9.1,1.3.2c.2,0,.4.1.6.1a12.25,12.25,0,0,0,1.9.2h.2c2.2.3,4.5.5,6.8.7h.2a12.1,12.1,0,0,0,1.9.1c.6,0,1.3.1,1.9.1a26.2,26.2,0,0,0,2.8.1c1.3.1,2.7.1,4,.1h3.9c2.2,0,4.5,0,6.8-.1h.2a12.1,12.1,0,0,0,1.9-.1c.6,0,1.3-.1,1.9-.1a2.77,2.77,0,0,0,.9-.1h.5c1.8-.1,3.6-.3,5.4-.4.6-.1,1.3-.1,1.9-.2s1.3-.1,1.9-.2h.2a13.55,13.55,0,0,1,2-.2l2-.3c.4-.1.8-.1,1.2-.2s1.1-.2,1.7-.3h.3c.4-.1.8-.1,1.2-.2a.6.6,0,0,0,.4-.1h.1l1.5-.3h.5a14.16,14.16,0,0,0,2-.4C310.8,295.21,311.3,295.11,311.7,295Z"/><path class="cls-24" d="M315.4,277.31H232.7v-1.6h11v-.3h6.8v.3h14.9v-.3h6.8v.3H287v-.3h6.8v.3h14.9v-.3h6.8v.3h.1C315.4,275.71,315.4,276.31,315.4,277.31Z"/><path class="cls-1" d="M318.2,273c0,1.5-.6,2.7-1.4,2.7H231.3c-.4,0-.7-.3-1-.8a3.58,3.58,0,0,1-.4-1.9,3.13,3.13,0,0,1,.8-2.4.73.73,0,0,1,.6-.2h85.5c.4,0,.7.3,1,.7h0A5.33,5.33,0,0,1,318.2,273Z"/><path class="cls-1" d="M311.3,271.71h-1.5c-7.2-23.3-26.2-26.5-35.7-26.6H274a43,43,0,0,0-5.5.3v-2a49.17,49.17,0,0,1,5.6-.4c2,.1,3.8.2,5.6.4C308.8,247,311.3,271.71,311.3,271.71Z"/><path d="M93.1,286.71c-27.9,15.2-38.1-10.9-38.1-10.9-3.2-6.8,1.9-9.1,1.9-9.1,3.4-1.6,5,1.8,5,1.8,8.7,18.6,22.2,12.2,22.2,12.2,26.1-10.2,4.2-35,4.2-35l-30.9.1c-2.3-9.2,6.9-7.3,6.9-7.3a45.59,45.59,0,0,0-10.3-22c-9-6.1-7.9-16.9-7.9-16.9-1.4-11.7-7.2-11-7.2-11-3.8.4-6.1-3.2-7.2-5.9a26.68,26.68,0,0,1-.9-2.6,1.38,1.38,0,0,0,.4-.3c2.7-1.9-.2-8.1-.2-8.1l4.4-8.2-4.9-6,7.4,2.7.9-2.5-2.4-5.1,9.9,3.6c14.9,5.4,13.8,16.2,13.8,16.2C56.4,186.51,77.3,187,77.3,187c40.8,3.5,22,55.6,22,55.6C118.4,274.81,93.1,286.71,93.1,286.71Z"/><path class="cls-25" d="M36.2,172.91a3.46,3.46,0,0,1-1.8-.2,6.15,6.15,0,0,0,1.4.1c1.2-.2,2.2-.9,2.3-1.8a1.42,1.42,0,0,0-.9-.8,2.15,2.15,0,0,1,1.4,1A3.24,3.24,0,0,1,36.2,172.91Z"/><path class="cls-26" d="M32.8,180.51l-1.3,2.1a26.68,26.68,0,0,1-.9-2.6,1.38,1.38,0,0,0,.4-.3h1.4C32.8,179.71,33.1,180.21,32.8,180.51Z"/><path class="cls-27" d="M231.2,237.51h0a20.77,20.77,0,0,1-2.9,3.6h0a22,22,0,0,1-9.6,5.5h-.1a28.47,28.47,0,0,1-10.8,1c2.4,5.8,1.5,18.5,1.5,18.5l-19.5-11.7-2.9,11.7c-33-12.5-52.1-24.7-63.1-34.2-13.3-11.6-14.8-19.3-14.8-19.3,25.4-10.7,52.4-8.8,61.5-7.7,2.1.2,3.2.4,3.2.4l4-6.7h0l5-8.2h0l5.1-8.5-2.2-2h0L163,159.51c-1.6.2-3.1.3-4.5.4a26.49,26.49,0,0,1-6-.4c-8.4-1.6-8.9-7.2-8.9-7.2l-2.9-40.4-.9-.7-2.5-2.2c6.3-13.6,24.8-14.6,24.8-14.6,38.9,0,37.5,6.8,37.5,6.8.4,1.5-3,2.9-7.3,3.9a127.63,127.63,0,0,1-14.7,2.4h-.4A67.44,67.44,0,0,1,190.3,121c15,19.6,24.4,46.9,24.4,46.9,19,21.9,20.9,44.3,20.9,44.3C236.8,224.21,234.7,232.21,231.2,237.51Z"/><path class="cls-28" d="M113.2,83.41h0c-.4-2.3-1.3-4.1-2.1-4.3.8.1,1.7,1.9,2.1,4.3Z"/><path class="cls-26" d="M167.8,86.31s-3.2-1.3-2.4.5l-.9.4s-5.4-.4-4.7,1.4a1.58,1.58,0,0,0-.4.1h-.1a5.76,5.76,0,0,0-1,.2c-.2,0-.5.1-.8.1-1.3.2-3.1.5-5.2.7-.3,0-.6.1-.8.1s-.6.1-.9.1-.9.1-1.4.1H149c-.4,0-.9.1-1.3.1a81643310277768.7,81643310277768.7,0,0,0-1.8.2c-.5,0-1,.1-1.5.1-1.7.1-3.5.1-5.4.1h-3.7a4.1,4.1,0,0,1-1.1-.1c-.5,0-1-.1-1.5-.1s-1-.1-1.6-.1a11,11,0,0,1-1.8-.2c-.4,0-.7-.1-1.1-.1a5,5,0,0,1-1.2-.2c-.4-.1-.8-.1-1.2-.2s-.6-.1-1-.1-.6-.1-1-.2a2.92,2.92,0,0,1-.9-.2c-.7-.1-1.4-.3-2.1-.4l-1.2-.3c-.3-.1-.5-.1-.8-.2s-.5-.1-.8-.2-.6-.2-1-.3l-1.2-.3-1.1-.3c-.1,0-.2,0-.2-.1a3.58,3.58,0,0,1-1.1-.4l-.9-.3-.9-.3-.9-.3c-.3-.1-.7-.3-1-.4a10.37,10.37,0,0,0-1-.4c-.2-.1-.3-.1-.4-.2s-.3-.1-.4-.2-.5-.2-.7-.3a8.26,8.26,0,0,1-1.3-.7c-.6-.3-1.1-.6-1.6-.9-.7-.4-1.5-.9-2.2-1.3,0,0-5.7-2.3-6.3-1.1a13.61,13.61,0,0,1-4.3-4s-.8-1.8-1.3-.5l-7.5-2.7s-1.3-.5-1.1-2.7c0,0-.5-2.4-1.8.8,0,0-3.2-1.3-6.3-6.3,0,0-2.8-4.1-4.7-4.9,0,0-1.9-.8-3.3-6,0-.1,0-.1-.1-.2a.35.35,0,0,0,.2.1,39.45,39.45,0,0,0,4.1,2,42.28,42.28,0,0,0,11.2,2.8,28.32,28.32,0,0,0,3,.2A37.33,37.33,0,0,0,98,56.31a43.35,43.35,0,0,0,10.1-5.4s3.3-1.8,6.2-8.4a43.93,43.93,0,0,0,2.9-9.4S120.7,10,151,.41c0,0,22.5-4.2,30.3,14.2a14,14,0,0,1-.3,8.3c-1.5,3.8-5.5,7.4-15.6,6.8,0,0,13.3-7.2,4.7-15.2,0,0-17-10.3-25,4.7,0,0,2.1,11.3-.9,17.8a61.26,61.26,0,0,0,1,11.3.9.9,0,0,0,.1.5c.3,2,.7,4.3,1.3,6.9,0,.2.1.4.1.6.6,2.8,1.3,6,2.3,9.5,0,.1.1.2.1.3s28.4,17.5,37.8,4.7h0S193.9,77.91,167.8,86.31Z"/><path class="cls-29" d="M167.8,86.31s-3.2-1.3-2.4.5l-.9.4s-5.4-.4-4.7,1.4a110.44,110.44,0,0,1-15.5,1.7c-9.6.4-22.2-.3-33.4-4.8a53.58,53.58,0,0,1-8.6-4.4S96.6,78.81,96,80a13.61,13.61,0,0,1-4.3-4s-.8-1.8-1.3-.5l-7.5-2.7s-1.3-.5-1.1-2.7c0,0-.5-2.4-1.8.8,0,0-3.2-1.3-6.3-6.3,0,0-2.8-4.1-4.7-4.9,0,0-1.9-.8-3.3-6l.2-.1H66l4.1,2,8,4a2.21,2.21,0,0,0,3.2-1.2c.9-1.3,2-.8,3,.2a13.22,13.22,0,0,1,2,2.9l8.7.6c3.7,3.7,5.3,2.5,5.3,2.5,3-1.8,3.7,0,3.7,0l1.6.7,5.6,2.5,1.9.9a6,6,0,0,0,2,.7h0c2.7.7,3.9-.6,3.9-.6,2.3-2,2.2.1,2.2.1-2.5,1.6-.6,2.4-.6,2.4a111.94,111.94,0,0,0,28.1,7.4c1.1.1,2.1.3,3,.3a54.69,54.69,0,0,0,7.2.4c.1-1.1,4.2-.2,4.2-.2,17.7,1.2,23.9-7.9,24.3-8.6h0S193.9,77.91,167.8,86.31Z"/><path class="cls-30" d="M147.3,204.21h0s11.4-14.5,11.9-20.3c0,0,5.4-11.7,3.9-24.3-7.6,1-12.2,0-15-1.6l1.1,6.9L148.1,183l-11.6,22.4h0A81.09,81.09,0,0,1,147.3,204.21Z"/><path class="cls-31" d="M109.8,80.91h0a6.89,6.89,0,0,1,.4,1,10.7,10.7,0,0,1,.6,3.6,13,13,0,0,1-.9,4.8,2.18,2.18,0,0,1-.5.8s-1.1,2.8,3.5,2.3c0,0,1.4-.3,1.4,1.4,0,0-1.8,2.7.5,2.9h0a5.74,5.74,0,0,0,1.2-.1s-1.2,1.4-.1,2.1a3.94,3.94,0,0,0,1.5.4s1.7.1,1.1,3.7c0,0-1.1,5.5,10.2-1.1a1.47,1.47,0,0,1,.4-.2h0c.8-.6,4.8-3.2,9.6,3.4h0l.1.3a25.44,25.44,0,0,1,11.8-9.1h-.1c-1.9-1.2-5.4-3.7-6.3-6.7A5.9,5.9,0,0,1,144,89l1.8-4.2,2.5-5.9a114.12,114.12,0,0,1-28.1-7.4s-1.9-.8.6-2.4c0,0,.1-2.2-2.2-.1,0,0-1.9,1.8-5.9-.2l-1.9-.9a16.46,16.46,0,0,0-1,13Z"/><path class="cls-32" d="M118.8,95.31s0,2.1-2.8,4.4c-1.1-.7.1-2.1.1-2.1a5.74,5.74,0,0,1-1.2.1A32.13,32.13,0,0,0,118.8,95.31Z"/><path class="cls-33" d="M112,91.91a2.09,2.09,0,0,0,1.9,1C113.9,92.81,113.9,91.91,112,91.91Z"/><path d="M112.3,88.41c-.9.1-2-1.8-2.4-4.4s0-4.8.8-5h0c-.8.2-1.1,2.3-.7,4.6s1.4,4.3,2.2,4.2,1.2-2.1.8-4.5v.1C113.6,86,113.2,88.31,112.3,88.41Z"/><path class="cls-34" d="M113.2,83.31c.4,2.4,0,4.4-.8,4.5s-1.8-1.7-2.2-4.2-.1-4.4.8-4.6C111.7,79,112.7,80.81,113.2,83.31Z"/><path class="cls-35" d="M120.4,81.41c.2.8-1,1.7-2.7,2.1s-3.2.1-3.4-.6v-.1a4.74,4.74,0,0,0,3,.1c1.6-.4,2.9-1.2,2.7-1.9v-.1A.66.66,0,0,1,120.4,81.41Z"/><path class="cls-36" d="M114.9,69.41h0c-3.4,1.9-1.5,9.3-1.5,9.3H102.2a18.86,18.86,0,0,1,3.1-13.4l5.6,2.5,1.9.9A7.35,7.35,0,0,0,114.9,69.41Z"/><path class="cls-36" d="M151.4,79.21a32.45,32.45,0,0,1-7.3,9.8c-20.9-1-29.2-19.5-29.2-19.5h0c2.7.7,3.9-.6,3.9-.6,2.3-2,2.2.1,2.2.1-2.5,1.6-.6,2.4-.6,2.4a111.94,111.94,0,0,0,28.1,7.4C149.5,79,150.5,79.11,151.4,79.21Z"/><path class="cls-31" d="M198.1,352.31l-3.9,8.8-2.7-3.9c-.9-1.4-1.9-2.7-2.8-4s-1.9-2.7-2.8-4-1.9-2.7-2.8-4-1.9-2.7-2.8-4-1.9-2.7-2.8-4-1.9-2.7-2.9-3.9c-1-1.4-1.9-2.7-2.9-3.9-1-1.4-2-2.7-2.9-3.9-1-1.4-2-2.7-2.9-3.9-1-1.4-2-2.7-2.9-3.9-1-1.4-2-2.6-3-3.9s-2-2.6-3-3.8c-1.1-1.4-2.1-2.7-3-3.8-1.1-1.4-2.1-2.7-3.1-3.8-1.2-1.5-2.3-2.7-3.1-3.7-2.2-2.6-3.3-3.8-3.3-3.8-14.1-8.8-6.8-20-6.8-20a59.07,59.07,0,0,0,5.6-12.6c6,3.4,12.8,7.4,20.4,11.9l.3.2-7.8,8.8a48,48,0,0,1,6.7,3.7c1.4.9,2.8,2,4.1,3s2.5,2.2,3.7,3.3,2.3,2.4,3.3,3.6,2.1,2.5,3.1,3.8,1.9,2.7,2.8,4,1.8,2.8,2.6,4.2a47.36,47.36,0,0,1,2.3,4.4h0c.9,1.9,1.6,3.5,2.1,4.6s.6,1.6.6,1.6l1.1,3.3,1.6,4.9h0l1.6,4.9,1.6,4.9,1.6,4.9h0l1.6,4.9,1.6,4.9Z"/><path class="cls-29" d="M194.2,361.11l-.5,1-1-1.5-1.9,8.3s19.5-2.9,23.9,24.3c0,0,.5,8.3-3.4,10.7,0,0,9.7-1,10.7-16.1,0,0,.5-5.4-1-8.8,0,0-1-4.4,0-7.3l9.7,1.5v-1.9l-9.2-4.4s-.5-4.9-10.7-3.4c0,0-3.9.5-3.9-2.9,0,0,1.9-5.8-8.3-9.2Z"/><path class="cls-25" d="M208.8,365l-3.8-1.7a2.09,2.09,0,0,0-2.8,1.1l-2,4.6a2.09,2.09,0,0,0,1.1,2.8l3.8,1.7a2.09,2.09,0,0,0,2.8-1.1l2-4.6A2.09,2.09,0,0,0,208.8,365Zm-1.9,6.7a1.36,1.36,0,0,1-1.8.7L202,371a1.36,1.36,0,0,1-.7-1.8l1.8-4.2a1.36,1.36,0,0,1,1.8-.7l3.1,1.4a1.36,1.36,0,0,1,.7,1.8Z"/><path class="cls-25" d="M205.8,366.61h0a.48.48,0,0,1-.2-.6l.9-2,.8.4-.9,2A.45.45,0,0,1,205.8,366.61Z"/><path class="cls-25" d="M167,289.91l-16,12.5c-1.2-1.5-2.3-2.7-3.1-3.7l15.1-11.8A37.92,37.92,0,0,1,167,289.91Z"/><path class="cls-25" d="M174,296.81,157,310c-1.1-1.4-2.1-2.7-3-3.8l16.6-13C171.8,294.41,173,295.61,174,296.81Z"/><path class="cls-25" d="M179.9,304.51,163,317.71c-1-1.4-2-2.6-3-3.9l17-13.3C178.1,301.91,179,303.21,179.9,304.51Z"/><path class="cls-25" d="M184.7,313.11h0l-15.9,12.4c-1-1.4-2-2.7-2.9-3.9l16.5-12.9C183.3,310.31,184.1,311.81,184.7,313.11Z"/><path class="cls-25" d="M188.5,322.51l-13.9,10.8c-1-1.4-1.9-2.7-2.9-3.9l15.1-11.8c.4,1,.6,1.6.6,1.6Z"/><path class="cls-25" d="M191.7,332.41l-11.4,8.9c-1-1.4-1.9-2.7-2.8-4l12.6-9.8Z"/><path class="cls-25" d="M194.9,342.21h0l-8.9,7c-1-1.4-1.9-2.7-2.8-4l10.2-7.9Z"/><path class="cls-25" d="M198,352.11l-6.5,5.1c-.9-1.4-1.9-2.7-2.8-4l7.7-6Z"/><path class="cls-27" d="M170.7,293.21l-16.6,13c-1.1-1.4-2.1-2.7-3.1-3.8l16-12.5C168.3,290.91,169.5,292.11,170.7,293.21Z"/><path class="cls-27" d="M177.1,300.61l-17,13.3c-1.1-1.4-2-2.6-3-3.8l17-13.2C175.1,298,176.1,299.31,177.1,300.61Z"/><path class="cls-27" d="M182.4,308.71l-16.5,12.9c-1-1.4-2-2.7-2.9-3.9l16.9-13.2C180.8,306,181.7,307.41,182.4,308.71Z"/><path class="cls-27" d="M186.8,317.61l-15.1,11.8c-1-1.4-2-2.7-2.9-3.9l15.9-12.4A49.11,49.11,0,0,1,186.8,317.61Z"/><path class="cls-27" d="M190.1,327.41h0l-12.6,9.8c-1-1.4-1.9-2.7-2.9-3.9l13.9-10.8Z"/><path class="cls-27" d="M193.3,337.31l-10.2,7.9c-1-1.4-1.9-2.7-2.8-4l11.4-8.9Z"/><path class="cls-27" d="M196.5,347.21l-7.7,6c-.9-1.4-1.9-2.7-2.8-4l8.9-7Z"/><path class="cls-27" d="M198.1,352.31l-3.9,8.8-2.7-3.9,6.5-5.1Z"/><path class="cls-37" d="M192.3,105a127.63,127.63,0,0,1-14.7,2.4h0l-.6-.2s-33.1-6.3-36.5,4.4l-.6-.5C139.8,111.11,139,98.81,192.3,105Z"/><path class="cls-37" d="M158.8,159.81l-.3.1a26.49,26.49,0,0,1-6-.4c4.5-7.1,8.9-15.2,10.1-20.9a29,29,0,0,0,1.1-11.6v-.3S169.2,144.71,158.8,159.81Z"/><path class="cls-37" d="M218.6,246.71a28.47,28.47,0,0,1-10.8,1c2.4,5.8,1.5,18.5,1.5,18.5l-19.5-11.7-2.9,11.7c-33-12.5-52.1-24.7-63.1-34.2,2.9-.8,7.8-1,16.1.9,19.5,4.4,42.5,13.9,55.8,13.3C205.3,245.61,211.3,248.81,218.6,246.71Z"/><path class="cls-37" d="M210.5,218.21s-12.7.5-23.9-3.9a66.36,66.36,0,0,1-16.1-9.4c2.1.2,3.2.4,3.2.4l4-6.7c0,1.9,1,4,3.5,6.4C191.5,214.81,210.5,218.21,210.5,218.21Z"/><path class="cls-37" d="M221.7,181.71c-3.4-15.1-8.3-9.7-9.7-4.4s-4.4,14.1-8.8,17.5,2.4-7.8,1.9-17.5-5.4-11.7-9.7-24.8c-3.7-11.1-.1-19.5-5.1-31.6,15,19.6,24.4,46.9,24.4,46.9,19,21.9,20.9,44.3,20.9,44.3,1.2,12.1-.9,20.1-4.4,25.4C242.2,214.51,225.1,196.81,221.7,181.71Z"/><path class="cls-29" d="M183.7,285.71l-.2.5-1.3-.8-.7,8.5s18.8-5.7,27.2,20.6c0,0,1.7,8.1-1.8,11.1,0,0,9.5-2.4,8.2-17.5,0,0-.3-5.4-2.2-8.5,0,0-1.6-4.2-1.1-7.2h9.8l-.3-1.9-9.8-3s-1.2-4.7-11.1-1.8c0,0-3.8,1.1-4.3-2.3,0,0,1.1-6.1-9.5-7.9Z"/><path class="cls-25" d="M198.7,287.51l-4-1.1a2.09,2.09,0,0,0-2.6,1.5l-1.3,4.9a2.09,2.09,0,0,0,1.5,2.6l4,1.1a2.09,2.09,0,0,0,2.6-1.5l1.3-4.9A2.25,2.25,0,0,0,198.7,287.51Zm-.9,6.9a1.45,1.45,0,0,1-1.7,1l-3.3-.9a1.45,1.45,0,0,1-1-1.7l1.2-4.4a1.45,1.45,0,0,1,1.7-1l3.3.9a1.45,1.45,0,0,1,1,1.7Z"/><path class="cls-25" d="M196,289.51h0c-.2-.1-.4-.3-.3-.5l.6-2.1.8.2-.6,2.1A.38.38,0,0,1,196,289.51Z"/><path class="cls-30" d="M186.5,275.81l-2.8,10-.2.5h0c-1.4-.9-2.8-1.7-4.1-2.6s-2.8-1.7-4.2-2.6-2.8-1.7-4.2-2.5-2.8-1.7-4.2-2.5-2.8-1.7-4.2-2.5-2.8-1.7-4.2-2.5-2.8-1.7-4.2-2.5-2.8-1.7-4.2-2.5-2.9-1.7-4.2-2.4q-2.25-1.2-4.2-2.4c-1.5-.8-2.9-1.6-4.3-2.4s-2.9-1.6-4.3-2.4-2.9-1.6-4.3-2.3l-4.3-2.3c-1.6-.9-3.1-1.6-4.3-2.3-1.9-1-3.4-1.7-4.3-2.2s-1.5-.7-1.5-.7c-16.1-5.4-18.5-16.1-18.5-16.1a4.68,4.68,0,0,1-.2-1.6c0-7.4,14.8-12.9,14.8-12.9,1.7,3.3,5.4,8.8,13.2,15.6l-.4.8h0a45.73,45.73,0,0,1,5.2.5,38.77,38.77,0,0,1,4.9,1.1,42.61,42.61,0,0,1,4.7,1.5c1.5.6,3,1.2,4.5,1.9s2.9,1.4,4.3,2.2,2.8,1.6,4.2,2.5,2.8,1.8,4.1,2.7,2.7,1.9,4,2.9,2.6,2.1,3.9,3.1,2.6,2.2,3.8,3.3,2.5,2.3,3.7,3.5,2.5,2.5,3.6,3.6c1.3,1.3,2.5,2.6,3.6,3.8,1.3,1.4,2.4,2.7,3.5,4,1.4,1.6,2.5,3,3.4,4.1S186.1,275.21,186.5,275.81Z"/><path class="cls-25" d="M128.4,233.11l-8.2,16.6c-1.9-1-3.4-1.7-4.3-2.2l7.3-14.8A23.24,23.24,0,0,1,128.4,233.11Z"/><path class="cls-25" d="M138,235.61l-9.2,18.6-4.3-2.3,8.8-17.8C134.8,234.61,136.4,235.11,138,235.61Z"/><path class="cls-25" d="M146.8,239.71l-9.5,19.2c-1.5-.8-2.9-1.6-4.3-2.4l9.4-19C143.9,238.21,145.4,238.91,146.8,239.71Z"/><path class="cls-25" d="M155.1,244.91l-9.3,18.8q-2.25-1.2-4.2-2.4l9.4-19.1A36.22,36.22,0,0,1,155.1,244.91Z"/><path class="cls-25" d="M163,250.91l-8.7,17.7c-1.4-.8-2.8-1.7-4.2-2.5l9.1-18.3C160.4,248.81,161.7,249.91,163,250.91Z"/><path class="cls-25" d="M170.5,257.71l-7.8,15.9c-1.4-.9-2.8-1.7-4.2-2.5l8.3-16.8C168.1,255.41,169.3,256.51,170.5,257.71Z"/><path class="cls-25" d="M177.7,265.11l-6.6,13.5c-1.4-.9-2.8-1.7-4.2-2.5l7.3-14.7C175.4,262.61,176.6,263.91,177.7,265.11Z"/><path class="cls-25" d="M184.5,273.21l-5.2,10.5c-1.4-.9-2.8-1.7-4.2-2.6l5.9-12C182.5,270.71,183.6,272.11,184.5,273.21Z"/><path class="cls-27" d="M133.3,234.11l-8.8,17.8c-1.6-.9-3.1-1.6-4.3-2.3l8.2-16.6C130,233.31,131.6,233.71,133.3,234.11Z"/><path class="cls-27" d="M142.5,237.51l-9.4,19c-1.5-.8-2.9-1.6-4.3-2.3l9.2-18.6C139.5,236.21,141,236.81,142.5,237.51Z"/><path class="cls-27" d="M151,242.21l-9.4,19.1c-1.5-.8-2.9-1.6-4.3-2.4l9.5-19.2C148.2,240.51,149.6,241.31,151,242.21Z"/><path class="cls-27" d="M159.1,247.81l-9.1,18.3c-1.5-.8-2.9-1.7-4.2-2.4l9.3-18.8C156.5,245.81,157.8,246.81,159.1,247.81Z"/><path class="cls-27" d="M166.8,254.21,158.5,271c-1.4-.8-2.8-1.7-4.2-2.5l8.7-17.7C164.3,252,165.6,253.11,166.8,254.21Z"/><path class="cls-27" d="M174.1,261.31,166.8,276c-1.4-.9-2.8-1.7-4.2-2.5l7.8-15.9C171.8,258.91,173,260.11,174.1,261.31Z"/><path class="cls-27" d="M181.2,269.11l-5.9,12c-1.4-.9-2.8-1.7-4.2-2.5l6.6-13.5C179,266.51,180.1,267.91,181.2,269.11Z"/><path class="cls-27" d="M186.5,275.81l-2.8,10-.2.5h0c-1.4-.9-2.8-1.7-4.1-2.6l5.2-10.5C185.4,274.41,186.1,275.21,186.5,275.81Z"/><path class="cls-31" d="M143.6,111.31l-12.7,60.4L109,234s-18,7.3-22.4,10.7c0,0-1.5,1-1,2.4l3.4,6.3s1.9,2.4,3.4.5a1.28,1.28,0,0,1,1.9,0,2,2,0,0,0,2.9,0,1.28,1.28,0,0,1,1.9,0s1.5,1,2.4,0a1.09,1.09,0,0,1,1.5-.5c1,.5,2.4-.5,3.4-2.9H101s-1.5-3.4,1.5-3.4l10.1-1.1s33.7-49.1,29.3-71.5c0,0,18-23.9,20.4-36,0,0,4.4-12.2-2.9-22.9C159.7,115.71,151.4,102.61,143.6,111.31Z"/><path class="cls-38" d="M181.2,22.81c-1.5,3.8-5.5,7.4-15.6,6.8,0,0,13.3-7.2,4.7-15.2,0,0-17-10.3-25,4.7,0,0,2.1,11.3-.9,17.8a61.26,61.26,0,0,0,1,11.3.9.9,0,0,0,.1.5l-3.2-.9S134,11.31,153,8.41C153.1,8.41,172.9,1.91,181.2,22.81Z"/><path class="cls-27" d="M149.2,65.81,139.4,64l-21.9-4.1-19.4-3.6a43.35,43.35,0,0,0,10.1-5.4s3.3-1.8,6.2-8.4l6,1.1,22.1,4.1,2.9.5c.3,2.1.8,4.6,1.3,7.4a1.27,1.27,0,0,1,.1.6C147.5,59.11,148.3,62.21,149.2,65.81Z"/><path class="cls-25" d="M142.6,47.71a5.28,5.28,0,0,0-3.9-3.3l-13.4-2.5a5.38,5.38,0,0,0-4.8,1.7,5.45,5.45,0,0,0-1.2,2.4l-2.1,11a4.78,4.78,0,0,0,.3,2.9,4.87,4.87,0,0,0,3.8,3.1l13.4,2.5a5.34,5.34,0,0,0,4.7-1.5,5.81,5.81,0,0,0,1.3-2.6l2.1-11A4.85,4.85,0,0,0,142.6,47.71Zm-7.6,5.4-.5-.1a1.48,1.48,0,0,0-1.7,1.2,1.41,1.41,0,0,0,1.2,1.7l1.3.2,2.7.5-.4,1.9a3.86,3.86,0,0,1-4.5,3.1L124.5,60a3.86,3.86,0,0,1-3.1-4.5l1.3-6.7a3.86,3.86,0,0,1,4.5-3.1l8.6,1.6a3.86,3.86,0,0,1,3.1,4.5l-.4,1.9-2.5-.5h0Z"/><path class="cls-29" d="M135.4,56a2.22,2.22,0,1,1-1-3.9,1.92,1.92,0,0,1,1.5,1.1c-.1-.1-.3-.1-.5-.2a1.47,1.47,0,1,0-.5,2.9A1.09,1.09,0,0,0,135.4,56Z"/><path class="cls-29" d="M147,56.21v.5a2.24,2.24,0,1,1-1.8-2.6,2.43,2.43,0,0,1,1.7,1.4A1.48,1.48,0,0,0,147,56.21Z"/></g></g></svg>