<svg xmlns="http://www.w3.org/2000/svg" xmlns:xlink="http://www.w3.org/1999/xlink" viewBox="0 0 933 842"><defs><style>.cls-1,.cls-2,.cls-3{fill:none;}.cls-2{clip-path:url(#clip-path);}.cls-3{clip-path:url(#clip-path-2);}.cls-4{fill:url(#linear-gradient);}.cls-5{clip-path:url(#clip-path-5);}.cls-6{fill:url(#linear-gradient-2);}.cls-7{clip-path:url(#clip-path-6);}.cls-10,.cls-8{opacity:0.79;}.cls-10,.cls-18,.cls-20,.cls-21,.cls-22,.cls-23,.cls-8{isolation:isolate;}.cls-8{fill:url(#linear-gradient-3);}.cls-9{fill:url(#linear-gradient-4);}.cls-10{fill:url(#linear-gradient-5);}.cls-11{fill:url(#linear-gradient-6);}.cls-12{fill:#ffc303;}.cls-13{fill:#002430;}.cls-14{fill:url(#linear-gradient-7);}.cls-15{fill:url(#linear-gradient-8);}.cls-16{fill:url(#linear-gradient-9);}.cls-17{fill:url(#linear-gradient-10);}.cls-18,.cls-19,.cls-20,.cls-21,.cls-22,.cls-23{fill:#fff;}.cls-18{opacity:0.46;}.cls-20{opacity:0.17;}.cls-21{opacity:0.57;}.cls-22{opacity:0.78;}.cls-23{opacity:0.47;}</style><clipPath id="clip-path"><circle class="cls-1" cx="702" cy="492" r="421"/></clipPath><clipPath id="clip-path-2"><polygon class="cls-2" points="3 3 4 3 3 4 3 3"/></clipPath><linearGradient id="linear-gradient" x1="702" y1="910.89" x2="702" y2="68.89" gradientTransform="matrix(1, 0, 0, -1, -281, 910.89)" gradientUnits="userSpaceOnUse"><stop offset="0" stop-color="#101028"/><stop offset="0.24" stop-color="#0b434f"/><stop offset="0.48" stop-color="#066f70"/><stop offset="0.69" stop-color="#038f89"/><stop offset="0.88" stop-color="#01a298"/><stop offset="1" stop-color="#00a99d"/></linearGradient><clipPath id="clip-path-5" transform="translate(-281 -71)"><polygon class="cls-3" points="1 1 0 1 1 0 1 1"/></clipPath><linearGradient id="linear-gradient-2" x1="538.85" y1="201.68" x2="538.85" y2="376.12" gradientTransform="matrix(1, 0, 0, -1, -281, 910.89)" gradientUnits="userSpaceOnUse"><stop offset="0" stop-color="#fff"/><stop offset="0.12" stop-color="#f8f8f8"/><stop offset="0.3" stop-color="#e4e4e4"/><stop offset="0.51" stop-color="#c2c2c2"/><stop offset="0.75" stop-color="#959595"/><stop offset="0.85" stop-color="gray"/></linearGradient><clipPath id="clip-path-6" transform="translate(-281 -71)"><circle class="cls-1" cx="702" cy="492" r="421"/></clipPath><linearGradient id="linear-gradient-3" x1="538.85" y1="201.68" x2="538.85" y2="376.12" gradientTransform="matrix(1, 0, 0, -1, -281, 910.89)" gradientUnits="userSpaceOnUse"><stop offset="0" stop-color="#000002"/><stop offset="0.18" stop-color="#010609"/><stop offset="0.45" stop-color="#05171d"/><stop offset="0.77" stop-color="#0a323e"/><stop offset="0.85" stop-color="#0c3a48"/></linearGradient><linearGradient id="linear-gradient-4" x1="976.2" y1="202.5" x2="976.2" y2="395.45" xlink:href="#linear-gradient-2"/><linearGradient id="linear-gradient-5" x1="976.2" y1="202.5" x2="976.2" y2="395.45" xlink:href="#linear-gradient-3"/><linearGradient id="linear-gradient-6" x1="755.85" y1="90.89" x2="755.85" y2="331.72" gradientTransform="matrix(1, 0, 0, -1, -281, 910.89)" gradientUnits="userSpaceOnUse"><stop offset="0" stop-color="#000002"/><stop offset="0.08" stop-color="#000509"/><stop offset="0.35" stop-color="#00111a"/><stop offset="0.64" stop-color="#001924"/><stop offset="1" stop-color="#001b27"/></linearGradient><linearGradient id="linear-gradient-7" x1="838.9" y1="90.89" x2="838.9" y2="331.72" xlink:href="#linear-gradient-6"/><linearGradient id="linear-gradient-8" x1="636.9" y1="90.89" x2="636.9" y2="331.72" xlink:href="#linear-gradient-6"/><linearGradient id="linear-gradient-9" x1="449.4" y1="90.89" x2="449.4" y2="331.72" xlink:href="#linear-gradient-6"/><linearGradient id="linear-gradient-10" x1="989.6" y1="90.89" x2="989.6" y2="331.72" xlink:href="#linear-gradient-6"/></defs><g id="Layer_2" data-name="Layer 2"><g id="Layer_1-2" data-name="Layer 1"><circle class="cls-4" cx="421" cy="421" r="421"/><g id="SVGID"><g class="cls-5"><polygon class="cls-6" points="464.4 636.7 464.4 595.1 409.5 595.1 409.5 636.7 389.9 636.7 389.9 566 353 566.5 352.9 595.8 352.2 595.3 325 614.4 325 636.7 293.9 636.7 293.9 626.4 273.8 618.1 273.8 626.4 252.8 617.1 252.8 626.9 232.5 617.2 232.5 588 195.6 577 195.5 636.7 175.9 636.7 175.9 578.3 130.6 578.3 130.6 636.7 116.5 636.7 116.5 566 79.6 566.5 79.6 595.8 78.9 595.3 51.6 614.4 51.6 636.7 20 636.7 20 717 79.4 717 104.5 717 116.5 717 137.8 717 195.4 717 201.6 717 232.3 717 232.5 717 293.3 717 293.9 717 352.8 717 377.8 717 389.9 717 411.2 717 495.7 717 495.7 636.7 464.4 636.7"/></g></g><g class="cls-7"><polygon class="cls-8" points="464.4 636.7 464.4 595.1 409.5 595.1 409.5 636.7 389.9 636.7 389.9 566 353 566.5 352.9 595.8 352.2 595.3 325 614.4 325 636.7 293.9 636.7 293.9 626.4 273.8 618.1 273.8 626.4 252.8 617.1 252.8 626.9 232.5 617.2 232.5 588 195.6 577 195.5 636.7 175.9 636.7 175.9 578.3 130.6 578.3 130.6 636.7 116.5 636.7 116.5 566 79.6 566.5 79.6 595.8 78.9 595.3 51.6 614.4 51.6 636.7 20 636.7 20 717 79.4 717 104.5 717 116.5 717 137.8 717 195.4 717 201.6 717 232.3 717 232.5 717 293.3 717 293.9 717 352.8 717 377.8 717 389.9 717 411.2 717 495.7 717 495.7 636.7 464.4 636.7"/></g><g id="SVGID-2" data-name="SVGID"><g class="cls-5"><polygon class="cls-9" points="901.8 636.7 901.8 595.1 846.9 595.1 846.9 636.7 827.3 636.7 827.3 566 790.3 566.5 790.3 595.8 789.6 595.3 762.4 614.4 762.4 636.7 731.3 636.7 731.3 626.4 711.2 618.1 711.2 626.4 690.2 617.1 690.2 626.9 669.9 617.2 669.9 563.3 633 577 632.9 636.7 613.2 636.7 613.2 595.1 568 595.1 568 636.7 553.9 636.7 553.9 550 517 550.5 517 595.8 516.3 595.3 489 614.4 489 636.7 457.4 636.7 457.4 717 516.8 717 541.9 717 553.9 717 575.2 717 632.8 717 639 717 669.7 717 669.9 717 730.7 717 731.3 717 790.1 717 815.2 717 827.3 717 848.5 717 933 717 933 636.7 901.8 636.7"/></g></g><g class="cls-7"><polygon class="cls-10" points="901.8 636.7 901.8 595.1 846.9 595.1 846.9 636.7 827.3 636.7 827.3 566 790.3 566.5 790.3 595.8 789.6 595.3 762.4 614.4 762.4 636.7 731.3 636.7 731.3 626.4 711.2 618.1 711.2 626.4 690.2 617.1 690.2 626.9 669.9 617.2 669.9 563.3 633 577 632.9 636.7 613.2 636.7 613.2 595.1 568 595.1 568 636.7 553.9 636.7 553.9 550 517 550.5 517 595.8 516.3 595.3 489 614.4 489 636.7 457.4 636.7 457.4 717 516.8 717 541.9 717 553.9 717 575.2 717 632.8 717 639 717 669.7 717 669.9 717 730.7 717 731.3 717 790.1 717 815.2 717 827.3 717 848.5 717 933 717 933 636.7 901.8 636.7"/></g><g class="cls-7"><polygon class="cls-11" points="443.8 588.8 506.2 564 506.2 842 443.5 842 443.8 588.8"/><rect class="cls-12" x="453" y="603.8" width="8.2" height="7.7"/><rect class="cls-12" x="471.1" y="603.8" width="8.2" height="7.7"/><rect class="cls-12" x="471.1" y="619.8" width="8.2" height="7.7"/><rect class="cls-13" x="453" y="635.1" width="8.2" height="7.7"/><rect class="cls-12" x="471.1" y="635.1" width="8.2" height="7.7"/><rect class="cls-12" x="453" y="651.1" width="8.2" height="7.7"/><rect class="cls-12" x="471.1" y="741.1" width="8.2" height="7.7"/><rect class="cls-12" x="471.1" y="666.4" width="8.2" height="7.7"/><rect class="cls-12" x="453" y="682.3" width="8.2" height="7.7"/><rect class="cls-13" x="471.1" y="772.3" width="8.2" height="7.7"/><rect class="cls-13" x="488.1" y="603.8" width="8.2" height="7.7"/><rect class="cls-13" x="488.1" y="635.1" width="8.2" height="7.7"/><rect class="cls-12" x="488.1" y="730.1" width="8.2" height="7.7"/><rect class="cls-13" x="488.1" y="666.4" width="8.2" height="7.7"/><rect class="cls-12" x="488.1" y="761.3" width="8.2" height="7.7"/><rect class="cls-13" x="471.1" y="697.4" width="8.2" height="7.7"/><rect class="cls-13" x="453" y="713.3" width="8.2" height="7.7"/><rect class="cls-13" x="471.1" y="713.3" width="8.2" height="7.7"/><rect class="cls-13" x="488.1" y="713.3" width="8.2" height="7.7"/><polygon class="cls-14" points="505.8 661.4 505.8 842 610 842 610 678.2 576 663.2 576 678.2 540.6 661.4 540.6 679.1 505.8 661.4"/><rect class="cls-12" x="512.2" y="702.2" width="7.7" height="7.2"/><rect class="cls-13" x="532.2" y="702.2" width="7.7" height="7.2"/><rect class="cls-12" x="553.5" y="702.2" width="7.7" height="7.2"/><rect class="cls-12" x="574.2" y="738.2" width="7.7" height="7.2"/><rect class="cls-12" x="593.3" y="702.2" width="7.7" height="7.2"/><rect class="cls-13" x="512.2" y="718" width="7.7" height="7.2"/><rect class="cls-12" x="532.2" y="718" width="7.7" height="7.2"/><rect class="cls-13" x="553.5" y="754" width="7.7" height="7.2"/><rect class="cls-13" x="574.2" y="718" width="7.7" height="7.2"/><rect class="cls-13" x="593.3" y="718" width="7.7" height="7.2"/><rect class="cls-13" x="512.2" y="693.3" width="89" height="3.5"/><polygon class="cls-15" points="268 707.4 268 842 443.8 842 443.8 707.4 430.3 704.8 430.3 685.7 401.6 677.8 401.6 686.6 371.2 677.8 371.2 667.1 334.3 660.9 334.3 652.1 326.5 646.8 288.9 646.8 288.9 695.5 268 707.4"/><rect class="cls-12" x="297.5" y="656.5" width="10.9" height="6.1"/><rect class="cls-13" x="317.2" y="656.5" width="10.9" height="6.1"/><rect class="cls-13" x="297.5" y="673.9" width="10.9" height="6.1"/><rect class="cls-12" x="297.5" y="691.1" width="10.9" height="6.1"/><rect class="cls-12" x="317.2" y="691.1" width="10.9" height="6.1"/><rect class="cls-12" x="337" y="673.9" width="10.9" height="6.1"/><rect class="cls-12" x="353.8" y="691.1" width="10.9" height="6.1"/><rect class="cls-13" x="410.1" y="691.1" width="10.9" height="6.1"/><rect class="cls-13" x="373.3" y="691.1" width="10.9" height="6.1"/><rect class="cls-13" x="280.2" y="715.2" width="6.3" height="10.8"/><rect class="cls-12" x="299.6" y="715.2" width="6.3" height="10.8"/><rect class="cls-12" x="281.6" y="748.2" width="6.3" height="10.8"/><rect class="cls-12" x="281.6" y="775.2" width="6.3" height="10.8"/><rect class="cls-12" x="319.7" y="749.2" width="6.3" height="10.8"/><rect class="cls-13" x="340.2" y="715.2" width="6.3" height="10.8"/><rect class="cls-12" x="375.6" y="715.2" width="6.3" height="10.8"/><rect class="cls-13" x="392.6" y="715.2" width="6.3" height="10.8"/><rect class="cls-12" x="407.2" y="715.2" width="6.3" height="10.8"/><rect class="cls-13" x="340.2" y="749.2" width="6.3" height="10.8"/><rect class="cls-13" x="303.2" y="774.2" width="6.3" height="10.8"/><rect class="cls-12" x="358.2" y="772.2" width="6.3" height="10.8"/><rect class="cls-13" x="377.2" y="789.2" width="6.3" height="10.8"/><rect class="cls-13" x="356.9" y="735.2" width="6.3" height="10.8"/><rect class="cls-12" x="375.6" y="749.2" width="6.3" height="10.8"/><rect class="cls-12" x="407.2" y="749.2" width="6.3" height="10.8"/><rect class="cls-12" x="420.2" y="789.2" width="6.3" height="10.8"/><rect class="cls-13" x="419" y="715.2" width="6.3" height="10.8"/><polygon class="cls-16" points="215.2 696.8 215.2 656.5 168.4 622 122.3 656.5 122.3 696.8 68.8 696.8 68.8 842 268 842 268 696.8 215.2 696.8"/><rect class="cls-12" x="130.4" y="686.2" width="7.1" height="10.9"/><rect class="cls-13" x="152.5" y="648.2" width="7.1" height="10.9"/><rect class="cls-12" x="175.7" y="686.2" width="7.1" height="10.9"/><rect class="cls-12" x="198.7" y="686.2" width="7.1" height="10.9"/><rect class="cls-13" x="130.4" y="705.9" width="7.1" height="10.9"/><rect class="cls-13" x="152.5" y="705.9" width="7.1" height="10.9"/><rect class="cls-13" x="175.7" y="667.9" width="7.1" height="10.9"/><rect class="cls-12" x="198.7" y="705.9" width="7.1" height="10.9"/><rect class="cls-12" x="130.4" y="724.9" width="7.1" height="10.9"/><rect class="cls-13" x="152.5" y="724.9" width="7.1" height="10.9"/><rect class="cls-12" x="175.7" y="724.9" width="7.1" height="10.9"/><rect class="cls-12" x="198.7" y="741.9" width="7.1" height="10.9"/><rect class="cls-13" x="219.4" y="705.9" width="7.1" height="10.9"/><rect class="cls-12" x="234.8" y="705.9" width="7.1" height="10.9"/><rect class="cls-12" x="250.1" y="705.9" width="7.1" height="10.9"/><rect class="cls-12" x="219.4" y="757.9" width="7.1" height="10.9"/><rect class="cls-13" x="235.8" y="757.9" width="7.1" height="10.9"/><rect class="cls-13" x="235.8" y="740.9" width="7.1" height="10.9"/><rect class="cls-13" x="251.8" y="775.9" width="7.1" height="10.9"/><rect class="cls-12" x="250.1" y="724.9" width="7.1" height="10.9"/><rect class="cls-12" x="80.4" y="705.9" width="7.1" height="10.9"/><rect class="cls-12" x="94.8" y="705.9" width="7.1" height="10.9"/><rect class="cls-13" x="108.7" y="705.9" width="7.1" height="10.9"/><rect class="cls-13" x="80.4" y="724.9" width="7.1" height="10.9"/><rect class="cls-13" x="94.8" y="724.9" width="7.1" height="10.9"/><rect class="cls-13" x="108.7" y="724.9" width="7.1" height="10.9"/><polygon class="cls-17" points="755.4 696.8 755.4 656.5 708.6 622 662.5 656.5 662.5 696.8 609 696.8 609 842 808.2 842 808.2 696.8 755.4 696.8"/><rect class="cls-12" x="670.5" y="686.2" width="7.1" height="10.9"/><rect class="cls-13" x="692.7" y="686.2" width="7.1" height="10.9"/><rect class="cls-12" x="715.8" y="686.2" width="7.1" height="10.9"/><rect class="cls-12" x="738.9" y="686.2" width="7.1" height="10.9"/><rect class="cls-13" x="670.5" y="705.9" width="7.1" height="10.9"/><rect class="cls-13" x="715.8" y="705.9" width="7.1" height="10.9"/><rect class="cls-12" x="738.9" y="705.9" width="7.1" height="10.9"/><rect class="cls-12" x="670.5" y="724.9" width="7.1" height="10.9"/><rect class="cls-13" x="692.7" y="724.9" width="7.1" height="10.9"/><rect class="cls-12" x="715.8" y="724.9" width="7.1" height="10.9"/><rect class="cls-12" x="738.9" y="724.9" width="7.1" height="10.9"/><rect class="cls-13" x="759.6" y="705.9" width="7.1" height="10.9"/><rect class="cls-12" x="775" y="705.9" width="7.1" height="10.9"/><rect class="cls-12" x="790.2" y="705.9" width="7.1" height="10.9"/><rect class="cls-12" x="759.6" y="724.9" width="7.1" height="10.9"/><rect class="cls-13" x="775" y="724.9" width="7.1" height="10.9"/><rect class="cls-12" x="790.2" y="724.9" width="7.1" height="10.9"/><rect class="cls-12" x="620.6" y="705.9" width="7.1" height="10.9"/><rect class="cls-12" x="634.9" y="705.9" width="7.1" height="10.9"/><rect class="cls-13" x="620.6" y="724.9" width="7.1" height="10.9"/><rect class="cls-13" x="634.9" y="760.9" width="7.1" height="10.9"/><rect class="cls-13" x="648.9" y="724.9" width="7.1" height="10.9"/></g><polygon class="cls-18" points="85.3 473.6 86.3 475.7 88.6 476 86.9 477.6 87.3 479.9 85.3 478.8 83.3 479.9 83.7 477.6 82 476 84.3 475.7 85.3 473.6"/><polygon class="cls-19" points="172.8 493.6 173.8 495.6 176.1 496 174.5 497.6 174.9 499.8 172.8 498.8 170.8 499.8 171.2 497.6 169.5 496 171.8 495.6 172.8 493.6"/><polygon class="cls-20" points="266 409.5 267.8 410.3 269.5 409.3 269.3 411.3 270.8 412.6 268.9 413 268.1 414.8 267.1 413.1 265.1 412.9 266.5 411.4 266 409.5"/><polygon class="cls-19" points="592.8 510.4 594.8 514.4 599.3 515 596.1 518.2 596.8 522.6 592.8 520.5 588.8 522.6 589.6 518.2 586.4 515 590.8 514.4 592.8 510.4"/><polygon class="cls-19" points="135.5 463.3 135 465.3 136.4 466.8 134.4 467 133.4 468.8 132.6 466.9 130.6 466.5 132.1 465.1 131.9 463.1 133.6 464.1 135.5 463.3"/><polygon class="cls-21" points="132.4 304.6 134.3 307.4 137.7 307.4 135.7 310.1 136.7 313.3 133.5 312.2 130.8 314.2 130.9 310.8 128.2 308.8 131.4 307.8 132.4 304.6"/><polygon class="cls-21" points="441.9 93.9 441.4 96.4 443.2 98.2 440.7 98.5 439.5 100.7 438.4 98.4 435.9 98 437.8 96.3 437.5 93.8 439.6 95 441.9 93.9"/><polygon class="cls-19" points="282.1 383 281.5 384.8 282.7 386.3 280.8 386.3 279.7 387.8 279.1 386 277.3 385.5 278.9 384.4 278.8 382.5 280.3 383.6 282.1 383"/><polygon class="cls-20" points="88.9 406.9 91.4 408.3 94.1 407 93.5 409.9 95.5 412 92.6 412.4 91.2 415 90 412.3 87.1 411.8 89.3 409.8 88.9 406.9"/><polygon class="cls-18" points="171.2 352.4 169.1 353.1 168.4 355.2 167.2 353.4 164.9 353.4 166.3 351.6 165.6 349.5 167.7 350.2 169.5 348.9 169.4 351.1 171.2 352.4"/><polygon class="cls-18" points="266 352.1 264.6 353.5 264.9 355.4 263.2 354.5 261.5 355.5 261.8 353.5 260.3 352.2 262.3 351.9 263.1 350.1 264 351.8 266 352.1"/><polygon class="cls-19" points="241.4 302 242.1 303.1 243.4 303.2 242.6 304.2 242.9 305.5 241.7 305 240.6 305.7 240.7 304.4 239.6 303.6 240.9 303.3 241.4 302"/><polygon class="cls-19" points="195 304.1 193.5 305.7 193.9 307.9 191.9 307 190 308.1 190.3 305.8 188.6 304.3 190.8 303.9 191.8 301.9 192.8 303.9 195 304.1"/><polygon class="cls-22" points="229.1 367 227.4 368.4 227.6 370.7 225.7 369.5 223.6 370.3 224.2 368.1 222.7 366.4 225 366.3 226.1 364.4 227 366.5 229.1 367"/><polygon class="cls-18" points="458.4 547.6 456.5 547.9 455.7 549.5 454.9 547.8 453.1 547.5 454.4 546.3 454.2 544.5 455.8 545.3 457.4 544.5 457.1 546.3 458.4 547.6"/><polygon class="cls-19" points="132.5 384.5 133.6 385.1 134.7 384.4 134.6 385.7 135.6 386.5 134.3 386.8 133.8 388 133.2 386.8 131.9 386.7 132.8 385.8 132.5 384.5"/><polygon class="cls-19" points="190.2 355.7 189.6 357.5 190.8 359 188.9 359 187.8 360.5 187.2 358.7 185.4 358.2 186.9 357.1 186.9 355.2 188.4 356.3 190.2 355.7"/><polygon class="cls-20" points="165.4 393.2 165.1 395.8 167.1 397.5 164.5 398 163.4 400.4 162.2 398.1 159.6 397.9 161.4 396 160.8 393.4 163.2 394.5 165.4 393.2"/><polygon class="cls-19" points="79.5 374.3 80 375 80.8 375 80.3 375.7 80.5 376.5 79.7 376.2 79 376.7 79.1 375.8 78.4 375.3 79.2 375.1 79.5 374.3"/><polygon class="cls-19" points="92.7 359.5 91.8 360.2 91.9 361.5 90.8 360.8 89.6 361.3 90 360.1 89.1 359.1 90.4 359.1 91.1 358 91.5 359.2 92.7 359.5"/><polygon class="cls-19" points="61.9 392.9 60.8 394.3 61.3 395.9 59.6 395.3 58.2 396.3 58.3 394.5 56.9 393.5 58.6 393 59.2 391.4 60.2 392.9 61.9 392.9"/><polygon class="cls-18" points="237.4 569.3 238.2 571 240.2 571.3 238.8 572.7 239.1 574.6 237.4 573.7 235.6 574.6 235.9 572.7 234.5 571.3 236.5 571 237.4 569.3"/><polygon class="cls-19" points="312.7 586.4 313.6 588.2 315.6 588.5 314.2 589.9 314.5 591.8 312.7 590.9 311 591.8 311.3 589.9 309.9 588.5 311.9 588.2 312.7 586.4"/><polygon class="cls-20" points="280.6 560.3 280.2 562.1 281.4 563.4 279.6 563.5 278.8 565.1 278.1 563.5 276.3 563.1 277.7 561.9 277.5 560.2 279 561.1 280.6 560.3"/><polygon class="cls-20" points="233.5 513.5 235.2 514.4 236.9 513.6 236.5 515.5 237.8 516.8 235.9 517.1 235 518.7 234.3 517 232.4 516.7 233.8 515.4 233.5 513.5"/><polygon class="cls-19" points="313.7 463.8 311.4 464.5 310.6 466.8 309.3 464.9 306.8 464.9 308.3 462.9 307.5 460.6 309.8 461.4 311.8 460 311.7 462.4 313.7 463.8"/><polygon class="cls-20" points="338.9 525.8 336.2 526.1 335 528.5 333.8 526.1 331.2 525.7 333.1 523.8 332.7 521.2 335.1 522.5 337.5 521.3 337 523.9 338.9 525.8"/><polygon class="cls-19" points="261.6 499.1 262.4 499.5 263.1 499 263 499.9 263.6 500.4 262.8 500.6 262.5 501.3 262.1 500.6 261.3 500.5 261.8 499.9 261.6 499.1"/><polygon class="cls-19" points="327.7 467.7 327.2 469.2 328.2 470.5 326.6 470.5 325.6 471.9 325.1 470.3 323.6 469.8 324.9 468.9 324.9 467.3 326.2 468.2 327.7 467.7"/><polygon class="cls-18" points="282.9 504.7 282.7 506.4 283.9 507.5 282.3 507.8 281.6 509.4 280.8 507.9 279.1 507.7 280.3 506.5 279.9 504.8 281.4 505.5 282.9 504.7"/><polygon class="cls-19" points="227.5 492.5 227.8 493 228.3 493 228 493.4 228.2 493.9 227.6 493.7 227.2 494.1 227.2 493.5 226.8 493.2 227.3 493 227.5 492.5"/><polygon class="cls-19" points="236 482.9 235.4 483.5 235.5 484.3 234.8 483.8 234 484.1 234.2 483.4 233.7 482.7 234.5 482.7 234.9 482 235.2 482.8 236 482.9"/><polygon class="cls-19" points="216.1 504.5 215.4 505.4 215.7 506.5 214.7 506.1 213.8 506.7 213.8 505.6 212.9 504.9 214 504.6 214.4 503.5 215 504.5 216.1 504.5"/><polygon class="cls-19" points="220.4 322.1 221.6 322.8 222.8 322.2 222.5 323.6 223.5 324.6 222.1 324.7 221.5 325.9 220.9 324.7 219.5 324.4 220.6 323.5 220.4 322.1"/><polygon class="cls-20" points="234 208.5 235 209 235.9 208.4 235.8 209.5 236.7 210.3 235.6 210.5 235.1 211.5 234.6 210.5 233.5 210.4 234.2 209.6 234 208.5"/><polygon class="cls-20" points="188.4 199.7 188.8 200.3 189.5 200.3 189.1 200.9 189.3 201.6 188.6 201.4 188 201.8 188 201 187.4 200.6 188.1 200.4 188.4 199.7"/><polygon class="cls-20" points="199.8 186.9 198.9 187.6 199 188.7 198.1 188.1 197.1 188.5 197.4 187.5 196.7 186.7 197.8 186.6 198.3 185.7 198.7 186.7 199.8 186.9"/><polygon class="cls-19" points="173.2 215.8 172.3 216.9 172.7 218.4 171.3 217.8 170 218.6 170.1 217.1 168.9 216.2 170.4 215.8 170.9 214.4 171.7 215.7 173.2 215.8"/><polygon class="cls-20" points="298.2 215.1 295.2 215.8 294 218.7 292.4 216 289.3 215.8 291.4 213.5 290.6 210.5 293.5 211.7 296.1 210.1 295.8 213.1 298.2 215.1"/><polygon class="cls-18" points="383.9 130.3 382.1 131.2 381.8 133.2 380.3 131.8 378.3 132.1 379.3 130.3 378.3 128.5 380.3 128.8 381.8 127.4 382.1 129.4 383.9 130.3"/><polygon class="cls-18" points="366.1 208.4 364.3 209.3 364 211.3 362.5 209.8 360.5 210.2 361.5 208.4 360.5 206.6 362.5 206.9 364 205.4 364.3 207.5 366.1 208.4"/><polygon class="cls-19" points="415.9 310.3 415.2 312 416.1 313.5 414.3 313.3 413.1 314.6 412.8 312.9 411.1 312.2 412.7 311.3 412.9 309.5 414.2 310.7 415.9 310.3"/><polygon class="cls-19" points="393.1 175.1 391.3 174.7 390 175.9 389.8 174.1 388.2 173.2 389.9 172.5 390.3 170.7 391.5 172.1 393.3 171.8 392.4 173.4 393.1 175.1"/><polygon class="cls-18" points="229.5 55.3 227 57 227 60 224.6 58.2 221.8 59.2 222.8 56.3 221 53.9 224 54 225.7 51.5 226.6 54.4 229.5 55.3"/><polygon class="cls-19" points="468.9 311.5 467.1 310.8 465.6 312 465.6 310.1 464 309 465.8 308.4 466.4 306.5 467.5 308.1 469.5 308.1 468.3 309.6 468.9 311.5"/><polygon class="cls-21" points="443.5 133.5 442.2 135.8 443.3 138.1 440.7 137.6 438.9 139.4 438.6 136.8 436.2 135.6 438.6 134.5 439.1 131.9 440.9 133.9 443.5 133.5"/><polygon class="cls-19" points="492 207 491.4 205.1 489.5 204.5 491.2 203.3 491.1 201.3 492.7 202.5 494.6 201.9 494 203.8 495.1 205.4 493.2 205.4 492 207"/><polygon class="cls-19" points="500.5 294.9 499.1 293.5 497.1 293.9 498 292.1 497.1 290.3 499.1 290.6 500.4 289.2 500.8 291.2 502.6 292 500.8 292.9 500.5 294.9"/><polygon class="cls-19" points="246.6 152.7 245.5 153.5 245.4 154.8 244.4 154 243.1 154.4 243.6 153.1 242.8 152 244.2 152 245 151 245.3 152.3 246.6 152.7"/><polygon class="cls-18" points="229.9 111.2 228.5 109.8 226.5 110.2 227.4 108.4 226.4 106.7 228.4 106.9 229.8 105.5 230.1 107.4 231.9 108.3 230.1 109.2 229.9 111.2"/><polygon class="cls-19" points="479 258.6 477.7 257.1 475.7 257.2 476.8 255.5 476.1 253.7 478 254.2 479.5 252.9 479.6 254.9 481.3 255.9 479.5 256.7 479 258.6"/><polygon class="cls-21" points="428.9 235.4 428.6 232.7 426.1 231.4 428.6 230.2 429 227.5 430.9 229.5 433.7 229.1 432.4 231.5 433.6 234 430.9 233.5 428.9 235.4"/><polygon class="cls-20" points="463.4 172.4 462.9 173.4 463.5 174.4 462.3 174.3 461.6 175.1 461.4 174 460.3 173.6 461.3 173 461.4 171.9 462.3 172.6 463.4 172.4"/><polygon class="cls-19" points="489.1 223.9 487.5 223.4 486.1 224.4 486.2 222.7 484.8 221.7 486.4 221.2 486.9 219.6 487.9 221 489.5 220.9 488.5 222.3 489.1 223.9"/><polygon class="cls-21" points="455.7 201.8 453.3 201.5 451.8 203.2 451.3 200.9 449.2 200 451.2 198.9 451.5 196.6 453.2 198.1 455.5 197.6 454.5 199.8 455.7 201.8"/><polygon class="cls-22" points="472.5 125.1 471.9 125.6 471.9 126.3 471.3 125.8 470.5 126.1 470.8 125.3 470.4 124.7 471.1 124.8 471.6 124.1 471.8 124.9 472.5 125.1"/><polygon class="cls-22" points="485.7 136.9 485 136.1 483.9 136.1 484.5 135.2 484.1 134.2 485.2 134.5 486 133.7 486.1 134.8 487.1 135.4 486 135.8 485.7 136.9"/><polygon class="cls-19" points="455.9 109.4 454.7 108.4 453.2 108.9 453.8 107.4 452.9 106.1 454.5 106.2 455.4 105 455.8 106.5 457.3 107 455.9 107.9 455.9 109.4"/><polygon class="cls-19" points="298.6 265.9 297 266.7 296.8 268.5 295.5 267.2 293.8 267.5 294.6 265.9 293.8 264.4 295.5 264.7 296.8 263.4 297 265.2 298.6 265.9"/><polygon class="cls-20" points="298 318.7 296.6 318.4 295.6 319.3 295.5 317.9 294.3 317.2 295.5 316.7 295.8 315.3 296.7 316.4 298.1 316.2 297.4 317.4 298 318.7"/><polygon class="cls-22" points="349.9 268.7 348.8 270.7 349.8 272.7 347.5 272.2 345.9 273.8 345.7 271.6 343.7 270.5 345.7 269.6 346.1 267.3 347.6 269 349.9 268.7"/><polygon class="cls-20" points="373 344.4 372.5 342.6 370.7 342 372.2 340.9 372.2 339.1 373.7 340.2 375.5 339.6 374.9 341.4 376 342.9 374.1 342.9 373 344.4"/><polygon class="cls-18" points="324.8 364 324.6 361.9 322.7 360.9 324.6 360.1 324.9 358 326.3 359.5 328.4 359.2 327.4 361 328.3 362.9 326.3 362.5 324.8 364"/><polygon class="cls-19" points="350.7 316.6 350.3 317.4 350.8 318.1 349.9 318.1 349.4 318.7 349.2 317.9 348.4 317.5 349.1 317.1 349.2 316.2 349.9 316.8 350.7 316.6"/><polygon class="cls-19" points="370 355.3 368.8 354.9 367.8 355.7 367.8 354.4 366.8 353.7 368 353.3 368.3 352.1 369.1 353.1 370.3 353.1 369.6 354.1 370 355.3"/><polygon class="cls-20" points="266 409.5 267.8 410.3 269.5 409.3 269.3 411.3 270.8 412.6 268.9 413 268.1 414.8 267.1 413.1 265.1 412.9 266.5 411.4 266 409.5"/><polygon class="cls-19" points="282.1 383 281.5 384.8 282.7 386.3 280.8 386.3 279.7 387.8 279.1 386 277.3 385.5 278.9 384.4 278.8 382.5 280.3 383.6 282.1 383"/><polygon class="cls-18" points="266 352.1 264.6 353.5 264.9 355.4 263.2 354.5 261.5 355.5 261.8 353.5 260.3 352.2 262.3 351.9 263.1 350.1 264 351.8 266 352.1"/><polygon class="cls-22" points="229.1 367 227.4 368.4 227.6 370.7 225.7 369.5 223.6 370.3 224.2 368.1 222.7 366.4 225 366.3 226.1 364.4 227 366.5 229.1 367"/><polygon class="cls-19" points="313.7 463.8 311.4 464.5 310.6 466.8 309.3 464.9 306.8 464.9 308.3 462.9 307.5 460.6 309.8 461.4 311.8 460 311.7 462.4 313.7 463.8"/><polygon class="cls-19" points="261.6 499.1 262.4 499.5 263.1 499 263 499.9 263.6 500.4 262.8 500.6 262.5 501.3 262.1 500.6 261.3 500.5 261.8 499.9 261.6 499.1"/><polygon class="cls-19" points="327.7 467.7 327.2 469.2 328.2 470.5 326.6 470.5 325.6 471.9 325.1 470.3 323.6 469.8 324.9 468.9 324.9 467.3 326.2 468.2 327.7 467.7"/><polygon class="cls-18" points="282.9 504.7 282.7 506.4 283.9 507.5 282.3 507.8 281.6 509.4 280.8 507.9 279.1 507.7 280.3 506.5 279.9 504.8 281.4 505.5 282.9 504.7"/><polygon class="cls-19" points="227.5 492.5 227.8 493 228.3 493 228 493.4 228.2 493.9 227.6 493.7 227.2 494.1 227.2 493.5 226.8 493.2 227.3 493 227.5 492.5"/><polygon class="cls-19" points="236 482.9 235.4 483.5 235.5 484.3 234.8 483.8 234 484.1 234.2 483.4 233.7 482.7 234.5 482.7 234.9 482 235.2 482.8 236 482.9"/><polygon class="cls-19" points="216.1 504.5 215.4 505.4 215.7 506.5 214.7 506.1 213.8 506.7 213.8 505.6 212.9 504.9 214 504.6 214.4 503.5 215 504.5 216.1 504.5"/><polygon class="cls-18" points="324.8 364 324.6 361.9 322.7 360.9 324.6 360.1 324.9 358 326.3 359.5 328.4 359.2 327.4 361 328.3 362.9 326.3 362.5 324.8 364"/><polygon class="cls-19" points="370 355.3 368.8 354.9 367.8 355.7 367.8 354.4 366.8 353.7 368 353.3 368.3 352.1 369.1 353.1 370.3 353.1 369.6 354.1 370 355.3"/><polygon class="cls-19" points="344.9 338.7 343.2 338.5 342 339.8 341.7 338.1 340.1 337.4 341.6 336.5 341.8 334.8 343 336 344.8 335.6 344 337.2 344.9 338.7"/><polygon class="cls-20" points="474 376.4 473.5 374.6 471.7 374 473.2 372.9 473.2 371.1 474.7 372.2 476.5 371.6 475.9 373.4 477 374.9 475.1 374.9 474 376.4"/><polygon class="cls-19" points="451.7 348.6 451.3 349.4 451.8 350.1 450.9 350.1 450.4 350.7 450.2 349.9 449.4 349.5 450.1 349.1 450.2 348.2 450.9 348.8 451.7 348.6"/><polygon class="cls-19" points="471 387.3 469.8 386.9 468.8 387.7 468.8 386.4 467.8 385.7 469 385.3 469.3 384.1 470.1 385.1 471.3 385.1 470.6 386.1 471 387.3"/><polygon class="cls-19" points="471 387.3 469.8 386.9 468.8 387.7 468.8 386.4 467.8 385.7 469 385.3 469.3 384.1 470.1 385.1 471.3 385.1 470.6 386.1 471 387.3"/><polygon class="cls-19" points="445.9 370.7 444.2 370.5 443 371.8 442.7 370.1 441.1 369.4 442.6 368.5 442.8 366.8 444 368 445.8 367.6 445 369.2 445.9 370.7"/><polygon class="cls-20" points="414 530.4 413.5 528.6 411.7 528 413.2 526.9 413.2 525.1 414.7 526.2 416.5 525.6 415.9 527.4 417 528.9 415.1 528.9 414 530.4"/><polygon class="cls-18" points="365.8 550 365.6 547.9 363.7 546.9 365.6 546.1 365.9 544 367.3 545.5 369.4 545.2 368.4 547 369.3 548.9 367.3 548.5 365.8 550"/><polygon class="cls-19" points="391.7 502.6 391.3 503.4 391.8 504.1 390.9 504.1 390.4 504.7 390.2 503.9 389.4 503.5 390.1 503.1 390.2 502.2 390.9 502.8 391.7 502.6"/><polygon class="cls-19" points="411 541.3 409.8 540.9 408.8 541.7 408.8 540.4 407.8 539.7 409 539.3 409.3 538.1 410.1 539.1 411.3 539.1 410.6 540.1 411 541.3"/><polygon class="cls-18" points="365.8 550 365.6 547.9 363.7 546.9 365.6 546.1 365.9 544 367.3 545.5 369.4 545.2 368.4 547 369.3 548.9 367.3 548.5 365.8 550"/><polygon class="cls-19" points="411 541.3 409.8 540.9 408.8 541.7 408.8 540.4 407.8 539.7 409 539.3 409.3 538.1 410.1 539.1 411.3 539.1 410.6 540.1 411 541.3"/><polygon class="cls-19" points="385.9 524.7 384.2 524.5 383 525.8 382.7 524.1 381.1 523.4 382.6 522.5 382.8 520.8 384 522 385.8 521.6 385 523.2 385.9 524.7"/><polygon class="cls-18" points="210.5 543.7 209.9 545.2 210.7 546.6 209.1 546.4 208 547.6 207.7 546 206.2 545.4 207.6 544.6 207.8 543 209 544.1 210.5 543.7"/><polygon class="cls-20" points="608.6 616.3 608.2 618.1 609.4 619.4 607.6 619.5 606.8 621.1 606.1 619.5 604.3 619.1 605.7 617.9 605.5 616.2 607 617.1 608.6 616.3"/><polygon class="cls-20" points="561.5 569.5 563.2 570.4 564.9 569.6 564.5 571.5 565.8 572.8 563.9 573.1 563 574.7 562.3 573 560.4 572.7 561.8 571.4 561.5 569.5"/><polygon class="cls-20" points="666.9 581.8 664.2 582.1 663 584.5 661.8 582.1 659.2 581.7 661.1 579.8 660.7 577.2 663.1 578.5 665.5 577.3 665 579.9 666.9 581.8"/><polygon class="cls-19" points="589.6 555.1 590.4 555.5 591.1 555 591 555.9 591.6 556.4 590.8 556.6 590.5 557.3 590.1 556.6 589.3 556.5 589.8 555.9 589.6 555.1"/><polygon class="cls-18" points="610.9 560.7 610.7 562.4 611.9 563.5 610.3 563.8 609.6 565.4 608.8 563.9 607.1 563.7 608.3 562.5 607.9 560.8 609.4 561.5 610.9 560.7"/><polygon class="cls-19" points="555.5 548.5 555.8 549 556.3 549 556 549.4 556.2 549.9 555.6 549.7 555.2 550.1 555.2 549.5 554.8 549.2 555.3 549 555.5 548.5"/><polygon class="cls-19" points="564 538.9 563.4 539.5 563.5 540.3 562.8 539.8 562 540.1 562.2 539.4 561.7 538.7 562.5 538.7 562.9 538 563.2 538.8 564 538.9"/><polygon class="cls-19" points="544.1 560.5 543.4 561.4 543.7 562.5 542.7 562.1 541.8 562.7 541.8 561.6 540.9 560.9 542 560.6 542.4 559.5 543 560.5 544.1 560.5"/><polygon class="cls-19" points="589.6 555.1 590.4 555.5 591.1 555 591 555.9 591.6 556.4 590.8 556.6 590.5 557.3 590.1 556.6 589.3 556.5 589.8 555.9 589.6 555.1"/><polygon class="cls-18" points="610.9 560.7 610.7 562.4 611.9 563.5 610.3 563.8 609.6 565.4 608.8 563.9 607.1 563.7 608.3 562.5 607.9 560.8 609.4 561.5 610.9 560.7"/><polygon class="cls-19" points="555.5 548.5 555.8 549 556.3 549 556 549.4 556.2 549.9 555.6 549.7 555.2 550.1 555.2 549.5 554.8 549.2 555.3 549 555.5 548.5"/><polygon class="cls-19" points="564 538.9 563.4 539.5 563.5 540.3 562.8 539.8 562 540.1 562.2 539.4 561.7 538.7 562.5 538.7 562.9 538 563.2 538.8 564 538.9"/><polygon class="cls-19" points="544.1 560.5 543.4 561.4 543.7 562.5 542.7 562.1 541.8 562.7 541.8 561.6 540.9 560.9 542 560.6 542.4 559.5 543 560.5 544.1 560.5"/><polygon class="cls-18" points="538.5 599.7 537.9 601.2 538.7 602.6 537.1 602.4 536 603.6 535.7 602 534.2 601.4 535.6 600.6 535.8 599 537 600.1 538.5 599.7"/><polygon class="cls-20" points="797.3 558.9 798.7 559.9 800.4 559.4 799.8 561.1 800.8 562.5 799 562.5 798 563.9 797.5 562.2 795.8 561.6 797.3 560.6 797.3 558.9"/><polygon class="cls-20" points="734.9 581.6 736.5 580.5 736.4 578.6 738 579.8 739.7 579.1 739.1 580.9 740.3 582.5 738.4 582.4 737.3 584 736.7 582.2 734.9 581.6"/><polygon class="cls-20" points="790.7 491.5 789.9 494 791.5 496.1 788.9 496.1 787.4 498.3 786.5 495.8 784 495 786.1 493.5 786 490.8 788.2 492.4 790.7 491.5"/><polygon class="cls-19" points="733.8 550.1 734.4 549.5 734.3 548.7 735.1 549.1 735.8 548.8 735.6 549.6 736.2 550.2 735.3 550.3 734.9 551 734.6 550.2 733.8 550.1"/><polygon class="cls-18" points="747.9 533.2 749.3 534.1 750.8 533.4 750.4 535.1 751.5 536.3 749.9 536.4 749 537.9 748.4 536.3 746.7 536 748 534.9 747.9 533.2"/><polygon class="cls-19" points="713.3 578.2 713.9 578.1 714.1 577.6 714.4 578.1 714.9 578.2 714.5 578.6 714.6 579.1 714.1 578.9 713.6 579.1 713.7 578.6 713.3 578.2"/><polygon class="cls-19" points="708.3 566.4 708.5 567.2 709.2 567.5 708.6 567.9 708.5 568.7 707.9 568.2 707.1 568.4 707.4 567.7 707 567 707.8 567 708.3 566.4"/><polygon class="cls-19" points="719.4 593.6 719.9 594.6 721 594.8 720.2 595.5 720.3 596.6 719.4 596.1 718.4 596.6 718.6 595.5 717.8 594.7 718.9 594.6 719.4 593.6"/><polygon class="cls-19" points="733.8 550.1 734.4 549.5 734.3 548.7 735.1 549.1 735.8 548.8 735.6 549.6 736.2 550.2 735.3 550.3 734.9 551 734.6 550.2 733.8 550.1"/><polygon class="cls-18" points="747.9 533.2 749.3 534.1 750.8 533.4 750.4 535.1 751.5 536.3 749.9 536.4 749 537.9 748.4 536.3 746.7 536 748 534.9 747.9 533.2"/><polygon class="cls-19" points="713.3 578.2 713.9 578.1 714.1 577.6 714.4 578.1 714.9 578.2 714.5 578.6 714.6 579.1 714.1 578.9 713.6 579.1 713.7 578.6 713.3 578.2"/><polygon class="cls-19" points="708.3 566.4 708.5 567.2 709.2 567.5 708.6 567.9 708.5 568.7 707.9 568.2 707.1 568.4 707.4 567.7 707 567 707.8 567 708.3 566.4"/><polygon class="cls-19" points="719.4 593.6 719.9 594.6 721 594.8 720.2 595.5 720.3 596.6 719.4 596.1 718.4 596.6 718.6 595.5 717.8 594.7 718.9 594.6 719.4 593.6"/><polygon class="cls-18" points="752.5 615.3 753.6 616.5 755.2 616.3 754.3 617.7 755 619.2 753.4 618.8 752.2 619.9 752.1 618.3 750.7 617.4 752.2 616.8 752.5 615.3"/><polygon class="cls-19" points="171.9 574.4 171.5 572.7 169.8 572.2 171.2 571.3 171.2 569.6 172.6 570.6 174.2 570.1 173.6 571.7 174.6 573 172.9 573 171.9 574.4"/><polygon class="cls-18" points="128.6 592 128.4 590.1 126.7 589.3 128.4 588.5 128.7 586.6 130 588 131.8 587.7 130.9 589.3 131.8 591 129.9 590.6 128.6 592"/><polygon class="cls-19" points="151.9 549.4 151.6 550.1 152 550.8 151.2 550.7 150.7 551.3 150.5 550.5 149.8 550.2 150.5 549.8 150.6 549 151.1 549.6 151.9 549.4"/><polygon class="cls-20" points="169.3 584.2 168.2 583.8 167.3 584.5 167.3 583.4 166.3 582.7 167.4 582.4 167.7 581.3 168.4 582.2 169.6 582.2 168.9 583.1 169.3 584.2"/><polygon class="cls-19" points="146.7 569.2 145.1 569 144.1 570.2 143.8 568.7 142.3 568.1 143.7 567.3 143.8 565.7 145 566.8 146.5 566.4 145.9 567.9 146.7 569.2"/><polygon class="cls-19" points="374.9 261.5 374.4 261.9 374.3 262.5 373.8 262.1 373.2 262.3 373.4 261.7 373.1 261.1 373.7 261.2 374.1 260.7 374.3 261.3 374.9 261.5"/><polygon class="cls-19" points="386.3 271.7 385.7 270.9 384.7 271 385.2 270.2 384.9 269.3 385.8 269.5 386.5 268.9 386.6 269.9 387.4 270.4 386.5 270.7 386.3 271.7"/><polygon class="cls-19" points="360.6 248 359.6 247.1 358.3 247.5 358.8 246.2 358 245.1 359.3 245.2 360.2 244.2 360.5 245.5 361.8 245.9 360.6 246.6 360.6 248"/><polygon class="cls-19" points="727.9 573.3 727.2 575 728.1 576.5 726.3 576.3 725.1 577.6 724.8 575.9 723.1 575.2 724.7 574.3 724.9 572.5 726.2 573.7 727.9 573.3"/><polygon class="cls-22" points="661.9 531.7 660.8 533.7 661.8 535.7 659.5 535.2 657.9 536.8 657.7 534.6 655.7 533.5 657.7 532.6 658.1 530.3 659.6 532 661.9 531.7"/><polygon class="cls-19" points="662.7 579.6 662.3 580.4 662.8 581.1 661.9 581.1 661.4 581.7 661.2 580.9 660.4 580.5 661.1 580.1 661.2 579.2 661.9 579.8 662.7 579.6"/><polygon class="cls-19" points="686.9 524.5 686.4 524.9 686.3 525.5 685.8 525.1 685.2 525.3 685.4 524.7 685.1 524.1 685.7 524.2 686.1 523.7 686.3 524.3 686.9 524.5"/><polygon class="cls-19" points="698.3 534.7 697.7 533.9 696.7 534 697.2 533.2 696.9 532.3 697.8 532.5 698.5 531.9 698.6 532.9 699.4 533.4 698.5 533.7 698.3 534.7"/><polygon class="cls-19" points="672.6 511 671.6 510.1 670.3 510.5 670.8 509.2 670 508.1 671.3 508.2 672.2 507.2 672.5 508.5 673.8 508.9 672.6 509.6 672.6 511"/><polygon class="cls-19" points="213.9 133.8 213.2 134.9 213.8 136 212.6 135.7 211.7 136.6 211.6 135.3 210.5 134.8 211.6 134.3 211.8 133.1 212.6 134 213.9 133.8"/><polygon class="cls-19" points="315.2 145.9 314.8 146.8 315.3 147.7 314.3 147.6 313.7 148.3 313.5 147.3 312.6 147 313.4 146.5 313.5 145.5 314.2 146.2 315.2 145.9"/><polygon class="cls-22" points="308.8 91.7 307.7 90.9 306.4 91.2 306.9 90 306.2 88.9 307.5 89 308.3 87.9 308.7 89.2 309.9 89.7 308.8 90.4 308.8 91.7"/><polygon class="cls-21" points="309.3 203.2 308.7 200.5 306.1 199.5 308.5 198.1 308.7 195.3 310.8 197.1 313.5 196.5 312.4 199 313.8 201.4 311.1 201.1 309.3 203.2"/><polygon class="cls-20" points="577.2 355.1 574.2 355.8 573 358.7 571.4 356 568.3 355.8 570.4 353.5 569.6 350.5 572.5 351.7 575.1 350.1 574.8 353.1 577.2 355.1"/><polygon class="cls-18" points="645.1 348.4 643.3 349.3 643 351.3 641.5 349.8 639.5 350.2 640.5 348.4 639.5 346.6 641.5 346.9 643 345.4 643.3 347.5 645.1 348.4"/><polygon class="cls-19" points="577.6 405.9 576 406.7 575.8 408.5 574.5 407.2 572.8 407.5 573.6 405.9 572.8 404.4 574.5 404.7 575.8 403.4 576 405.2 577.6 405.9"/><polygon class="cls-22" points="628.9 408.7 627.8 410.7 628.8 412.7 626.5 412.2 624.9 413.8 624.7 411.6 622.7 410.5 624.7 409.6 625.1 407.3 626.6 409 628.9 408.7"/><polygon class="cls-19" points="653.9 401.5 653.4 401.9 653.3 402.5 652.8 402.1 652.2 402.3 652.4 401.7 652.1 401.1 652.7 401.2 653.1 400.7 653.3 401.3 653.9 401.5"/><polygon class="cls-19" points="665.3 411.7 664.7 410.9 663.7 411 664.2 410.2 663.9 409.3 664.8 409.5 665.5 408.9 665.6 409.9 666.4 410.4 665.5 410.7 665.3 411.7"/><polygon class="cls-19" points="639.6 388 638.6 387.1 637.3 387.5 637.8 386.2 637 385.1 638.3 385.2 639.2 384.2 639.5 385.5 640.8 385.9 639.6 386.6 639.6 388"/><polygon class="cls-21" points="588.3 343.2 587.7 340.5 585.1 339.5 587.5 338.1 587.7 335.3 589.8 337.1 592.5 336.5 591.4 339 592.8 341.4 590.1 341.1 588.3 343.2"/><polygon class="cls-20" points="547.4 144.4 544.3 143.8 542.1 146 541.7 142.9 539 141.5 541.8 140.2 542.3 137.1 544.4 139.4 547.5 138.9 546 141.7 547.4 144.4"/><polygon class="cls-18" points="612.3 165.3 610.3 165.4 609.2 167.2 608.5 165.3 606.5 164.8 608.1 163.5 607.9 161.5 609.7 162.6 611.5 161.8 611 163.8 612.3 165.3"/><polygon class="cls-19" points="617.3 278.7 616 279.9 616.2 281.7 614.7 280.8 613.1 281.5 613.4 279.8 612.2 278.5 614 278.3 614.8 276.7 615.6 278.4 617.3 278.7"/><polygon class="cls-19" points="650.4 145.6 648.9 144.5 647.2 145.1 647.8 143.4 646.7 141.9 648.5 141.9 649.5 140.4 650.1 142.2 651.9 142.7 650.4 143.8 650.4 145.6"/><polygon class="cls-19" points="665.5 300.9 664 299.6 662.2 300.1 662.9 298.3 661.9 296.7 663.9 296.9 665.1 295.4 665.5 297.3 667.3 298 665.6 299 665.5 300.9"/><polygon class="cls-19" points="728.3 214.3 728.6 212.3 727.1 211 729 210.6 729.8 208.8 730.8 210.5 732.8 210.7 731.4 212.2 731.8 214.1 730 213.3 728.3 214.3"/><polygon class="cls-19" points="701 298.4 700.3 296.5 698.3 296 699.9 294.8 699.7 292.8 701.4 293.8 703.3 293.1 702.8 295 704.1 296.5 702.1 296.6 701 298.4"/><polygon class="cls-19" points="695.8 256.5 695.3 254.5 693.4 253.9 695 252.8 695.1 250.8 696.6 252 698.5 251.4 697.8 253.3 699 255 697 254.9 695.8 256.5"/><polygon class="cls-21" points="659.1 215.2 659.9 212.6 658.2 210.4 660.9 210.3 662.4 208 663.4 210.6 666 211.3 663.8 213 664 215.8 661.7 214.2 659.1 215.2"/><polygon class="cls-20" points="715.9 171.2 715 171.9 715.2 173.1 714.2 172.5 713.2 173 713.4 171.9 712.6 171 713.8 170.9 714.3 169.9 714.8 171 715.9 171.2"/><polygon class="cls-19" points="718.9 228.7 717.7 227.5 716 227.9 716.7 226.4 715.8 225 717.5 225.1 718.6 223.8 718.9 225.5 720.5 226.1 719 227 718.9 228.7"/><polygon class="cls-21" points="697.1 195 695.1 193.9 693 194.8 693.5 192.6 691.9 190.8 694.2 190.6 695.3 188.6 696.3 190.7 698.6 191.2 696.8 192.7 697.1 195"/><polygon class="cls-19" points="689.2 436.4 689.2 434.4 687.5 433.4 689.4 432.7 689.8 430.9 691 432.4 693 432.2 691.9 433.8 692.6 435.6 690.7 435.1 689.2 436.4"/><polygon class="cls-19" points="795.2 421.1 796.7 419.9 796.6 417.9 798.3 419.1 800.1 418.3 799.6 420.3 800.8 421.8 798.8 421.9 797.7 423.5 797.1 421.6 795.2 421.1"/><polygon class="cls-19" points="715.8 460.1 716.7 458.3 715.6 456.5 717.6 456.8 718.9 455.2 719.4 457.2 721.2 458 719.5 459 719.3 461 717.8 459.6 715.8 460.1"/><polygon class="cls-19" points="742.2 427.1 743.3 425.4 742.4 423.6 744.4 424 745.8 422.7 746 424.7 747.8 425.6 745.9 426.4 745.6 428.4 744.2 426.9 742.2 427.1"/><polygon class="cls-21" points="746.3 372.1 748.8 370.8 749.1 368.1 751.1 370 753.8 369.4 752.6 371.9 753.9 374.3 751.2 374 749.3 376 748.8 373.3 746.3 372.1"/><polygon class="cls-19" points="778.3 424.4 778.2 422.7 776.8 421.8 778.4 421.2 778.8 419.6 779.9 420.9 781.5 420.8 780.6 422.2 781.2 423.8 779.6 423.3 778.3 424.4"/><polygon class="cls-21" points="787.2 385.3 786.7 383 784.5 382.2 786.5 381 786.6 378.6 788.4 380.1 790.6 379.5 789.8 381.7 791 383.7 788.7 383.5 787.2 385.3"/><polygon class="cls-19" points="527.5 191.2 525.7 191.3 524.8 192.8 524.1 191.1 522.4 190.7 523.8 189.6 523.7 187.8 525.1 188.8 526.8 188.1 526.3 189.8 527.5 191.2"/><polygon class="cls-20" points="505.8 239.2 504.7 238.4 503.4 238.9 503.9 237.6 503 236.5 504.4 236.5 505.2 235.4 505.6 236.7 506.9 237.1 505.8 237.9 505.8 239.2"/><polygon class="cls-22" points="573.4 214.2 571.6 215.5 571.7 217.8 569.8 216.5 567.7 217.3 568.4 215.1 567 213.3 569.2 213.3 570.5 211.4 571.2 213.6 573.4 214.2"/><polygon class="cls-20" points="564.4 292.8 564.6 290.9 563.2 289.7 565 289.3 565.8 287.6 566.7 289.2 568.6 289.4 567.3 290.8 567.7 292.6 566 291.8 564.4 292.8"/><polygon class="cls-18" points="512.4 291.5 513 289.5 511.6 287.9 513.7 287.8 514.9 286.1 515.6 288 517.6 288.6 515.9 289.9 516 291.9 514.3 290.8 512.4 291.5"/><polygon class="cls-19" points="555 258.4 554.4 259 554.5 259.9 553.7 259.4 552.9 259.8 553.1 259 552.5 258.3 553.4 258.2 553.8 257.5 554.2 258.3 555 258.4"/><polygon class="cls-19" points="557.3 301.6 556.3 300.8 555.1 301.1 555.6 299.9 554.9 298.8 556.2 299 557 298 557.3 299.2 558.5 299.7 557.4 300.4 557.3 301.6"/><polygon class="cls-19" points="540.9 276.4 539.4 275.5 537.8 276.2 538.2 274.5 537 273.2 538.7 273 539.6 271.5 540.3 273.1 542 273.5 540.7 274.6 540.9 276.4"/><polygon class="cls-19" points="599.2 217.6 598.6 217.7 598.3 218.3 598 217.7 597.3 217.6 597.8 217.1 597.7 216.5 598.2 216.8 598.8 216.5 598.7 217.1 599.2 217.6"/><polygon class="cls-19" points="605.6 231.4 605.3 230.5 604.4 230.2 605.2 229.6 605.2 228.7 606 229.3 606.9 229 606.6 229.9 607.1 230.7 606.2 230.7 605.6 231.4"/><polygon class="cls-19" points="591.5 199.4 590.9 198.3 589.5 198.1 590.5 197.1 590.2 195.8 591.4 196.4 592.6 195.8 592.4 197.1 593.4 198 592.1 198.2 591.5 199.4"/><polygon class="cls-19" points="536.1 129.7 534.8 130.9 535 132.7 533.4 131.8 531.8 132.5 532.2 130.8 531 129.5 532.8 129.3 533.6 127.7 534.3 129.4 536.1 129.7"/><polygon class="cls-21" points="577.9 66.2 578.7 63.6 576.9 61.4 579.7 61.3 581.2 59 582.1 61.6 584.8 62.3 582.6 64 582.8 66.8 580.5 65.2 577.9 66.2"/><polygon class="cls-22" points="492.2 65.2 490.4 66.5 490.5 68.8 488.6 67.5 486.5 68.3 487.1 66.1 485.7 64.3 488 64.3 489.2 62.4 490 64.6 492.2 65.2"/><polygon class="cls-19" points="473.8 109.4 473.1 110 473.2 110.9 472.5 110.4 471.7 110.8 471.9 110 471.3 109.3 472.2 109.2 472.6 108.5 472.9 109.3 473.8 109.4"/><polygon class="cls-19" points="459.7 127.4 458.1 126.5 456.6 127.2 456.9 125.5 455.7 124.2 457.5 124 458.3 122.5 459 124.1 460.8 124.5 459.4 125.6 459.7 127.4"/><polygon class="cls-19" points="518 68.6 517.3 68.7 517.1 69.3 516.7 68.7 516.1 68.6 516.6 68.1 516.4 67.5 517 67.8 517.6 67.5 517.5 68.1 518 68.6"/><polygon class="cls-19" points="524.4 82.4 524.1 81.5 523.2 81.2 524 80.6 524 79.7 524.8 80.3 525.7 80 525.4 80.9 525.9 81.7 524.9 81.7 524.4 82.4"/><polygon class="cls-19" points="510.3 50.4 509.6 49.3 508.3 49.1 509.3 48.1 509 46.8 510.2 47.4 511.4 46.8 511.2 48.1 512.2 49 510.8 49.2 510.3 50.4"/><polygon class="cls-23" points="375.7 56.6 373.9 55.3 372 56.1 372.5 53.9 371.1 52.2 373.2 52.1 374.3 50.2 375.1 52.4 377.2 52.9 375.5 54.3 375.7 56.6"/><polygon class="cls-23" points="381.4 81.9 381.1 81.4 380.5 81.3 380.9 80.8 380.7 80.2 381.3 80.5 381.8 80.1 381.8 80.8 382.3 81.2 381.6 81.3 381.4 81.9"/><polygon class="cls-23" points="371.3 92.3 372.1 91.8 372 90.8 372.8 91.4 373.6 91.1 373.4 92 373.9 92.8 373 92.8 372.5 93.6 372.2 92.6 371.3 92.3"/><polygon class="cls-23" points="394.8 68.9 395.7 68 395.4 66.7 396.5 67.3 397.6 66.6 397.5 67.9 398.4 68.9 397.2 69.1 396.7 70.3 396.1 69.1 394.8 68.9"/><polygon class="cls-21" points="562.3 137.9 562.9 135.2 560.9 133.2 563.7 132.9 564.9 130.5 566.1 133 568.8 133.4 566.8 135.3 567.2 138.1 564.8 136.7 562.3 137.9"/></g></g></svg>